<svg width="108" height="28" viewBox="0 0 108 28" fill="none" xmlns="http://www.w3.org/2000/svg">
<g clip-path="url(#clip0_5991_247443)">
<path d="M0.00352323 3.5V9.02268H12.215L0 21.5722V27.071H21.5163V21.5483H9.33479L21.5163 8.99704V3.5H0.00352323Z" fill="#F5F5F5"/>
<path d="M86.0072 27.5C92.9796 27.5 97.4999 24.1669 97.4999 16.5606V3.5H90.5962V16.7623C90.5962 20.0612 88.8099 21.6081 86.0776 21.6081C83.3454 21.6081 81.5626 19.9928 81.5626 16.5931V3.5H74.6553V16.7281C74.6553 24.1002 79.0347 27.4966 86.0072 27.4966V27.5ZM57.1008 14.8103V9.1543H61.5507C63.8284 9.1543 65.2307 10.0978 65.2307 11.949V12.0156C65.2307 13.7249 63.8989 14.8103 61.5859 14.8103H57.1008ZM50.3045 27.0624H57.1008V19.9262H60.0797L65.0122 27.0624H72.8602L67.0099 18.8579C70.0575 17.6118 72.0552 15.2222 72.0552 11.6208V11.5524C72.0552 9.23122 71.3188 7.41254 69.8831 6.06734C68.236 4.45036 65.6429 3.50342 61.8942 3.50342H50.3045V27.0624ZM35.8346 27.5C42.8071 27.5 47.3256 24.1669 47.3256 16.5606V3.5H40.4236V16.7623C40.4236 20.0612 38.6374 21.6081 35.9033 21.6081C33.1693 21.6081 31.3848 19.9928 31.3848 16.5931V3.5H24.4863V16.7281C24.4863 24.1002 28.8675 27.4966 35.8399 27.4966" fill="#F5F5F5"/>
</g>
<defs>
<clipPath id="clip0_5991_247443">
<rect width="108" height="27" fill="white" transform="translate(0 0.5)"/>
</clipPath>
</defs>
</svg>
