<svg xmlns="http://www.w3.org/2000/svg" xmlns:xlink="http://www.w3.org/1999/xlink" width="1366" height="768" viewBox="0 0 1366 768"><defs><clipPath id="b"><rect width="1366" height="768"/></clipPath></defs><g id="a" clip-path="url(#b)"><path d="M661.711,89.364c9.65,39.942-224.374,65.994-425.8,47.813S-57.928,47.994,38.191,10.162,652.061,49.422,661.711,89.364Z" transform="translate(53.749 638.872) rotate(-7)" fill="#dde3e9"/><g transform="translate(147 130)" opacity="0.25"><path d="M5.163,101.346h0a18,18,0,0,1-2.074-.112c-1.436-.168-2.251-.477-2.564-.974-.341-.542-.091-1.27.226-2.193a13.206,13.206,0,0,0,.483-1.651C1.73,94,1.317,90.951.918,88,.7,86.425.5,84.935.449,83.6-.293,65.257.027,46.873.386,31.082c.086-3.8.194-7.668.3-11.406q.035-1.245.069-2.491c.009-.309.019-.623.03-.942a35.307,35.307,0,0,0-.06-4.95,3.785,3.785,0,0,0-.33-1.127C.134,9.558-.053,9.12.723,8.107c1.013-1.321,3.635-1.49,5.807-1.49.69,0,1.384.019,2.094.04l.145,0c.625.019,1.215.036,1.742.036.46,0,.828-.014,1.124-.042,4.228-.408,8.151-.7,11.993-.906C35.712,5.114,47.979,4.295,59.842,3.5,85.63,1.782,112.3,0,138.65,0h2.341a63.134,63.134,0,0,1,13.942,1.1,22.187,22.187,0,0,0,2.9.532,3.731,3.731,0,0,0,.391.019c.18,0,.355-.01.525-.02h.009c.165-.009.335-.019.5-.019a2.627,2.627,0,0,1,1.049.19,3.965,3.965,0,0,1,2.322,2.954c.475,1.777.019,4.216-.423,6.575-.219,1.169-.425,2.272-.5,3.227-.324,4.028-.476,8.409-.463,13.393q0,.781,0,1.562a181.222,181.222,0,0,0,1,22.65c.24,1.868.508,3.757.767,5.583.7,4.941,1.424,10.046,1.664,15.166.082,1.728.145,3.487.206,5.187v.013c.087,2.42.177,4.923.322,7.387.025.424.023.861.022,1.324a10.876,10.876,0,0,0,.209,2.691,2.006,2.006,0,0,0,.729,1.041,1.2,1.2,0,0,1,.436.552c.3,1.226.406,2.042.026,2.59-.35.505-1.073.781-2.463,1.173-5.412,1.526-11.5,1.736-17.279,1.736-1.174,0-2.327-.009-3.442-.017l-.332,0c-1.027-.007-2-.014-2.975-.014h-.158c-19.825.011-37.692.059-55.606.548-5.441.149-10.986.235-16.349.318-12.752.2-25.938.4-38.828,1.465-3.029.25-6.1.55-9.08.839-1.166.114-2.367.231-3.549.343-1.287.122-2.639.321-4.07.532A51.825,51.825,0,0,1,5.163,101.346ZM58.924,33.053c4.073,0,8.432,1.439,13.327,4.4a97.488,97.488,0,0,1,11.54,8.632l.565.469c1.307,1.084,2.62,2.194,3.89,3.267,2.877,2.432,5.852,4.946,8.9,7.283l.6.459.1.079c2.577,1.98,5.243,4.027,8.009,5.812a6.846,6.846,0,0,0,3.6,1.411c1.361,0,2.63-.8,4.587-2.1.679-.451,1.357-.909,2.014-1.353a74.938,74.938,0,0,1,8.324-5.111,25.594,25.594,0,0,1,9.4-2.768c.641-.053,1.3-.08,1.972-.08,4.207,0,11.157,1.091,20.375,6.289a166.865,166.865,0,0,1-2.39-43.186c.166-2.475.439-4.963.71-7.282.026-.224.1-.575.194-.981a6.321,6.321,0,0,0,.27-2.776c-.509-1-2.355-1.132-3.906-1.132-.415,0-.82.009-1.267.021l-.067,0c-.388.01-.752.019-1.081.019-.145,0-.273,0-.391-.005-1.9-.059-3.866-.088-6-.088-4.838,0-9.759.153-14.517.3-2.163.067-4.4.137-6.59.191-19.575.482-40.067,1.568-60.908,3.23-7.747.618-15.633,1.062-23.259,1.492-8.9.5-18.1,1.021-27.136,1.818-3.36.3-3.362.58-3.384,3.3,0,.319-.005.68-.014,1.076-.02.915-.044,1.844-.067,2.743v.007l-.014.547c-.12,4.712-.252,9.738-.422,14.812C5.668,40.162,5.329,46.573,5,52.772c-.19,3.586-.386,7.292-.555,10.938,5.079-3.108,9.992-6.652,14.743-10.081,4.578-3.3,9.313-6.719,14.2-9.746,7.04-4.363,13.985-8.436,21.555-10.342A16.329,16.329,0,0,1,58.924,33.053Z" transform="translate(0.129 0.302)" fill="#69a1ac"/><path d="M.073,2.3c0,2.788-.438,6.9.848,9.528,1.631,3.33,3.67,2.289,4.211-.84.309-1.793.3-7.1-.274-8.688C4.042.048.073-1.484.073,2.3" transform="translate(117.414 17.057)" fill="#89c5cc"/><path d="M12.93.02C10.312.112,2.689-.516.918,1.589-2.12,5.2,3.168,5.838,5.439,5.636c2.628-.234,10.748.337,12.508-1.77C20.891.34,14.988-.055,12.93.02" transform="translate(109.236 20.409)" fill="#89c5cc"/><path d="M15.619,26.658h0a16.651,16.651,0,0,1-9.027-2.89,14.942,14.942,0,0,1-5.921-7.1A11.943,11.943,0,0,1,1.741,6.574,13.516,13.516,0,0,1,5.477,2.449,12.385,12.385,0,0,1,10.7.244,17.732,17.732,0,0,1,13.641,0a16.243,16.243,0,0,1,8.145,2.08A11.791,11.791,0,0,1,27.14,8.457a13.324,13.324,0,0,1,.67,5.13,15.99,15.99,0,0,1-1.2,5.189A14.444,14.444,0,0,1,23.762,23.2a11.068,11.068,0,0,1-4.3,2.827A11.492,11.492,0,0,1,15.619,26.658Zm-1.007-21a12.456,12.456,0,0,0-5.463,1.35A8.272,8.272,0,0,0,5.22,10.851a5.178,5.178,0,0,0-.007,4.237c1.175,2.766,4.511,5.053,7.3,6.093a8.982,8.982,0,0,0,3.128.608,6.357,6.357,0,0,0,4.85-2.156,8.458,8.458,0,0,0,2.043-4.921A8.139,8.139,0,0,0,15.469,5.7C15.194,5.673,14.905,5.66,14.612,5.66Z" transform="translate(5.113 107.88)" fill="#89c5cc"/><path d="M46.786.024c-2.865.238-5.341,2.244-8.224,2.6-2.7.332-4.93-.59-7.454-1.328A16.284,16.284,0,0,0,22.141.8c-2.383.605-4.733,2.226-7.207,2.422C10.064,3.61,4.4-1.946.6,4.338c-1.823,3.013.824,4.953,3.55,3.548C6.994,6.422,5.6,5.9,9.124,6.763c2.942.721,5.319,1.113,8.266.1C20.059,5.95,22.4,4.274,25.3,4.086c2.84-.184,5.312,1.11,8.027,1.668a17.592,17.592,0,0,0,9.457-.88c3.009-1,4.21-1.54,7.246-.652,1.923.562,6.123,2.349,7.995.909,3.236-2.489-1.1-2.853-2.8-3.207-2.747-.569-5.589-2.134-8.44-1.9" transform="translate(39.03 115.608)" fill="#89c5cc"/><path d="M10.989,20.427h0A10.524,10.524,0,0,1,3.536,17.41,11.664,11.664,0,0,1,.1,10.643,9.4,9.4,0,0,1,1.346,4.322,10.129,10.129,0,0,1,7.427.068,2.153,2.153,0,0,1,8,0C9.8,0,13.141,1.558,14.5,2.43a10.927,10.927,0,0,1,4.343,5.163,10.944,10.944,0,0,1,.69,4.567,10.066,10.066,0,0,1-1.249,4.357A7.329,7.329,0,0,1,13,20.255,12.147,12.147,0,0,1,10.989,20.427ZM8.014,6.3a2.872,2.872,0,0,0-2.27,3.369,6.053,6.053,0,0,0,1.876,3.257,5.179,5.179,0,0,0,3.393,1.537c.055,0,.111,0,.165,0,1.649-.08,2.563-.842,2.573-2.144a6.2,6.2,0,0,0-1.811-3.824A6.2,6.2,0,0,0,8.014,6.3Z" transform="translate(140.558 107.068)" fill="#89c5cc"/><path d="M1.172,84.938c-.935-2.255.364-3.293,2.264-3.765a25.085,25.085,0,0,1-.2-5c-.1-2.875-.139-5.751-.249-8.625C2.723,60.7,2.548,53.812,2.02,46.979,1.516,40.448.242,34.115.205,27.535.181,23.084-1.056,11.808,2.841,8.785c6.7-3.909,4.05,9.882,3.939,12.269a142.377,142.377,0,0,0,.842,21.195c.662,6.544-.1,13.059-.354,19.6C7.133,65.327,7.06,68.8,6.8,72.266c-.081,1.082.044,5.956-.523,8.552.862-.037,1.7-.029,2.4-.022.486,0,.906.01,1.224,0,5.426-.164,10.853-.308,16.278-.512,20.87-.785,41.752-.429,62.618-1.421,19.736-.938,39.545-1.137,59.3-1.379a2,2,0,0,1,1.391,3.358c-1.085,1.364-6.115,1.065-7.683,1.192-5.563.446-11.115.648-16.695.7-11.75.112-23.456.616-35.186,1.284-20.843,1.188-41.717,1.09-62.571,1.939-5.062.205-10.124.359-15.188.492-1.355.036-3.822.467-6.1.467C3.852,86.917,1.824,86.51,1.172,84.938Zm150.76-18.324q-.659-11.4-1.678-22.8c-1.111-12.26-2.063-24.231-2.054-36.54,0-2.921,3.507-3.509,5.062-1.522,1.486,1.9.529,7.655.566,9.93.12,7.493.828,14.944,1.5,22.4.668,7.4,1.14,14.8,1.656,22.209.239,3.424,2.87,17.092-.955,19.087a2.546,2.546,0,0,1-1.168.33C151.3,79.714,152.056,68.766,151.932,66.614ZM2.994,7.8C1.743,7.288.732,6.574,1.419,5.058,1.985,3.812,4,3.922,5.523,4.033c.473.034.9.067,1.222.062,4.924-.1,9.837-.372,14.752-.673,11.16-.683,22.3-1.481,33.478-1.672C76.286,1.386,97.567.212,118.886.014c6.314-.059,12.594.052,18.9.414,2.8.16,5.592.315,8.39.434.515.022,1.241-.018,2.037-.057,1.7-.083,3.724-.167,4.691.345,5.566,2.945-5.773,3.268-7.152,3.245-5.785-.1-11.559-.548-17.343-.689-21.274-.523-42.709.772-63.964,1.643C54.219,5.769,44,5.828,33.778,6.4c-5.587.314-11.171.672-16.758.967-2.576.136-5.153.267-7.733.332-1.1.028-2.974.35-4.517.35A4.927,4.927,0,0,1,2.994,7.8Z" transform="translate(2.319 145.143)" fill="#69a1ac"/><path d="M2.424,49.072C1.065,49.041.149,48.75.007,47.1-.174,45,3.219,44.132,4.59,43.446q7.05-3.525,14.172-6.9c9.419-4.493,18.927-8.807,28.469-13.034l.165-.073q-7.938-2.686-15.917-5.25c-3.039-.978-24.35-6.237-23.573-9.06.873-3.164,19.747,4.3,22.65,5.222q10.72,3.416,21.364,7.068C68.935,13.77,86.13,5.626,103.876.064c1.118-.349,1.824.8,1.57,1.769-.339,1.294-4.32,2.342-5.425,2.835-4.37,1.952-8.763,3.856-13.135,5.809-9.521,4.255-19.061,8.47-28.581,12.727l-.56.251q10.041,3.569,19.977,7.425c3.546,1.37,7.073,2.784,10.611,4.173,1.772.7,9.141,2.443,9.565,4.212.6,2.5-7.257-.571-8.507-.97-3.53-1.129-7.016-2.391-10.5-3.648-7.8-2.81-15.567-5.709-23.4-8.434l-2.2-.762q-12.469,5.6-24.876,11.332-6.65,3.081-13.241,6.284c-3.233,1.566-9.06,6.007-12.659,6.007Z" transform="translate(28.297 164.156)" fill="#89c5cc"/><path d="M13.02,24.6a12.628,12.628,0,0,1-8-2.546,8.491,8.491,0,0,1-2.858-4.181,9.585,9.585,0,0,1-.2-3.953,2.615,2.615,0,0,1-.384.03,1.734,1.734,0,0,1-1.56-.9c-.3-3.7,3.089-6.936,5.135-8.536A21.969,21.969,0,0,1,14.643.077,9.669,9.669,0,0,1,15.85,0a10.514,10.514,0,0,1,7.614,3.472,12.619,12.619,0,0,1,3.5,9.141A11.989,11.989,0,0,1,23.3,20.789a14.071,14.071,0,0,1-8.24,3.7A17.877,17.877,0,0,1,13.02,24.6ZM15.936,3.9a1.908,1.908,0,0,0-2.076,1.146,3.3,3.3,0,0,1-1.569,1.534,2.693,2.693,0,0,1-1.14.156,3.189,3.189,0,0,0-1.407.215A6.959,6.959,0,0,0,7.183,9.869l-.064.108c-1.633,2.74-1.987,5.529-.972,7.649.9,1.887,2.788,3.083,5.451,3.46a13.053,13.053,0,0,0,1.826.129A11.487,11.487,0,0,0,20.1,19.2a8.257,8.257,0,0,0,3.465-5.954,8.511,8.511,0,0,0-1.661-6.008,8.382,8.382,0,0,0-5.283-3.3C16.375,3.913,16.143,3.9,15.936,3.9Z" transform="translate(6.483 237.199)" fill="#89c5cc"/><path d="M8.116.977C5.733,2.24,1.964,4.18.567,6.578c-1.476,2.533.052,5.3,3.162,4.106C6.2,9.733,7.768,6.71,10.4,5.741c2.324-.855,3.261-.419,5.717.432C18.65,7.05,20.862,7.9,23.6,7.683c3.439-.27,6.417-2.264,9.783-2.718,2.834-.382,5.171.721,7.885,1.159,3.149.509,5.208-.683,8.154-1.3,2-.422,5.536,1.3,7,.653,3.287-1.445-.19-3.212-2.01-3.8-3.065-.983-4.951-.115-7.866.7-3.165.885-4.532.22-7.558-.593C32.863.14,28.135,4.117,22.333,3.394,16.961,2.724,13.747-2,8.116.977" transform="translate(38.73 244.298)" fill="#89c5cc"/><path d="M10.238,18.821h0a13.452,13.452,0,0,1-4.6-.8A9.665,9.665,0,0,1,1.871,15.6,6.969,6.969,0,0,1,.026,10.112a9.294,9.294,0,0,1,3.72-6.955A17.734,17.734,0,0,1,11.221.163,8.652,8.652,0,0,1,12.857,0a6.319,6.319,0,0,1,5.134,2.48A9.8,9.8,0,0,1,19.9,8.144a11.41,11.41,0,0,1-1.985,6.968,8.761,8.761,0,0,1-6.676,3.67C10.91,18.808,10.573,18.821,10.238,18.821Zm2.54-14.212c-2.482,0-5.652.836-7.14,2.7A4.876,4.876,0,0,0,4.417,11,3.849,3.849,0,0,0,6.182,13.6a6.892,6.892,0,0,0,3.9,1.293,5.622,5.622,0,0,0,3.217-1,5.559,5.559,0,0,0,2.015-2.53,5.411,5.411,0,0,0,.216-3.3,7.026,7.026,0,0,0-2.123-3.43C13.2,4.615,12.993,4.609,12.778,4.609Z" transform="translate(133.53 237.709)" fill="#89c5cc"/></g><g transform="translate(422 72)" opacity="0.25"><path d="M53.307.032Q40.671.174,28.055.969c-8,.507-16.67.122-24.536,1.672-2.233.44-5.25,2.475-2.281,4.714,2.087,1.574,9.724-.237,12.216-.39C22.634,6.4,31.818,5.726,41.01,5.4c8.7-.308,17.4-.416,26.11-.5,1.329-.013,3.536-.439,4.859-.053,1.9.555,1.451.706,1.593,3.12.258,4.374.187,8.764.1,13.142-.084,4.237-.241,8.473-.225,12.712.011,3.024-.956,9.033.561,11.66,2.184,3.78,4.45-.326,4.613-2.838.312-4.8.172-9.668.174-14.479,0-4.516.033-9.031-.126-13.544-.115-3.26.351-8.951-1.406-11.915C75.475-.317,71.169.334,68.026.19c-4.9-.225-9.813-.21-14.719-.159" transform="translate(2.202 0.33)" fill="#89c5cc"/><path d="M1.373,2.563C1.383,11.047.4,19.475.126,27.949c-.126,3.9-.382,8.175.6,12,.995,3.862,4.155,4.7,4.519.387.737-8.73.556-17.783,1.13-26.584.2-3.107,1.521-8.8.29-11.711-1.084-2.563-5.3-3.054-5.3.522" transform="translate(0.536 3.247)" fill="#89c5cc"/><path d="M78.11.013C63.48,1.949,48.186,1.243,33.451,1.548c-7.069.146-14.137.155-21.207.229C9.777,1.8,3.511.864,1.377,2.251c-3.4,2.208.289,3.912,2.538,3.961,13.952.306,28.06-.336,42.009-.794,6.267-.206,12.555-.306,18.806-.839A66.285,66.285,0,0,0,76.52,2.9c.8-.221,2.53-.175,2.708-1.261.11-.672-.089-1.768-1.118-1.626" transform="translate(2.796 43.195)" fill="#89c5cc"/><path d="M18.368.429C14.3.453,2.049-1.436.365,2.529-1.88,7.817,6.877,6.583,9.233,6.522c5.349-.137,10.7-.152,16.046-.15,5.25,0,10.5-.032,15.749-.156,1.521-.037,5.061.595,5.935-1.237a2.306,2.306,0,0,0-1.087-3.226c-2.951-1.773-10.616-.745-14.07-.9C27.333.642,22.846.429,18.368.429" transform="translate(1.703 55.111)" fill="#89c5cc"/><path d="M10.541.264C8.218.4,3.517-.555,1.436.508-.93,1.717-.1,3.61,1.946,4.441c1.415.576,7.217.274,8.6-.393,1.436-.7,3.06-3.972,0-3.784" transform="translate(58.995 56.255)" fill="#89c5cc"/><path d="M2.047.008C-.435.689.318,14.779.254,17.013c-.175,6.12-.863,13.817,1.17,19.71,1.3,3.757,3.787,3.248,3.363-.708-.373-3.472-1.012-6.9-1.289-10.4C2.872,17.71,2.021,9.276,2.612,1.363c.252.46,2.606,4.725,3.16,4.407C5.6,5.868,3.056-.258,2.047.008" transform="translate(92.966 6.634)" fill="#89c5cc"/><path d="M31.422.077C26.4.151,21.377.24,16.356.379,12.364.49,6.09-.165,2.429,1.514c-4.36,2-2.291,6.455,1.8,6.549,3.622.084,7.485-.733,11.141-.859,9.873-.338,19.764-.41,29.642-.495,8.933-.077,18.246.876,27.1-.466,1.313,11.663-2.239,23.375-1.031,35.172.187,1.831.1,4.418,2.435,4.835,2.943.527,3.064-2.388,3.175-4.475.319-5.959.146-11.923.582-17.89.4-5.53,1.2-11.181.528-16.72C76.978.35,73.713.9,67.939.613,55.746.015,43.629-.1,31.422.077" transform="translate(91.508 1.377)" fill="#89c5cc"/><path d="M9.082.145C6.522.209,2.272-.58.632,1.874c-1.706,2.553.318,4.78,2.8,5.3,2.937.62,6.766-.23,9.814-.239,3.174-.009,6.349.026,9.523.039,13.608.053,27.275.259,40.873-.3,1.9-.078,7.289.559,8.6-1.263,1.167-1.616.351-3.065-1.186-3.888-2.52-1.35-7.7-.837-10.5-.944C57.1.448,53.63.4,50.167.351,36.495.14,22.752-.194,9.082.145" transform="translate(97.016 42.722)" fill="#89c5cc"/><path d="M19.129,0C14.037.087,8.6-.137,3.561.636-.872,1.315-1.418,5.6,3.354,6.1c4.386.461,9.7-.4,14.109-.683,1.565-.1,3.385.042,4.136-1.688A2.78,2.78,0,0,0,19.129,0" transform="translate(98.48 54.67)" fill="#89c5cc"/><path d="M12.31.353c-2.718.068-10.658-1.1-12,2C-1.935,7.525,8.812,5.561,10.874,5.485,13.473,5.39,23.6,6.907,23.6,2.77c0-4.057-8.8-2.479-11.294-2.417" transform="translate(143.799 54.767)" fill="#89c5cc"/><path d="M.189,3.2C.2,12.606-.39,22.1.468,31.475c.355,3.879.294,11.31,2.541,14.6,1.595,2.334,3.807,2.171,4.678-.632.582-1.874-.349-5.621-.453-7.625-.1-1.924-.217-3.847-.306-5.771-.229-4.957-.21-9.907-.142-14.867C6.844,12.923,7.868,7.295,6.9,3.2,6-.61.189-1.5.189,3.2" transform="translate(1.281 77.601)" fill="#69a1ac"/><path d="M92.929.318c-16.313.409-32.663.044-48.961.851-8.038.4-16.045,1.272-24.042,2.144C16,3.742,12.07,4.183,8.147,4.667c-1.184.146-11.019.527-7.32,4.267,1.615,1.633,6.756-.073,8.79-.314,3.938-.465,7.884-.87,11.828-1.287C28.949,6.539,36.463,5.787,44,5.37c17.749-.983,35.572-.688,53.339-1.344,4.806-.177,9.6-.3,14.406-.115,1.262.05,10.54.521,6.512-2.905-1.9-1.621-9.086-.784-11.466-.833-4.62-.1-9.242.029-13.86.145" transform="translate(3.038 72.214)" fill="#69a1ac"/><path d="M.008,56.03c-.379-5.344,13.029-5.335,16.863-5.692,16.461-1.531,33.193-1.209,49.705-.978,7.985.111,15.954.355,23.933-.133s16.211-.359,24.123-1.217c-1.02-3.951-.87-8.892-1.156-12.929-.734-10.365-.537-20.766-1.011-31.141-.208-4.571,6.018-5.264,7.865-1.563,1.866,3.737.653,11.153.774,15.3.279,9.594,2.058,20.335.179,29.823-.654,3.3-3.438,5.035-5.29,3.235l-.008.012c-.7,1.027-2.866,1.025-4.464,1.023-.44,0-.837,0-1.148.02-4.377.3-8.672.8-13.011,1.45a208.9,208.9,0,0,1-25.951,2.308c-17.281.428-34.633.028-51.889,1.211A94.731,94.731,0,0,0,8.179,58.19a26.115,26.115,0,0,1-4.765.779C1.653,58.97.171,58.34.008,56.03Z" transform="translate(5.38 71.403)" fill="#69a1ac"/><path d="M3.33.661C1.126.96-.712,2.847.272,5.239,1.511,8.251,5.2,7.074,7.641,6.883c7.75-.607,15.842.605,23.5-.309,2.091-.25,5.125-1.389,3.247-4.2C32.975.264,27.833.634,25.648.432A116.59,116.59,0,0,0,3.33.661" transform="translate(128.078 78.032)" fill="#c1dee2"/><path d="M11.636.108C8.631.31,1.634.151.367,3.571-1.9,9.706,6.995,7.544,9.7,7.2c3.148-.405,10.568.68,12.244-2.372,3-5.458-7.675-4.9-10.311-4.715" transform="translate(132.852 91.726)" fill="#c1dee2"/><path d="M1.07,1.325a3.941,3.941,0,0,0,0,5.4C2.818,8.472,6.628,8.109,8.925,8.237c3.2.179,12.407,1.874,14-1.9C25.07,1.247,16.736,1.353,14,1.064,10.827.731,3.7-1.3,1.07,1.325" transform="translate(135.689 103.973)" fill="#c1dee2"/><path d="M0,4.114c0,5.473,8.548,5.473,8.548,0C8.548-1.33,0-1.413,0,4.114" transform="translate(24.437 14.045)" fill="#89c5cc"/><path d="M0,4.7c0,6.257,9.736,6.244,9.736,0S0-1.6,0,4.7" transform="translate(40.651 13.52)" fill="#89c5cc"/><path d="M2.12.084C-2.613,1.391,1.747,5.4,3.944,6.318,7.437,7.775,12.2,8.848,15.7,6.665c1.39-.869,2.518-2.024,1.5-3.71-1.085-1.8-2.571-1-4.224-.831A12.96,12.96,0,0,1,7.167,1.63c-1.509-.5-3.4-2-5.047-1.546" transform="translate(28.723 26.456)" fill="#89c5cc"/><path d="M0,2.776c0,3.7,5.748,3.7,5.748,0S0-.925,0,2.776" transform="translate(116.69 15.729)" fill="#89c5cc"/><path d="M0,3.085C0,7.2,6.386,7.2,6.386,3.085S0-1.028,0,3.085" transform="translate(129.402 15.978)" fill="#89c5cc"/><path d="M13.646.179C10.291.612.59,1.6.047,5.73c-.837,6.379,9.793,1.216,12.219.715A35.165,35.165,0,0,1,21.2,6.1c1.694.068,3.946.342,3.769-2.238C24.678-.377,16.578-.2,13.646.179" transform="translate(115.283 27.809)" fill="#89c5cc"/><path d="M4.406.083C1.974.732-1.206,4.935.466,7.507c2.743,4.219,3.952-2.259,5.1-2.882,2.089-1.135,3.784,3.011,5.967.836C14.978,2.03,6.574-.5,4.406.083" transform="translate(40.186 86.731)" fill="#69a1ac"/><path d="M9.436,0C6.553.027.466,4.109.035,7.123A2.981,2.981,0,0,0,2.9,10.659c2.629.032,3.464-3.386,5.743-4.1,2.458-.771,2.093,1,4.216,1.925,1.554.674,3.5.392,4.036-1.518C17.91,3.362,12.4-.056,9.436,0" transform="translate(63.014 83.695)" fill="#69a1ac"/><path d="M1.456.445c-4.612,2.7,2.977,8.5,5.607,9.22,3.971,1.093,11.965-.947,12.906-5.8C20.343,1.935,19.135.187,17,.532c-1.754.285-2.88,2.486-4.5,3.274A5.03,5.03,0,0,1,6.492,3.2C4.974,1.891,4.161-1.133,1.456.445" transform="translate(48.924 100.509)" fill="#69a1ac"/><path d="M40.023.393c-4.12.879-8.309.289-12.449,1.115-4.222.843-6.745,2.438-10.667.831l-.553-.234C13.318.8,10.136.411,6.958,2.5c-1.881,1.233-7.589,5.5-6.9,8.1C1.548,16.24,7.972,7.391,9.61,6.529c3.124-1.645,5.265.456,8.481,1.049,3.852.71,6.951-1.325,10.58-2.136,4.244-.948,9.018-1.278,13.335-1.786,1.706-.2,8.166,1.149,8.75-.974C51.757-.964,41.642.05,40.023.393" transform="translate(13.699 140.492)" fill="#c1dee2"/><path d="M16.26,20.2h0c-3.071,0-5.532-.1-7.744-.314A11.824,11.824,0,0,1,4.1,18.859,5.171,5.171,0,0,1,1.561,15.4a49,49,0,0,1-1.4-6.552C-.249,5.565.116,3.623,1.249,3.075a2.643,2.643,0,0,1,1.176-.221c.231,0,.469.015.66.027l.025,0c.208.013.4.026.587.026a2.315,2.315,0,0,0,.416-.032c.991-.182,2-.447,3.075-.727a36.461,36.461,0,0,1,4.265-.934C15.523.666,19.945.293,24.971.076l.062,0C25.844.039,26.764,0,27.755,0a18.916,18.916,0,0,1,5.584.678A5.841,5.841,0,0,1,37.25,3.83c.614,1.431.663,3.746.14,6.516a22.484,22.484,0,0,1-2.1,6.269c-1.759,3.145-5.247,3.578-8.755,3.578-.657,0-1.328-.016-1.92-.029h-.038c-.626-.015-1.217-.028-1.8-.028l-.395,0-1.686.023h-.022C19.231,20.182,17.735,20.2,16.26,20.2ZM4.5,5.153h0c.078.5.131,1.439.191,2.531.153,2.756.362,6.53,1.186,7.459.786.887,3.568.915,5.231.931.414,0,.771.008,1.017.023,2.622.163,5.295.242,7.879.318,1.085.032,2.208.065,3.311.1.575.02,1.35.119,2.17.224a30.515,30.515,0,0,0,3.671.32,5.171,5.171,0,0,0,2.243-.377c1.007-.5,2.157-2.613,2.93-5.384.855-3.067.95-5.77.24-6.886a3.967,3.967,0,0,0-2.4-1.532,14.434,14.434,0,0,0-3.785-.416,60.5,60.5,0,0,0-8.53.847c-.973.146-1.813.272-2.419.333a39.473,39.473,0,0,0-3.979.741A35.075,35.075,0,0,1,6.63,5.434,6.917,6.917,0,0,1,4.5,5.153Z" transform="translate(77.55 137.016)" fill="#c1dee2"/><path d="M23.172,24.947h0a126.216,126.216,0,0,1-14.053-.718C6.286,23.913,4.47,23.3,3.23,22.254,1.852,21.086,1.093,19.285.842,16.588c-.058-.626-.162-1.371-.282-2.233C-.015,10.218-.886,3.967,2.327,1.917,4.735.381,9.561.229,13.085.118,13.9.092,14.676.068,15.338.03,15.714.01,16.109,0,16.51,0A52.992,52.992,0,0,1,23.1.566c1.789.228,3.639.465,5.432.541,3.078.131,5.015.375,6.434,1.29,1.437.926,2.289,2.5,2.941,5.448A5.313,5.313,0,0,0,38.3,8.912,3.9,3.9,0,0,1,38.75,10.6a22.43,22.43,0,0,1-.691,4.41c-.152.693-.3,1.346-.394,1.907-.5,2.875-1.544,4.882-3.189,6.134-1.535,1.168-3.638,1.749-6.616,1.827C26.258,24.925,24.681,24.947,23.172,24.947Zm4.2-6.992c-1.8.328-3.7.681-5.977,1.109l-1.124.212c.7.05,1.334.14,1.945.226a14.619,14.619,0,0,0,1.967.193A3.567,3.567,0,0,0,27.367,17.955ZM13.4,17.622h0l-.3.1-1.21.4-.009,0-.819.27c.892.11,1.739.208,2.589.3a2.076,2.076,0,0,1-.247-1.079ZM7.924,14.5a.477.477,0,0,0-.356.108.353.353,0,0,0-.081.272.662.662,0,0,0,.086.495.24.24,0,0,0,.186.075c.261,0,.712-.28,1.339-.833l-.034,0H9.013a3.784,3.784,0,0,1-.55-.06H8.454A3.661,3.661,0,0,0,7.924,14.5ZM23.482,6.876a.314.314,0,0,0-.25.138c-.179.141-.26.227-.247.263,0,.013.021.019.049.019a2.935,2.935,0,0,0,.629-.191c.07-.026.13-.048.172-.062A.579.579,0,0,0,23.482,6.876Zm8.4-1.462c.848,1.231,1.258,1.327,1.363,1.327a.134.134,0,0,0,.142-.14C33.415,6.28,32.922,5.589,31.882,5.414Z" transform="translate(121.937 134.058)" fill="#89c5cc"/></g><g transform="translate(592 417)" opacity="0.25"><path d="M.038,3.079c0,5.678-.29,11.474.757,17.084.317,1.7.567,4.952,2.359,5.833a2.733,2.733,0,0,0,3.992-1.954c.522-2.147-.623-5.359-.738-7.613-.159-3.078-.17-6.161-.171-9.243,0-2.226.731-5.807-1.9-6.952a3.162,3.162,0,0,0-4.3,2.844" transform="translate(2.548 6.189)" fill="#c1dee2"/><path d="M88.533.039C69.72,1.927,50.637,2.32,31.756,3.3c-8.728.455-19.275-.126-27.5,3.253C2.732,7.185-2.737,10.676,1.7,12.1c1.384.443,2.79-1.047,3.926-1.547a25.151,25.151,0,0,1,6.1-1.412c17.156-2.755,35.1-2.275,52.434-3.563,4.441-.33,8.885-.67,13.317-1.106,3.166-.311,9.822-2.594,12.744-1.426C95.217,5.038,95.1,18,95.2,22.455c.051,2.305-2.186,10.579,2.261,9.741,3.56-.671,2.271-9.267,1.993-11.619C98.726,14.414,97.484-.868,88.533.039" transform="translate(3.82 0.248)" fill="#c1dee2"/><path d="M92.91.008C76.569,1.484,59.852.036,43.444.616c-8.6.3-17.193.789-25.794,1.073-3.72.123-7.444.128-11.166.155C4.7,1.856-3.4,2.936,1.614,6.465c2.219,1.563,9.291.3,11.837.273,3.824-.045,7.647-.2,11.468-.354,8.852-.346,17.7-.826,26.556-1.065,8.472-.229,16.949-.279,25.421-.508a107.044,107.044,0,0,0,12.667-.859c.943-.139,4-.249,4.66-1.3.619-.994.184-2.787-1.312-2.643" transform="translate(6.381 32.137)" fill="#89c5cc"/><path d="M9.312,17.6h0a9.094,9.094,0,0,1-6.529-2.608A9.471,9.471,0,0,1,.035,9.169,8.084,8.084,0,0,1,1.621,3.505,9.846,9.846,0,0,1,7.892.038,2.314,2.314,0,0,1,8.3,0,2.869,2.869,0,0,1,9.616.388a3.191,3.191,0,0,0,1.06.368,3.009,3.009,0,0,0,.333.018,6.843,6.843,0,0,0,.986-.1,6.8,6.8,0,0,1,.992-.1,2.813,2.813,0,0,1,.8.109,5.962,5.962,0,0,1,2.8,1.933,9.739,9.739,0,0,1,1.7,2.98,9.093,9.093,0,0,1,.506,3.875,8.77,8.77,0,0,1-3.55,6.3,9.078,9.078,0,0,1-3.569,1.573A11.734,11.734,0,0,1,9.312,17.6ZM11.936,5.917h0C9.8,5.93,6.013,6.383,5.318,8c-.311.726.024,1.616.995,2.648a4.21,4.21,0,0,0,3.07,1.411A3.9,3.9,0,0,0,12.935,9.8a3.5,3.5,0,0,0-1-3.878Z" transform="translate(13.788 11.748)" fill="#c1dee2"/><path d="M32.446.12C24.525.145,16.6.481,8.683.631,6.253.677.01-.41,0,3.42-.011,7.512,6.944,6,9.259,5.945c7.856-.188,15.732-.532,23.556-1.28,1.976-.189,8.818.137,8.812-2.551-.007-2.848-7.584-2-9.18-2" transform="translate(39.505 16.593)" fill="#c1dee2"/><path d="M87.7.019C68.109.545,48.548.728,28.974,1.731c-7.322.375-14.633.654-21.966.654-1.412,0-4.256-.547-5.585.342-3.607,2.412.5,4.483,2.851,4.613,16.081.893,32.394-1.329,48.465-1.83,9.408-.293,18.819-.38,28.222-.859,2.565-.131,5.131-.282,7.692-.481,1.473-.114,5.368.2,6.558-.663,5.2-3.762-5.76-3.535-7.512-3.488" transform="translate(3.17 43.402)" fill="#89c5cc"/><path d="M.111,3.4A89.992,89.992,0,0,0,.572,18.517C.833,20.5.953,22.76,3.283,23.266c2.116.458,3.189-1.142,3.627-2.916,1.07-4.333.128-10.569.116-15.07C7.02,3.054,7.018.563,4.268.06A3.5,3.5,0,0,0,.111,3.4" transform="translate(0.875 49.603)" fill="#89c5cc"/><path d="M111.513.007Q63.946,2.514,16.4,4.479c-2.475.1-21.7-.1-14.98,6.6,2.076,2.071,7.425.668,10.11.537,4.035-.2,8.071-.35,12.106-.555,16-.814,32.035-1.034,48.02-1.948Q84.848,8.358,97.977,6.8c4.162-.487,9.329-.437,13.227-2.068,2.005-.839,4.17-4.928.309-4.723" transform="translate(0.12 65.237)" fill="#89c5cc"/><path d="M1.47,1.355C-.942,3.756.3,8.495.48,11.463c.25,4.085.554,8.173,1.064,12.236.332,2.639.156,6.747,1.564,9.026a3.9,3.9,0,0,0,6.77-.2c1.319-2.281.651-7.081.617-9.608-.047-3.5-.265-7-.472-10.485-.174-2.916.487-7.588-1.117-10.084A4.792,4.792,0,0,0,1.47,1.355" transform="translate(91.93 38.125)" fill="#89c5cc"/><path d="M8.695,14.54h0a10.3,10.3,0,0,1-1.577-.117A8.874,8.874,0,0,1,.742,9.981,6.4,6.4,0,0,1,0,7.182,6.474,6.474,0,0,1,.7,4.125,6.462,6.462,0,0,1,4.923.9a26.293,26.293,0,0,1,5.6-.845L11,.023c.181-.015.366-.022.549-.022A7.607,7.607,0,0,1,17,2.407a6.5,6.5,0,0,1,1.807,4.908,6.969,6.969,0,0,1-3.532,5.379A12.693,12.693,0,0,1,8.695,14.54ZM6.221,5.84A.593.593,0,0,0,5.832,6c-.323.275-.758.9-.035,2.039A3.173,3.173,0,0,0,8.6,9.5a6.094,6.094,0,0,0,3.184-1,3.183,3.183,0,0,0,1.62-2c.049-.495-.2-1.147-1.676-1.443l-.089,0a14.516,14.516,0,0,0-4.222,1.1.515.515,0,0,1-.205.043,1.058,1.058,0,0,1-.5-.179A1.05,1.05,0,0,0,6.221,5.84Z" transform="translate(14.824 52.353)" fill="#89c5cc"/><path d="M16.073.276C12.358.336,5.057-.763,1.821,1.048-1.381,2.839.047,6.03,2.968,6.793c1.931.5,5.087-.31,7.1-.392,2.644-.108,5.291-.131,7.937-.167,4.45-.06,8.9-.009,13.349-.009,4.546,0,9.169.124,13.707-.21C50.8,5.592,50.645,1.293,45.03.755,35.491-.157,25.642.125,16.073.276" transform="translate(39.708 54.654)" fill="#89c5cc"/><path d="M0,.908c0,2.043,1.812,0,1.8,0,.013,0-1.8-2.043-1.8,0" transform="translate(46.293 102.172)" fill="#89c5cc"/><path d="M0,2.855c.117,5.937.194,11.88.447,17.813.08,1.876-.457,5.539,1.817,6.5,2.531,1.064,3.318-1.589,3.609-3.387.923-5.7.018-12.2-.071-17.964-.03-1.935.389-4.63-1.809-5.594A2.931,2.931,0,0,0,0,2.855" transform="translate(5.297 83.782)" fill="#89c5cc"/><path d="M101.953,21.322h0a2.8,2.8,0,0,1-2.285-1.632c-.857-1.435-.487-3.956-.128-6.393a19.033,19.033,0,0,0,.331-3.872c-.021-.246-.037-.489-.054-.724C99.7,6.985,99.6,5.5,98.147,4.869a5.239,5.239,0,0,0-2.06-.32c-.849,0-1.752.091-2.626.18-.724.073-1.408.142-1.953.144-4.548.021-9.173.033-13.645.045h-.009c-13.6.036-27.662.074-41.487.352-8.183.164-14.448.375-20.313.684A55.82,55.82,0,0,0,6.766,7.022a19.678,19.678,0,0,1-3.823.443C1.359,7.465.4,7.148.1,6.524-.176,5.949.117,5.11.973,4.031c1.513-1.905,6.738-2.275,9.86-2.5.575-.041,1.07-.076,1.481-.115,3.369-.319,6.828-.463,10.172-.6H22.5L24.008.753C32.149.4,40.434.279,48.447.157h.091L51.351.112C56.225.037,61.23,0,66.651,0c4.021,0,8.189.02,12.741.062,5.341.05,10.726.3,16.463.763,2.325.188,4.005.324,5.287,1.036s2.143,2.032,2.84,4.394c1,3.383,2.064,7.732,1.4,11.367a5.406,5.406,0,0,1-1.235,2.507A3.047,3.047,0,0,1,101.953,21.322Z" transform="translate(3.832 81.759)" fill="#89c5cc"/><path d="M85.908,1.714c-19.769,2.3-40.1.943-59.977,1.024-4.833.02-9.67.058-14.5.293-2.55.123-8.6-.58-10.343,1.387C-2.593,8.566,4.041,9.169,6.463,9c4.9-.348,9.805-.507,14.715-.545,17.293-.133,34.683.673,51.962-.18A150.811,150.811,0,0,0,94.561,5.293c1.574-.307,12.349-2.355,6.2-4.81-3.631-1.451-11.043.785-14.857,1.231" transform="translate(5.326 104.7)" fill="#89c5cc"/><path d="M8.941,14.8h0a11.164,11.164,0,0,1-4.017-.732,8.238,8.238,0,0,1-3.255-2.22C-1.658,8.056.577,4.2,3.2.932A2.739,2.739,0,0,1,5.489,0a12.391,12.391,0,0,1,2.7.421c.477.111.928.216,1.306.266.277.037.54.069.793.1,2.072.252,3.322.4,4.866,2.23a8.046,8.046,0,0,1,1.961,6.353,5.69,5.69,0,0,1-2.795,4.036A10.583,10.583,0,0,1,8.941,14.8ZM9.6,6a2.944,2.944,0,0,0-2.138.587.6.6,0,0,0-.159.486c.073.521.883,1.075,2.242,1.075a6.172,6.172,0,0,0,1.605-.228,4.57,4.57,0,0,0-.961-1.9C9.989,6.011,9.791,6,9.6,6Z" transform="translate(21.894 91.147)" fill="#89c5cc"/><path d="M0,2.853c0,4.4,18.981,2.5,22.358,2.5,2.829,0,19.932,1.556,18.7-2.968C40.054-1.332,23.207.515,19.619.51,16.517.506,0-1.624,0,2.853" transform="translate(52.5 95.336)" fill="#89c5cc"/></g><g transform="translate(367 175)"><g transform="translate(154.067 0.998) rotate(20)"><g transform="translate(58.565 33.554)"><path d="M0,79.012,8.961,37.33c-5-5.854-8.38-13.029-7.815-21.068C2.775-6.9,35.084-1.8,41.368,9.886s5.538,41.345-2.584,43.434c-3.239.833-10.14-1.208-17.163-5.433l4.409,31.124Z" transform="translate(0 0)" fill="#57331f"/></g><path d="M56.792,58.448c-3.993,0-7.695-2.547-10.424-7.17A32.944,32.944,0,0,1,42.3,34.993c0-.416.009-.844.025-1.272a66.177,66.177,0,0,0-8.2,7.129,64.23,64.23,0,0,1-8.872,7.618A19.014,19.014,0,0,1,14.6,51.953c-4.034,0-7.788-2.072-10.569-5.835A21.227,21.227,0,0,1,0,33.745a16.956,16.956,0,0,1,.825-5.354,12.881,12.881,0,0,1,2.592-4.555A12.19,12.19,0,0,1,7.95,20.669,17.53,17.53,0,0,1,14.6,19.483c15.33,0,22.826,2.21,29.364,5.528a21.046,21.046,0,0,1,5.627-8.755,8.724,8.724,0,0,1,2.587-1.832,12.138,12.138,0,0,1,2.163-.925,54.639,54.639,0,0,1,15.93-2.67c.853-.029,1.706-.044,2.536-.044.316,0,.634,0,.945.006A10.845,10.845,0,1,1,85.183,21.632,54.649,54.649,0,0,1,73.051,23.69a22.623,22.623,0,0,1,.7,5.807,32.7,32.7,0,0,1-.6,6.038,5.055,5.055,0,0,0-3.734-1.982,6.411,6.411,0,0,0-4.693,1.993,6.6,6.6,0,0,0-1.815,4.5,8.339,8.339,0,0,0,1.676,5.28,5.974,5.974,0,0,0,4.364,2.281,29.057,29.057,0,0,1-5.614,7.738C61.123,57.4,58.924,58.448,56.792,58.448Z" transform="translate(7.592 21.647)" fill="#191847"/></g><g transform="translate(2.796 217.601)"><path d="M0,17.064S39.026,27.958,67.341,27.958s52.6-16.776,52.6-16.776S81.751,0,57.038,0,0,17.064,0,17.064Z" transform="translate(102.847 93.758)" fill="#69a1ac"/><path d="M65.362,127.529a6.118,6.118,0,0,1-.631-1.229C61.254,117.121,5.549,18.1,0,0H62.715C66.934,13.764,85.925,100.14,88.6,117.374c8.433,27.184,25.795,115.222,28.011,121.321,2.332,6.416-10.788,13.1-14.284,5.212-5.563-12.551-18.817-47.278-24.718-68.483C72.074,155.545,67.569,137.66,65.362,127.529Z" transform="translate(127.349 4.655)" fill="#3d2216"/><path d="M133.215,139.618C107.748,146.042,14.6,157.655,8.2,159.476,1.627,161.35-4.139,147.823,3.99,144.893c12.933-4.663,48.571-15.435,70.178-19.832,17.379-3.536,33.238-6.421,43.886-8.111C117.151,87.1,113.027,15.471,115.73,0h55.491c-2.592,14.836-24.5,123.084-28.572,133.92-1.292,3.868-5.148,5.578-9.434,5.7Z" transform="translate(8.186 4.655)" fill="#57331f"/><g transform="matrix(0.174, 0.985, -0.985, 0.174, 39.392, 138.317)"><path d="M4.474,5.033A2,2,0,0,0,1.908,6.381L0,13.106A64.242,64.242,0,0,0,.9,21H57.3s2.2-7.268-2.538-7.848-7.87-1.047-7.87-1.047L20.68.419a1,1,0,0,0-1.332.532L17.663,5.039s-4.385,2.046-7.127,2.046Z" transform="translate(1 19)" fill="#afb9c5"/></g><g transform="translate(222.789 220.046)"><path d="M4.852,5.42A2.17,2.17,0,0,0,2.07,6.88L0,14.158A69.4,69.4,0,0,0,.977,22.7h61.17s2.384-7.867-2.753-8.494-8.535-1.133-8.535-1.133L22.428.426A1.085,1.085,0,0,0,20.984,1L19.157,5.426S14.4,7.641,11.427,7.641Z" transform="translate(1.085 20.592)" fill="#afb9c5"/></g><path d="M25.334,5.192s36.68-10.473,69.411,0c7.592,34.568,26.039,48.288,29.283,101.287C87.153,124.764,41.6,93.438,3.644,111.27-7.2,86.328,7.982,26.26,25.334,5.192Z" transform="translate(98.761 -0.538)" fill="#89c5cc"/></g><g transform="matrix(0.966, 0.259, -0.259, 0.966, 59.702, 76.421)"><path d="M34.476,125.844c-1.479-2.482-3.16-4.963-8.266-3.7C17.1,124.405,9.37,130.2.872,122.384c-1.044-.96-1.81-3.965,1.753-5.506,8.875-3.839,21.985-11.026,24.111-13.817q4.35-5.709,26.958-65.178l22.225,4.4Q42.393,104.637,39.96,108.378c-3.65,5.612-.244,15.9,1.013,21.313a6.859,6.859,0,0,1-1.547.193C36.751,129.884,35.681,127.864,34.476,125.844ZM212.571,33.139l39.3-17.224A93.1,93.1,0,0,1,271.812.305c1.917-.609,5.192-.793,1.7,4.3S266.569,15.214,267.965,17s5.441-.185,7.039,2.718q1.6,2.9-20.453,6.946l-29.432,22.52Z" transform="translate(2.169 50.871)" fill="#57331f"/><path d="M0,2.415,9.2,0C31.274,17.918,43.719,64.519,57.828,69.6c13.34,4.8,31.013-2.52,51.941-12.15l7.907,14.174C99.9,94.533,59.649,116.1,41.8,107.358,13.273,93.387,1.91,35.562,0,2.415Z" transform="matrix(0.996, 0.087, -0.087, 0.996, 138.702, 3.365)" fill="#db2721"/><path d="M0,123.39H82.98c3.792,0,3.077-5.464,2.529-8.221C79.183,83.346,54.489,49.044,54.489,3.746L30.554,0C10.756,31.777,3.91,70.9,0,123.39Z" transform="translate(97.609)" fill="#dde3e9"/><path d="M0,153.543Q16.805,49.525,97.336,0h9.477s32.231,109.65,17.772,146.119h-74.7c1.182-17.791,4.971-36.6,10.161-54.949q-25.374,45.678-42.657,65.773Z" transform="translate(29.283)" fill="#ff4133"/></g></g><g transform="matrix(0.999, 0.035, -0.035, 0.999, 122.423, 189.475)"><g transform="matrix(0.966, -0.259, 0.259, 0.966, 47.526, 38.28)"><g transform="translate(58.487 33.523)"><path d="M0,78.939,8.949,37.3C3.958,31.447.58,24.279,1.144,16.248,2.771-6.894,35.036-1.8,41.312,9.877s5.531,41.307-2.58,43.394c-3.235.833-10.126-1.207-17.14-5.428l4.4,31.1Z" transform="translate(0 0)" fill="#b28b67"/></g><path d="M21.885,48.717c-1.746-5.265-2.411-20.424-2.573-24.9a6.577,6.577,0,0,0-.78-.046A6.486,6.486,0,0,0,13.992,34.9c-1.5,2.119-3.188,4.333-5.12,6.617C1.617,37.17-3.766,24.448,3.327,12.229c1.96-5.986,6.4-9.184,11.64-10.669A18.883,18.883,0,0,1,27.341.649c7.293.625,13.806,2.846,15.652,4.164,0,6.893-1.338,8.939-12.766,8.759-2.808,1.48-4.967,4.03-7.215,7.372.016.223,1.527,20.758,7.9,20.758,6.4,0,11.837-4.059,14.647-4.059,2.048,0,1.591,2.56.233,4.456-1.12,1.566-6.575,3.074-6.575,5.5,0,1.37,1.374,1.368,2.57,1.365.922,0,1.739,0,1.739.624,0,2.381.758,6.857-3.382,6.857C35.953,56.448,23.943,54.924,21.885,48.717Z" transform="translate(58.366 31.381)" fill="#191847"/></g><g transform="translate(20.497 218.436)"><path d="M0,0,53.16,134.335,88.814,247.9h14.079L48.385,0Z" transform="translate(124.636)" fill="#997659"/><path d="M101.2,0c-.566,47.206-8.822,110.762-10.14,113.7S0,188.544,0,188.544l9.7,10.361s105.891-61.643,110.791-69.865S141.341,45.161,154.149,0Z" transform="translate(12.728)" fill="#b28b67"/><g transform="translate(30.642 165.211) rotate(50)"><path d="M4.474,5.033A2,2,0,0,0,1.908,6.381L0,13.106A64.242,64.242,0,0,0,.9,21H57.3s2.2-7.268-2.538-7.848-7.87-1.047-7.87-1.047L20.68.419a1,1,0,0,0-1.332.532L17.663,5.039s-4.385,2.046-7.127,2.046Z" transform="translate(1 19)" fill="#afb9c5"/></g><g transform="translate(204.785 215.192)"><path d="M4.845,5.415A2.167,2.167,0,0,0,2.067,6.874L0,14.145a69.363,69.363,0,0,0,.976,8.537H62.064s2.381-7.86-2.749-8.486-8.524-1.132-8.524-1.132L22.4.426A1.084,1.084,0,0,0,20.956,1l-1.825,4.42s-4.749,2.212-7.719,2.212Z" transform="translate(1.083 20.573)" fill="#afb9c5"/></g><path d="M42.626,236.206l66.94-7.253L59.955,0H0Z" transform="translate(117.752 0)" fill="#5c63ab"/><path d="M0,171.83l43.908,51.89S113.28,148.074,124.8,125,145.5,0,145.5,0H78s-5.019,89.673-6.767,93.846S0,171.83,0,171.83Z" transform="translate(26.574)" fill="#8991dc"/></g><g transform="matrix(0.985, -0.174, 0.174, 0.985, 7.294, 131.584)"><path d="M1.329,93.844C.12,93.1-1.2,90.3,1.994,88.107,9.964,82.652,21.448,73.1,23,69.961,26.174,63.532,36.982.874,36.982.874l22.633.09s-20.963,67.564-22.633,71.7c-2.506,6.2,2.8,15.646,5.065,20.721-3.575,1.6-5.236-.442-7.053-2.481-1.938-2.173-4.056-4.346-8.864-2.113-6.152,2.858-11.239,7.394-17.3,7.394A14.084,14.084,0,0,1,1.329,93.844Zm194.877-60.83L161.994,18.85,169.631,0,204.18,25.329a93.056,93.056,0,0,1,23.485,9.423c1.486,1.351,3.28,4.087-2.879,3.615s-12.658-.694-13.508,1.4,2.878,4.605,1.159,7.435a.817.817,0,0,1-.749.4Q208.652,47.609,196.206,33.014Z" transform="translate(37.001 99.714)" fill="#b28b67"/><path d="M0,2.413,9.19,0C46.419,26.827,65.655,82.94,110.745,109.613l-9.107,13.533C27.231,120.486,2.865,52.12,0,2.413Z" transform="matrix(0.996, 0.087, -0.087, 0.996, 138.515, 3.362)" fill="#e87613"/><path d="M0,123.276H82.868c3.787,0,3.073-5.459,2.526-8.214C79.077,83.269,54.416,49,54.416,3.742L30.512,0C10.741,31.747,3.9,70.834,0,123.276Z" transform="translate(97.478)" fill="#dde3e9"/><path d="M.11,172.492C-1.8,110.769,21.605,63.27,41.193,34.632a12.572,12.572,0,0,1-10.757-6.6C21.7,12.295,24.855,3.629,34.192.78S51.855,3.8,66.731,3.8a11.613,11.613,0,0,1,1.774.126l7.932.452s32.2,108.97,17.763,145.406H28.7a207.365,207.365,0,0,1-10.818,22.708Z" transform="translate(59.46 -3.799)" fill="#ff9b21"/><path d="M24.481,39.52H0C4.49,28.754,9.443,15.458,14.72,0c2.2,19.05,5.481,32.345,9.76,39.518Z" transform="translate(88.16 106.465)" fill="rgba(0,0,0,0.1)"/></g></g><g transform="translate(706 326.494)" opacity="0.25"><path d="M37.9,62.612h0a27.885,27.885,0,0,1-7.88-1.159,32.66,32.66,0,0,1-7.75-3.474A38.42,38.42,0,0,1,8.788,43.933,32.677,32.677,0,0,1,4.6,25.033a4.5,4.5,0,0,1-2.308.84A1.9,1.9,0,0,1,.583,24.851C-.346,23.289-.077,20.26.774,18.7a46.719,46.719,0,0,1,5.052-6.968c.327-.4.665-.809.987-1.206a28.133,28.133,0,0,1,9.6-7.9A27.92,27.92,0,0,1,28.682,0l.5,0a51.637,51.637,0,0,1,19.63,3.831,36.057,36.057,0,0,1,8.638,5.075,26.087,26.087,0,0,1,9.7,16.866A31.654,31.654,0,0,1,67.023,35.8a33.659,33.659,0,0,1-8.858,17.773,30.7,30.7,0,0,1-9.6,6.783A26.325,26.325,0,0,1,37.9,62.612ZM28.871,7.727a19.559,19.559,0,0,0-7.306,1.21,13.06,13.06,0,0,0-5.931,4.7,23.717,23.717,0,0,0-3.69,8.194,24.808,24.808,0,0,0-.483,8.983,27.2,27.2,0,0,0,2.869,8.705,35.826,35.826,0,0,0,5.737,8.055,31.107,31.107,0,0,0,7.739,6.038,21.1,21.1,0,0,0,8.873,2.654c.362.02.729.03,1.091.03,6.1,0,11.926-2.855,16.411-8.039a28.347,28.347,0,0,0,4.889-8.111,25.809,25.809,0,0,0,1.819-9.115,19.125,19.125,0,0,0-8.2-16.36c-4.375-3.2-10.576-5.463-17.933-6.531A49.293,49.293,0,0,0,28.871,7.727Z" transform="translate(0.014 4.524)" fill="#89c5cc"/><path d="M42.047.9A82.752,82.752,0,0,0,26.134,16.85C21.719,22.549,18.8,29.665,13.5,34.635c-2.679-2.918-5.817-10.8-11.16-7.671-4.434,2.594-1.579,7.055.58,9.984,5.577,7.563,11.769,10.607,18.921,3.134,6.5-6.786,10.184-15.839,16.257-23.016,2.664-3.149,6.779-6.275,8.9-9.751C48.917,4.163,46.539-2.4,42.047.9" transform="translate(14.547 0.065)" fill="#89c5cc"/></g><g transform="translate(3.722 -17.699)"><rect width="421" height="436" rx="8" transform="translate(878.278 193.699)" fill="#f2f2f2"/><rect width="88" height="102" rx="8" transform="translate(1191.278 247.699)" fill="#fff"/><ellipse cx="20" cy="20.5" rx="20" ry="20.5" transform="translate(1215.278 266.699)" fill="#dde3e9"/><rect width="63" height="7" rx="3.5" transform="translate(1204.278 312.699)" fill="#dde3e9"/><rect width="42" height="8" rx="3.5" transform="translate(1214.278 324.699)" fill="#dde3e9"/><path d="M8,0H413a8,8,0,0,1,8,8V34a0,0,0,0,1,0,0H0a0,0,0,0,1,0,0V8A8,8,0,0,1,8,0Z" transform="translate(878.278 193.699)" fill="#c5cfd6"/><circle cx="5" cy="5" r="5" transform="translate(889.278 206.699)" fill="#f2f2f2"/><circle cx="5" cy="5" r="5" transform="translate(904.278 206.699)" fill="#f2f2f2"/><circle cx="5" cy="5" r="5" transform="translate(919.278 206.699)" fill="#f2f2f2"/><rect width="88" height="245" rx="8" transform="translate(1191.278 359.699)" fill="#fff"/><rect width="42" height="33" rx="4" transform="translate(1214.278 382.699)" fill="#dde3e9"/><rect width="42" height="31" rx="4" transform="translate(1214.278 425.699)" fill="#afb9c5"/><rect width="42" height="32" rx="4" transform="translate(1214.278 466.699)" fill="#dde3e9"/><rect width="42" height="32" rx="4" transform="translate(1214.278 549.699)" fill="#dde3e9"/><rect width="42" height="31" rx="4" transform="translate(1214.278 508.699)" fill="#c5cfd6"/><rect width="283" height="59" rx="4" transform="translate(898.278 249.699)" fill="#fff"/><g transform="translate(909.459 267.112)"><rect width="210.148" height="8.872" rx="3" fill="#dde3e9"/><rect width="141.059" height="8.872" rx="3" transform="translate(0 14.786)" fill="#dde3e9"/></g><g transform="translate(1142.201 270.132)"><circle cx="8.809" cy="8.809" r="8.809" fill="#dde3e9"/><circle cx="3.775" cy="3.775" r="3.775" transform="translate(5.033 5.033)" fill="#f2f2f2"/></g><rect width="283" height="49" rx="4" transform="translate(898.278 318.699)" fill="#fff"/><g transform="translate(909.459 333.302)"><rect width="210.148" height="7.361" rx="3" fill="#dde3e9"/><rect width="141.059" height="7.361" rx="3" transform="translate(0 12.269)" fill="#dde3e9"/></g><g transform="translate(1142.201 334.309)"><circle cx="8.809" cy="8.809" r="8.809" fill="#dde3e9"/><circle cx="3.775" cy="3.775" r="3.775" transform="translate(5.033 5.033)" fill="#f2f2f2"/></g><rect width="283" height="49" rx="4" transform="translate(898.278 377.699)" fill="#fff"/><g transform="translate(909.459 392.446)"><rect width="210.148" height="7.361" rx="3" fill="#dde3e9"/><rect width="141.059" height="7.361" rx="3" transform="translate(0 12.269)" fill="#dde3e9"/></g><g transform="translate(1142.201 393.452)"><circle cx="8.809" cy="8.809" r="8.809" fill="#dde3e9"/><circle cx="3.775" cy="3.775" r="3.775" transform="translate(5.033 5.033)" fill="#afb9c5"/></g><rect width="283" height="50" rx="4" transform="translate(898.278 554.699)" fill="#fff"/><g transform="translate(909.459 569.877)"><rect width="210.148" height="7.361" rx="3" fill="#dde3e9"/><rect width="141.059" height="7.361" rx="3" transform="translate(0 12.269)" fill="#dde3e9"/></g><g transform="translate(1142.201 570.883)"><circle cx="8.809" cy="8.809" r="8.809" fill="#dde3e9"/><circle cx="3.775" cy="3.775" r="3.775" transform="translate(5.033 5.033)" fill="#f2f2f2"/></g><rect width="283" height="49" rx="4" transform="translate(898.278 495.699)" fill="#fff"/><g transform="translate(909.459 510.733)"><rect width="210.148" height="7.361" rx="3" fill="#dde3e9"/><rect width="141.059" height="7.361" rx="3" transform="translate(0 12.269)" fill="#dde3e9"/></g><g transform="translate(1142.201 511.739)"><circle cx="8.809" cy="8.809" r="8.809" fill="#dde3e9"/><circle cx="3.775" cy="3.775" r="3.775" transform="translate(5.033 5.033)" fill="#f2f2f2"/></g><rect width="283" height="49" rx="4" transform="translate(898.278 436.699)" fill="#fff"/><g transform="translate(909.459 451.589)"><rect width="210.148" height="7.361" rx="3" fill="#dde3e9"/><rect width="141.059" height="7.361" rx="3" transform="translate(0 12.269)" fill="#dde3e9"/></g><g transform="translate(1142.201 452.596)"><circle cx="8.809" cy="8.809" r="8.809" fill="#dde3e9"/><circle cx="3.775" cy="3.775" r="3.775" transform="translate(5.033 5.033)" fill="#f2f2f2"/></g></g><g transform="translate(780 323)"><rect width="159" height="302" rx="8" transform="translate(48)" fill="#dde3e9"/><circle cx="15" cy="15" r="15" transform="translate(112 253)" fill="#fff"/><g transform="translate(112 16)"><circle cx="2" cy="2" r="2" fill="#fff"/><rect width="21" height="4" rx="2" transform="translate(9)" fill="#fff"/></g><g transform="translate(62 28)"><rect width="131" height="54" rx="4" fill="#fff"/><g transform="translate(9 16.2)"><rect width="73" height="8.1" rx="3" fill="#dde3e9"/><rect width="49" height="8.1" rx="3" transform="translate(0 13.5)" fill="#dde3e9"/></g><g transform="translate(110 20)"><circle cx="7" cy="7" r="7" fill="#dde3e9"/><circle cx="3" cy="3" r="3" transform="translate(4 4)" fill="#f2f2f2"/></g><g transform="translate(0 62)"><rect width="131" height="42" rx="4" fill="#fff"/><g transform="translate(39 12.6)"><rect width="73" height="6.3" rx="3" fill="#dde3e9"/><rect width="49" height="6.3" rx="3" transform="translate(0 10.5)" fill="#dde3e9"/></g><circle cx="12" cy="12" r="12" transform="translate(9 9)" fill="#c5cfd6"/></g><g transform="translate(0 112)"><rect width="131" height="42" rx="4" fill="#fff"/><g transform="translate(9 12.6)"><rect width="73" height="6.3" rx="3" fill="#dde3e9"/><rect width="49" height="6.3" rx="3" transform="translate(0 10.5)" fill="#afb9c5"/></g><g transform="translate(110 14)"><circle cx="7" cy="7" r="7" fill="#dde3e9"/><circle cx="3" cy="3" r="3" transform="translate(4 4)" fill="#f2f2f2"/></g></g><g transform="translate(0 162)"><rect width="131" height="42" rx="4" fill="#fff"/><g transform="translate(39 12.6)"><rect width="73" height="6.3" rx="3" fill="#dde3e9"/><rect width="49" height="6.3" rx="3" transform="translate(0 10.5)" fill="#dde3e9"/></g><circle cx="12" cy="12" r="12" transform="translate(9 9)" fill="#c5cfd6"/></g></g></g><g transform="translate(665 113)"><path d="M1.007.986C1,1,1,1.006.993,1.018c.006-.01.014-.05.014-.032" transform="translate(47 51)" fill="#c5cfd6"/><path d="M1,1a.087.087,0,0,0,0,.01C1,1,1.014.971,1,1" transform="translate(47 51)" fill="#c5cfd6"/><path d="M1.067.832c-.014.04-.032.078-.048.118.008-.02.016-.036.024-.056-.208.52-.076.182.024-.062" transform="translate(47 51)" fill="#c5cfd6"/><path d="M1.022.953,1,1.009c-.058.112.024-.056.024-.056" transform="translate(47 51)" fill="#c5cfd6"/><path d="M1,1H1V1Z" transform="translate(47 51)" fill="#c5cfd6"/><path d="M1,1S1,1,1,1,1,1,1,1" transform="translate(47 51)" fill="#c5cfd6"/><path d="M.99,1.016c-.012.024.056-.092,0,0" transform="translate(47 51)" fill="#c5cfd6"/><path d="M1,1,1,1S1,1,1,1" transform="translate(47 51)" fill="#c5cfd6"/><rect width="95" height="63" rx="4" fill="#dde3e9"/><g transform="translate(8 18)"><path d="M28,0,0,45H56Z" fill="#afb9c5"/><path d="M24.5,0,0,33H49Z" transform="translate(31 12)" fill="#c5cfd6"/></g><circle cx="9" cy="9" r="9" transform="translate(65 12)" fill="#fff"/></g><g transform="translate(706 145.051)"><rect width="10" height="42" rx="3.5" transform="translate(0 53.949)" fill="#dde3e9"/><rect width="10" height="69" rx="3.5" transform="translate(24 26.949)" fill="#dde3e9"/><rect width="10" height="82" rx="3.5" transform="translate(47 13.949)" fill="#dde3e9"/><rect width="10" height="69" rx="3.5" transform="translate(71 26.949)" fill="#dde3e9"/><rect width="10" height="96" rx="3.5" transform="translate(94 -0.051)" fill="#c5cfd6"/></g><g transform="translate(935 573)"><path d="M65.681,64.444A18.254,18.254,0,1,1,52.339,33.8V0C23.558,0,0,23.405,0,52s23.558,52,52.339,52a51.714,51.714,0,0,0,38.1-16.463Z" fill="#f2f2f2"/><path d="M0,0V33.8A18.2,18.2,0,0,1,18.2,52H52A52.16,52.16,0,0,0,0,0Z" transform="translate(52)" fill="#afb9c5"/><path d="M6.947,0A18.042,18.042,0,0,1,0,14.228L20.792,40.7A51.569,51.569,0,0,0,40.7,0Z" transform="translate(63.304 52)" fill="#c5cfd6"/></g></g></svg>