<svg xmlns="http://www.w3.org/2000/svg" xmlns:xlink="http://www.w3.org/1999/xlink" width="1366" height="768" viewBox="0 0 1366 768"><defs><clipPath id="b"><rect width="1366" height="768"/></clipPath></defs><g id="a" clip-path="url(#b)"><g transform="translate(58.463 634.008)"><path d="M1230.537,50.143c17.945,22.412-417.252,37.03-791.836,26.828S-107.725,26.93,71.021,5.7,1212.592,27.731,1230.537,50.143Z" transform="translate(0 0)" fill="#dde3e9"/></g><g transform="translate(25 60.968)"><g transform="translate(311 333.032)"><path d="M1185.22,339.729C1202.5,491.573,783.334,590.616,422.545,521.5s-526.3-339.04-354.14-482.864S1167.935,187.885,1185.22,339.729Z" transform="translate(-277.651 -309.265)" fill="#f2f2f2"/></g><path d="M0,260a46.774,46.774,0,0,1-1,6A17.922,17.922,0,0,0,0,260Zm-10.832-47.012c-5.818-12.326-14.116-22.979-23.677-32.458,1.911-6.943,20.49-17.785,8.743-23.526-6.238-3.035-12.155,2.853-13.171,8.813-.7,4.1.956,9.109,2.633,12.961q-4.5-4.328-9.309-8.347c-4.416-3.7-8.927-7.286-13.477-10.821,6.819-7.114,12.6-26.731,2.816-29.377-14.443-3.894-6.229,22.02-4.981,26.893a.772.772,0,0,0,.649-.285c-.056.455-.123.942-.211,1.435-8.7-6.726-17.527-13.3-26.086-20.21.708-.583,1.77-2.724,2.632-3.88a42.082,42.082,0,0,0,5.1-8.312c2.052-4.734,3.879-12.21-2.344-14.605-6.768-2.611-9.474,5.878-9.26,10.847.148,3.435,1.255,6.649,1.918,9.99.208,1.042-.131,5.8,1.193,3.695a10.144,10.144,0,0,0,.044,1.682q-2.3-1.87-4.581-3.779a1.777,1.777,0,0,0,.1-.578,1.718,1.718,0,0,0-2.542-1.488q-3.006-2.572-5.947-5.23c-4.145-3.764-8.351-7.638-12.536-11.6.822-.784.427-1.79,1.19-2.616s2.322-1.341,3.228-2.119a22.871,22.871,0,0,0,5.4-7.423c2.125-4.459,4.688-13.714-2.292-15.421-7.2-1.762-10.332,7.182-10.5,12.68a139.867,139.867,0,0,0,2.051,14.018c-7.744-7.367-15.382-15.03-22.35-22.869,1.982-.122,7.39-4.478,8.468-5.647,2.631-2.849,6.725-9.053,1.7-11.959-4.468-2.578-9.583,1.763-11.225,5.806a55.526,55.526,0,0,0-.965,9.49c-2.888-3.328-5.653-6.682-8.238-10.057q-2.587-3.366-4.874-6.922a3.235,3.235,0,0,0,.9-.988c7.144-1.6,15.745-13.329,7.073-16.8-4.128-1.65-8.3,2.42-10.109,5.668a41.933,41.933,0,0,0-1.256,6.512A135.132,135.132,0,0,1-165.713,41.24a1.576,1.576,0,0,0,1.152-1.525c3.395-2.178,6.071-3.984,8.313-7.949,1.393-2.462,3.841-8.051-.688-9.14-5.894-1.417-9.075,7.638-9.32,12.029-.029.509.05,1.984.14,3.334a1.95,1.95,0,0,0-.6.042c-1.617-5.363-2.969-10.811-4.1-16.278,3.115-1.185,2.79-17.85.557-20.108-4.992-5.056-7.916,2.779-7.452,6.815.547,4.759,2.939,8.989,5.717,12.709.3.393.218.378.259-.194a1.14,1.14,0,0,0,.307.624,72.434,72.434,0,0,0,.115,7.324,169.525,169.525,0,0,0,3.175,18.948q.513,2.272,1.137,4.5a36.977,36.977,0,0,0-7.568-4.316c-3.568-1.38-9.029-2.785-12.353.043a5.834,5.834,0,0,0-.208,8.733c2.958,2.978,8.055,2.6,11.848,2.092,1.715-.228,10.876-1.447,8.617-2.838a7.435,7.435,0,0,1,.915.379q.36,1.089.75,2.17c-.052.034-.1.071-.153.105.061-.031.1-.063.157-.094a84.537,84.537,0,0,0,10.573,20.282,19.879,19.879,0,0,0-4.828-1.022c-4.831-.355-14.731,3.9-9.028,10.012,5.468,5.856,13.137-1.136,18.931-2.348A273.561,273.561,0,0,0-129.7,107.418a1.558,1.558,0,0,0-.913.845c-2.7-1.2-5.533-2.958-7.991-3.347-3.547-.56-10.764-.634-13.25,2.645-3.059,4.032.6,6.985,4.492,7.523,5.643.781,12.812-2.332,18.091-4.458a1.777,1.777,0,0,0,1.658-.651c.117-.046.233-.09.347-.133,7.012,6.943,14.265,13.631,21.469,20.167h-.222a18.6,18.6,0,0,0-5.912-2.331c-4.862-.919-10.509-.628-14.224,3.049-3.7,3.661-4.757,9.782-.538,13.455,8.443,7.352,19.353-10.992,23.367-11.945,7.317,6.569,15.008,12.661,22.809,18.617a13.3,13.3,0,0,0-2.645-.4c-7.359-.317-24.077,9.562-14.627,17.923,8.235,7.286,16.522-8,22.562-13.515,7.347,5.547,14.73,11.051,21.927,16.795a20.034,20.034,0,0,0-11.392.67c-4.094,1.477-10.643,4.97-7.718,10.449,2.974,5.573,10.9,2.551,15,.517,2.238-1.109,6.655-4.688,10.613-6.305,11.515,9.785,21.619,20.7,29.519,33.763A120.977,120.977,0,0,1-5.583,236.788C-3.742,242.59-.207,252.312-.41,260,1.667,244.524-4.5,226.391-10.832,212.988ZM-172,29.766c-.613,0-2.912-6.215-3.636-7.135a20.724,20.724,0,0,0-8.2-5.945c-5.036-2.177-11.433.989-8.366,7.281,2.449,5.023,9.082,6.034,14.827,6.034C-175.412,30-173.553,29.882-172,29.766Z" transform="translate(854.657 162.133) rotate(3)" fill="#f2f2f2"/><path d="M0,187.541a21.86,21.86,0,0,0,1,4A8.448,8.448,0,0,1,0,187.541Zm8-33.535a83.426,83.426,0,0,1,17.288-23.47c-1.4-5.019-14.961-12.859-6.384-17.011,4.555-2.194,8.875,2.063,9.617,6.373.509,2.961-.7,6.586-1.922,9.372q3.289-3.129,6.8-6.035c3.225-2.678,6.518-5.269,9.84-7.825-4.979-5.144-9.2-19.328-2.056-21.242,10.545-2.816,4.548,15.923,3.636,19.446a.568.568,0,0,1-.473-.206c.041.328.09.681.153,1.037,6.357-4.864,12.8-9.62,19.048-14.613a27.139,27.139,0,0,1-1.922-2.806,30.332,30.332,0,0,1-3.721-6.01c-1.5-3.424-2.832-8.829,1.712-10.561,4.942-1.888,6.917,4.251,6.761,7.843-.108,2.485-.916,4.809-1.4,7.224-.151.753.1,4.2-.87,2.671a7.325,7.325,0,0,1-.032,1.216q1.683-1.351,3.344-2.732a1.284,1.284,0,0,1-.071-.418A1.256,1.256,0,0,1,69.2,95.182q2.2-1.859,4.342-3.781c3.026-2.722,6.1-5.523,9.153-8.389-.6-.567-.311-1.294-.868-1.892s-1.7-.969-2.357-1.531a16.543,16.543,0,0,1-3.941-5.368C73.979,71,72.108,64.305,77.2,63.071c5.253-1.274,7.544,5.193,7.667,9.169a100.122,100.122,0,0,1-1.5,10.135c5.655-5.326,11.232-10.868,16.32-16.536-1.447-.088-5.4-3.238-6.183-4.082-1.921-2.06-4.91-6.547-1.24-8.648,3.262-1.863,7,1.274,8.2,4.2a39.661,39.661,0,0,1,.7,6.862c2.109-2.407,4.127-4.832,6.016-7.273q1.887-2.433,3.559-5a2.342,2.342,0,0,1-.661-.715c-5.216-1.157-11.5-9.638-5.164-12.146,3.014-1.193,6.06,1.75,7.381,4.1a30.025,30.025,0,0,1,.917,4.709,97.142,97.142,0,0,0,7.873-18.019,1.141,1.141,0,0,1-.841-1.1c-2.479-1.575-4.432-2.881-6.07-5.748-1.017-1.78-2.8-5.82.5-6.608,4.3-1.024,6.626,5.523,6.806,8.7.021.369-.037,1.435-.1,2.41a1.454,1.454,0,0,1,.441.031c1.181-3.878,2.168-7.817,3-11.771-2.273-.857-2.037-12.906-.407-14.539,3.645-3.657,5.781,2.009,5.442,4.928a19.273,19.273,0,0,1-4.175,9.189c-.217.284-.158.274-.189-.14a.816.816,0,0,1-.224.451,51.727,51.727,0,0,1-.085,5.3,121.486,121.486,0,0,1-2.317,13.7q-.375,1.644-.831,3.255a27.1,27.1,0,0,1,5.526-3.12c2.606-1,6.593-2.013,9.02.032a4.191,4.191,0,0,1,.151,6.314c-2.16,2.153-5.881,1.877-8.65,1.513-1.253-.165-7.942-1.046-6.292-2.052a5.523,5.523,0,0,0-.669.274q-.263.787-.547,1.569c.039.025.071.051.112.076-.044-.022-.076-.046-.114-.068a60.926,60.926,0,0,1-7.721,14.666,14.65,14.65,0,0,1,3.525-.74c3.528-.257,10.757,2.822,6.592,7.24-3.993,4.234-9.593-.822-13.823-1.7a198.561,198.561,0,0,1-14.353,15.8,1.136,1.136,0,0,1,.667.611c1.969-.864,4.041-2.138,5.836-2.42,2.589-.4,7.859-.458,9.674,1.912,2.233,2.916-.439,5.051-3.281,5.441-4.119.564-9.355-1.687-13.209-3.224a1.3,1.3,0,0,1-1.21-.471l-.254-.1C87.9,84.444,82.6,89.281,77.341,94.007H77.5a13.667,13.667,0,0,1,4.316-1.686c3.55-.664,7.674-.454,10.385,2.2s3.473,7.073.394,9.729c-6.165,5.317-14.131-7.948-17.062-8.636-5.342,4.749-10.958,9.155-16.654,13.461a9.732,9.732,0,0,1,1.931-.286c5.373-.229,17.58,6.913,10.68,12.959-6.013,5.269-12.064-5.787-16.475-9.772-5.365,4.011-10.755,7.991-16.01,12.144a14.766,14.766,0,0,1,8.318.484c2.99,1.068,7.771,3.594,5.636,7.556-2.172,4.028-7.958,1.843-10.955.373-1.633-.8-4.858-3.39-7.748-4.559a100.276,100.276,0,0,0-21.554,24.412,87.074,87.074,0,0,0-8.537,18.825C2.827,175.412.246,182.441.393,188-1.122,176.81,3.383,163.7,8,154.006ZM125.252,21.058c.437,0,2.08-4.441,2.6-5.1a14.806,14.806,0,0,1,5.857-4.246c3.6-1.555,8.166.707,5.975,5.2-1.75,3.588-6.489,4.31-10.594,4.31C127.687,21.225,126.36,21.141,125.252,21.058Z" transform="translate(64.081 140.777) rotate(-3)" fill="#c1dee2" opacity="0.2"/><path d="M0,187.541a21.86,21.86,0,0,0,1,4A8.448,8.448,0,0,1,0,187.541Zm8-33.535a83.426,83.426,0,0,1,17.288-23.47c-1.395-5.019-14.961-12.859-6.384-17.011,4.555-2.194,8.875,2.063,9.617,6.373.509,2.961-.7,6.586-1.922,9.372q3.289-3.129,6.8-6.035c3.225-2.678,6.518-5.269,9.84-7.825-4.979-5.144-9.2-19.328-2.056-21.242,10.545-2.816,4.548,15.923,3.636,19.446a.568.568,0,0,1-.473-.206c.041.328.09.681.153,1.037,6.357-4.864,12.8-9.62,19.048-14.613a27.139,27.139,0,0,1-1.921-2.806,30.332,30.332,0,0,1-3.721-6.01c-1.5-3.424-2.832-8.829,1.712-10.561,4.942-1.888,6.917,4.251,6.761,7.843-.108,2.485-.916,4.809-1.4,7.224-.151.753.1,4.2-.87,2.671a7.325,7.325,0,0,1-.032,1.216q1.683-1.351,3.344-2.732a1.284,1.284,0,0,1-.071-.418A1.256,1.256,0,0,1,69.2,95.182q2.2-1.859,4.342-3.781c3.026-2.722,6.1-5.523,9.153-8.389-.6-.567-.311-1.294-.868-1.892s-1.7-.969-2.357-1.531a16.543,16.543,0,0,1-3.941-5.368C73.979,71,72.108,64.3,77.2,63.071c5.253-1.273,7.544,5.193,7.667,9.169a100.122,100.122,0,0,1-1.5,10.135c5.655-5.326,11.232-10.868,16.32-16.536-1.447-.088-5.4-3.238-6.183-4.082-1.921-2.06-4.91-6.547-1.24-8.648,3.262-1.863,7,1.274,8.2,4.2a39.661,39.661,0,0,1,.7,6.862c2.109-2.407,4.127-4.832,6.016-7.273q1.887-2.433,3.559-5a2.342,2.342,0,0,1-.661-.715c-5.216-1.157-11.5-9.638-5.164-12.146,3.014-1.193,6.06,1.751,7.381,4.1a30.025,30.025,0,0,1,.917,4.709,97.143,97.143,0,0,0,7.873-18.019,1.141,1.141,0,0,1-.841-1.1c-2.479-1.575-4.432-2.881-6.07-5.748-1.017-1.78-2.8-5.82.5-6.608,4.3-1.024,6.626,5.523,6.806,8.7.021.369-.037,1.435-.1,2.41a1.454,1.454,0,0,1,.441.032c1.181-3.878,2.168-7.817,3-11.771-2.273-.857-2.037-12.906-.407-14.539,3.645-3.657,5.781,2.009,5.442,4.928a19.273,19.273,0,0,1-4.175,9.189c-.217.284-.158.274-.189-.14a.816.816,0,0,1-.224.451,51.73,51.73,0,0,1-.085,5.3,121.484,121.484,0,0,1-2.318,13.7q-.375,1.644-.831,3.255a27.1,27.1,0,0,1,5.526-3.12c2.605-1,6.592-2.013,9.02.032a4.191,4.191,0,0,1,.151,6.314c-2.16,2.153-5.881,1.877-8.65,1.513-1.253-.165-7.942-1.046-6.292-2.052a5.52,5.52,0,0,0-.669.275q-.263.787-.547,1.569c.039.025.071.051.112.077-.044-.023-.076-.046-.114-.068a60.927,60.927,0,0,1-7.721,14.666,14.65,14.65,0,0,1,3.525-.74c3.528-.257,10.757,2.822,6.592,7.24-3.993,4.234-9.593-.822-13.823-1.7a198.562,198.562,0,0,1-14.353,15.8,1.136,1.136,0,0,1,.667.611c1.969-.864,4.041-2.138,5.836-2.42,2.589-.4,7.859-.458,9.674,1.912,2.233,2.916-.439,5.051-3.28,5.441-4.119.564-9.355-1.687-13.209-3.224a1.3,1.3,0,0,1-1.21-.471l-.254-.1C87.9,84.444,82.6,89.281,77.341,94.007H77.5a13.667,13.667,0,0,1,4.316-1.686c3.55-.664,7.674-.454,10.385,2.2s3.473,7.073.394,9.729c-6.165,5.317-14.131-7.948-17.062-8.636-5.342,4.749-10.958,9.155-16.654,13.461a9.732,9.732,0,0,1,1.931-.286c5.373-.229,17.58,6.913,10.68,12.959-6.013,5.269-12.064-5.787-16.474-9.772-5.365,4.011-10.755,7.991-16.01,12.144a14.766,14.766,0,0,1,8.318.484c2.99,1.068,7.771,3.594,5.636,7.556-2.172,4.028-7.958,1.843-10.955.373-1.633-.8-4.858-3.39-7.748-4.559a100.276,100.276,0,0,0-21.554,24.413,87.075,87.075,0,0,0-8.537,18.825C2.827,175.412.246,182.441.393,188-1.122,176.809,3.383,163.7,8,154.006ZM125.252,21.058c.437,0,2.08-4.441,2.6-5.1a14.806,14.806,0,0,1,5.857-4.246c3.6-1.555,8.166.707,5.975,5.2-1.75,3.588-6.489,4.31-10.593,4.31C127.687,21.225,126.36,21.141,125.252,21.058Z" transform="translate(1157.135 405.083) rotate(154)" fill="#c1dee2" opacity="0.2"/><path d="M0,187.541a21.86,21.86,0,0,0,1,4A8.448,8.448,0,0,1,0,187.541Zm22.638-67.91a5.413,5.413,0,0,1,1,2Q23.13,120.636,22.638,119.632Zm42.334-4.671a7.253,7.253,0,0,1,.811.348c.069.14.134.279.19.409C65.63,115.485,65.3,115.222,64.972,114.961ZM54.2,111.131l1.246-.809a17.861,17.861,0,0,1,1.754.593,1.189,1.189,0,0,0-.587.407C55.816,111.225,54.972,111.2,54.2,111.131ZM88.632,99.283c-.069.061-.6.463-.6.463S88.18,99.63,88.632,99.283Zm-8.441-3.316a5.415,5.415,0,0,0,.618.254l-.1.012C80.537,96.144,80.365,96.054,80.191,95.967Zm-3.4-2.326.191.043c-.253.15-.5.308-.751.463C76.421,93.977,76.607,93.808,76.794,93.641Zm-343.859-60.2A83.405,83.405,0,0,1-249.776,9.976c-1.4-5.02-14.962-12.86-6.384-17.012,4.554-2.194,8.875,2.063,9.617,6.373.509,2.961-.7,6.586-1.922,9.372q3.289-3.129,6.8-6.035c3.224-2.678,6.518-5.269,9.84-7.825-4.979-5.143-9.2-19.328-2.057-21.242,10.546-2.815,4.549,15.923,3.637,19.446a.57.57,0,0,1-.474-.206c.041.328.091.681.154,1.037,6.357-4.864,12.8-9.62,19.048-14.613a27.2,27.2,0,0,1-1.922-2.805,30.406,30.406,0,0,1-3.721-6.011c-1.5-3.423-2.832-8.829,1.712-10.561,4.942-1.888,6.918,4.251,6.762,7.843-.108,2.485-.916,4.809-1.4,7.224-.152.753.1,4.2-.871,2.671a7.13,7.13,0,0,1-.032,1.216q1.683-1.351,3.345-2.732a1.279,1.279,0,0,1-.072-.418,1.255,1.255,0,0,1,1.856-1.076q2.2-1.86,4.343-3.782c3.026-2.722,6.1-5.523,9.153-8.389-.6-.567-.311-1.294-.868-1.892s-1.695-.969-2.357-1.531a16.569,16.569,0,0,1-3.941-5.368c-1.552-3.225-3.424-9.917,1.673-11.151,5.254-1.274,7.545,5.193,7.667,9.169a100.072,100.072,0,0,1-1.5,10.135c5.655-5.326,11.232-10.868,16.319-16.536-1.446-.088-5.4-3.238-6.182-4.082-1.921-2.06-4.91-6.547-1.241-8.648,3.263-1.863,7,1.275,8.2,4.2a39.751,39.751,0,0,1,.7,6.862c2.109-2.407,4.127-4.832,6.015-7.273q1.889-2.433,3.559-5a2.371,2.371,0,0,1-.661-.715c-5.215-1.158-11.5-9.639-5.164-12.147,3.015-1.193,6.06,1.75,7.382,4.1a30.239,30.239,0,0,1,.917,4.71,97.255,97.255,0,0,0,7.873-18.019,1.142,1.142,0,0,1-.842-1.1c-2.479-1.575-4.433-2.881-6.07-5.747-1.017-1.781-2.8-5.821.5-6.609,4.3-1.024,6.625,5.523,6.8,8.7.021.369-.037,1.435-.1,2.41a1.45,1.45,0,0,1,.441.031c1.182-3.878,2.169-7.817,3-11.771-2.274-.857-2.038-12.906-.407-14.539,3.645-3.657,5.78,2.009,5.441,4.928a19.263,19.263,0,0,1-4.174,9.189c-.218.284-.159.274-.19-.14a.822.822,0,0,1-.223.451,51.988,51.988,0,0,1-.085,5.3,121.489,121.489,0,0,1-2.318,13.7q-.374,1.644-.83,3.255a27.08,27.08,0,0,1,5.526-3.12c2.6-1,6.592-2.013,9.019.032a4.191,4.191,0,0,1,.152,6.314c-2.16,2.153-5.882,1.877-8.651,1.513-1.253-.165-7.942-1.046-6.292-2.052a5.586,5.586,0,0,0-.668.274q-.263.787-.547,1.569c.038.025.07.051.112.076-.045-.022-.076-.046-.115-.068a60.9,60.9,0,0,1-7.72,14.666,14.675,14.675,0,0,1,3.525-.74c3.527-.257,10.756,2.822,6.592,7.24-3.992,4.235-9.592-.822-13.823-1.7a198.55,198.55,0,0,1-14.352,15.8,1.138,1.138,0,0,1,.667.611c1.968-.864,4.04-2.138,5.835-2.419,2.59-.4,7.859-.459,9.675,1.913,2.233,2.915-.439,5.05-3.281,5.44-4.12.564-9.355-1.687-13.209-3.224a1.3,1.3,0,0,1-1.21-.471l-.253-.1c-5.121,5.02-10.417,9.857-15.676,14.583h.162a13.662,13.662,0,0,1,4.317-1.687c3.55-.663,7.673-.454,10.385,2.2s3.473,7.074.393,9.73c-6.164,5.316-14.13-7.949-17.061-8.637-5.342,4.75-10.958,9.155-16.654,13.461a9.789,9.789,0,0,1,1.93-.286c5.374-.229,17.58,6.913,10.68,12.959-6.013,5.27-12.064-5.787-16.474-9.772C-225.41-4.57-230.8-.59-236.056,3.563a14.758,14.758,0,0,1,8.318.483c2.99,1.068,7.771,3.595,5.636,7.556-2.172,4.028-7.959,1.844-10.955.373-1.634-.8-4.859-3.39-7.748-4.559a100.274,100.274,0,0,0-21.554,24.413A87.108,87.108,0,0,0-270.9,50.656c-1.343,4.195-3.925,11.225-3.776,16.783C-276.19,56.248-271.684,43.137-267.064,33.445ZM99.7,63.587a5.164,5.164,0,0,0,1,.67c-.163.11-.326.22-.491.329A2.473,2.473,0,0,0,99.7,63.587Zm9.579-3.363c.872-.052,1.745-.095,2.617-.108a30.916,30.916,0,0,0-3,1C109.024,60.818,109.155,60.523,109.281,60.224Zm1.3-11.782c-.043-.164-.072-.273-.08-.3.325.575.653,1.159,1,1.7-.032.1-.062.193-.094.288C111.2,49.658,110.9,49.046,110.582,48.442Zm-.081-.3c0-.009,0-.008,0,0Zm14.751-27.08c.437,0,2.08-4.44,2.6-5.1a14.8,14.8,0,0,1,5.856-4.246c3.6-1.555,8.167.707,5.976,5.2-1.75,3.587-6.487,4.309-10.59,4.309C127.689,21.225,126.361,21.14,125.252,21.057Zm-.338-8.331q-.242.6-.5,1.2a6,6,0,0,1,.23-.833c0,.009.633-1.97.751-2.285a3.494,3.494,0,0,0-.028.695,5.431,5.431,0,0,0-.458,1.221c.158-.39.309-.78.46-1.171.04,1.066.237,2.53-.679,3.255A9.771,9.771,0,0,1,124.915,12.726Z" transform="translate(688.165 273.715) rotate(177)" fill="#c1dee2" opacity="0.2"/><g transform="translate(-196 84.032)"><g transform="translate(196 -9)"><path d="M65.223,23.445c4.2-5.992,12-21.21,17.915-23.351,3.81-1.379,2.7,12.886,2.746,15.607a228.013,228.013,0,0,1-2.107,31.416C81.5,65.937,74.045,82.7,63.822,98.715c-5.26,8.242-11.431,16.584-19.977,21.727-3.934,2.368-8.667,2.765-12.552,4.805-4.524,2.375-2.06.455-4.1,5.17-2.832,6.546-3.737,14.99-5.047,21.975C16.132,184.455,1.568,353.945,4.093,386.558c.224,2.891-3.807,3.582-4.008.053C-.984,367.9,8.27,238.322,12.94,195.947s9.394-79.812,14.132-94.473C32.819,83.687,43.2,62.3,51.84,45.711A197.235,197.235,0,0,1,65.223,23.445Z" transform="translate(113 88)" fill="#69a1ac" opacity="0.25"/><path d="M100.414,2.278C111.349-5.75,123.186,9.4,113.29,17.43c-5.47,4.438-11.189,2.859-14.409-.839-2.09,2.548-4.046,5.211-5.926,7.461-5.727,6.856-11.139,13.876-16.312,21.059C65.9,60.035,56.689,75.8,47.06,91.278c-9.5,15.276-18.929,30.63-27.541,46.292C12.223,150.841,2.5,166.452,0,181c3.79-30.854,18.172-60.51,35.3-87.709C52.285,66.314,71.779,36.853,98.081,15.564A9.316,9.316,0,0,1,100.414,2.278Z" transform="translate(109 317)" fill="#c1dee2" opacity="0.25"/><path d="M1.913.031c6.119,1.2,16.118,15.039,21.162,20.314a197.547,197.547,0,0,1,16.56,19.947,337.377,337.377,0,0,1,29.3,47.788,444.19,444.19,0,0,1,32.6,84.838,349.969,349.969,0,0,1,9.891,55.647c.353,3.523,4.047,30.688-1.276,31.42-4.787.659-3.309-20.626-3.54-23.522C104,203.8,96.177,172.015,85.3,141.226c-2.37-6.707-4.571-14.922-8.36-20.958-2.729-4.347-.02-2.831-4.815-4.477-4.118-1.414-8.81-1.068-13.027-2.8-9.161-3.757-16.5-11.05-22.925-18.385-12.5-14.257-22.4-29.68-27.558-47.948A230.852,230.852,0,0,1,1.658,15.9C1.281,13.2-2.028-.74,1.913.031Z" transform="translate(0 244)" fill="#69a1ac" opacity="0.25"/><path d="M14.061,13.716C37.111,53.69,56.053,97.6,68.283,142.076c7.41,26.947,12.593,54.6,17.742,82.05C94,266.632,101.538,309.134,103.683,352.4c2.158,43.511,6.425,93.7-7.822,135.6,7.117-42.548.341-87.838-.859-130.65-.573-20.438-2.235-40.676-4.414-60.995-2.115-19.71-5.57-39.326-8.787-58.881q-2.351-14.286-4.889-28.537c-.5-2.836-.712-11.25-2.51-13.187S63.354,193,60.454,191.574a74.878,74.878,0,0,1-16.193-11.3c-9.319-8.291-17.426-19.123-23.825-29.8C5.631,125.764-.288,95.61.011,66.994.068,61.438,9,1.61,5.415.786Q5.739.407,6.028,0,10.1,6.823,14.061,13.716Z" transform="translate(12)" fill="#89c5cc" opacity="0.25"/><path d="M164.846,3.887c.356-.513,2.67-4.081,1.5-3.853C168.724-.43,163.087,3.969,169,1.27c-2.808,2.652-1.187,6.1-1.15,9.665a86.554,86.554,0,0,1-2,17.211,118.022,118.022,0,0,1-8.022,26.013c-8.127,18.166-21.927,35.655-38.31,47.012-8.088,5.608-16.014,7.517-25.239,10.1-5.826,1.631-6.288,4.645-9.381,10.3-6.439,11.776-12.763,23.509-18.441,35.683-6.78,14.536-13.362,29.088-19.571,43.88C25.969,250.957,8.945,302.578,0,356c-.219-31.481,7.064-63.9,16.25-93.912,6.692-21.863,15.4-42.937,24.695-63.8,2.252-5.054,5.664-11.555,6.62-17.135.669-3.909-1.377-7.669-2.315-11.788-3.654-16.037-3.392-34-.184-50.128,3.538-17.779,13.768-26.031,31.074-28.549,6.329-.921,14.374-.584,20.177-3.282,6.323-2.939,8.931-12.6,12.526-18.8a255.666,255.666,0,0,1,34.306-46.665A111.285,111.285,0,0,1,154.888,11.15C157.513,9.053,163.058,6.47,164.846,3.887Z" transform="translate(110 154)" fill="#89c5cc" opacity="0.25"/><path d="M.845,5.729A5,5,0,0,1,5.791,0H67.209a5,5,0,0,1,4.946,5.729L67.408,37.918A20,20,0,0,1,47.622,55H25.378A20,20,0,0,1,5.592,37.918Z" transform="translate(75 476)" fill="#c1dee2"/></g></g><g transform="translate(288 519.032)"><path d="M0,0C0,21.287,1.68,38.544,24.228,38.544S48.456,21.287,48.456,0" transform="translate(15.418 48.456)" fill="#f2f2f2"/><path d="M46.353,35.174a44.567,44.567,0,0,0-2.214,4.366,59.743,59.743,0,0,1,.606-9.228c.786-5.329,1.988-10.631,3.116-15.924.811-3.8.76-10.637,3.839-13.668.844-.655,1.047.63,1.047,1.188.011.118,0-2.277-.822-1.86-4.871,2.516-6.449,10.425-8.008,14.386a76.214,76.214,0,0,0-5.008,17.7,39.656,39.656,0,0,0-.336,4.554c-.166-.405-.321-.814-.493-1.218a82.22,82.22,0,0,0-11.337-18.96C25.578,15.054,10.934.649,9.788,2.854a1.52,1.52,0,0,0,.711.8c.021.024.022.011.009-.025.86,1.389,3.305,3.535,4.067,4.752a91.953,91.953,0,0,1,4.921,9.5c3.2,6.739,6.166,13.546,9.043,20.368.67,1.589,1.368,3.169,2.08,4.744C23.277,32.4,13.483,22.791,0,17.287c4.6,2.343,7.624,6.75,10.734,10.125,3.751,4.071,7.7,8.032,11.459,12.1,4.432,4.8,9.648,9.848,13.911,15.156,4.13,8.67,8.142,17.349,10.62,26.463-1.015-3.149-.08-7.5-.253-10.8A73,73,0,0,0,45.6,62.48a16.1,16.1,0,0,1,1.173,3.443c-.186-1.834-.4-3.656-.629-5.468.59-1.7,1.169-3.281,1.56-4.585a117.8,117.8,0,0,1,7.642-19.677A175.66,175.66,0,0,1,65.567,18.735c1.754-2.646,3.532-5.282,5.3-7.923,1.156-1.729,2.257-4.5,3.867-6.153-10.407,9.515-21.777,19.1-28.38,30.515" transform="translate(0 0)" fill="#f2f2f2"/></g><g transform="translate(751 -3.968)"><path d="M79.46,129.914c.238-10.386-4.017-19.958-8.727-28.992-9.169-17.587-13.755-28.109-12.273-49,.872-12.284,1.914-25.263-4.356-36.418C49.539,7.385,39.963-1.305,29.851.164,13.844,3.81,4.908,19.062,1.482,34.206c-4.246,18.77.616,32.774,14.79,44.8,7.987,6.775,12.492,13.754,14.67,24.072,1.743,8.251,1.248,17.713,4.229,25.648,4.457,11.862,12.5,19.106,24.608,21.309-4.368-23.512-10.5-47.806-20.343-69.6-.883-2.157-7.23-11.377-4.589-13.706,2.909-2.564,7.71,12.178,7.672,12.086,2.789,6.551,5.142,13.314,7.4,20.1-.012,0-.025,0-.038,0q3.5,10.459,6.783,21.109C57.512,123,58.3,126,59,129.028c1.03,4.449,1.152,16.166,4.073,19.645a6.3,6.3,0,0,0,1.9,1.586c1.17,4.906,2.262,9.823,3.219,14.75,2.5,12.868,3.944,26.067,2.324,39.152-.473,3.819-5.332,17.1-3.722,20.492,2.943,6.2,4.6-3.362,5.226-6.207,5.193-23.562,3.316-45.683-2.35-68.751,5.209-3.588,9.687-15.573,9.784-19.781" transform="matrix(0.996, -0.087, 0.087, 0.996, 122.272, 10.894)" fill="#f2f2f2"/><path d="M-32.43.111c7.6,1.112,14.777,10.72,18.317,17.126,4.381,7.927,7.437,16.971,9.739,25.678C-.581,57.258-.069,73.178-.022,87.868c.006,1.77.375,23.393-2.153,23.039-2.5-.351-.918-22.8-1.132-27.444-.455-9.919.225-19.7-2.1-29.494a93.487,93.487,0,0,0-12.4-28.455c-.716-1.124-2.232-5.3-3.954-4.338-1.684.944,2.981,6.511,3.644,7.593a95.882,95.882,0,0,1,7.078,14.061A74.094,74.094,0,0,1-5.511,71.283c-5.785.888-10.825-2.5-12.766-8.144-1.677-4.879-1.84-10.554-3.745-15.167a22.5,22.5,0,0,0-5.95-8.157C-34.7,33.8-41.73,32.293-43.737,22.306c-1.573-7.829.38-23.786,11.307-22.2" transform="matrix(0.875, -0.485, 0.485, 0.875, 129.986, 93.784)" fill="#f2f2f2"/></g></g><g transform="translate(-138 22)"><g transform="translate(-21 -38)"><path d="M-43.818,0C-51.3,0-57.949.972-64.838,3.943A93.43,93.43,0,0,0-81.467,13.6c-7.4,5.2-13.232,11.249-17.312,19.266-2.438,4.789-4.226,11.566-2.589,16.79,1.929,6.152,7.224,11.284,14.2,10.2,4.313-.67,8.267-3.525,11.545-6.212A43.659,43.659,0,0,0-65.972,42.27c4.228-7,6.713-14.919,10.3-22.237,1.7-3.473,3.351-6.971,5.393-10.271a16.569,16.569,0,0,1,3.619-4.468c.82-.65,4.278-1.774,2.956-3.233,19.39.255,36.568,15.147,40.291,33.58.347,1.718.618,3.45.9,5.179.181,1.092.108,5.117,1.084,5.814C.73,48.172-.174,43.5-.267,42.826q-.358-2.608-.76-5.211A43.366,43.366,0,0,0-13.685,12.683C-21.694,4.99-32.5,0-43.818,0" transform="matrix(0.978, 0.208, -0.208, 0.978, 1244.123, 549.259)" fill="#89c5cc"/><path d="M102.225,1.334A7.414,7.414,0,0,0,99.838.692,38.719,38.719,0,0,0,92.374,0,137.709,137.709,0,0,0,69.3,2.074c-4.8.83-10.61,3.622-15.388,2.106-8.324-2.642-16.738-2.512-24.635,1.26-7.221,3.449-12.7,10-15.9,17.078a43.407,43.407,0,0,0-2.995,7.652c-.237.542-.465,1.088-.67,1.642-.582,1.573-1.1,3.173-1.59,4.777-.207.684-.729,2.194-.11,2.486a45.46,45.46,0,0,0-2.6,5.652C3.286,50.378.962,56.578.215,62.568a27.912,27.912,0,0,0-.03,6.671c.127,1.1.074,3.307.819,4.142,1.58,1.772,2.392-.709,2.214-1.89C1.858,62.485,4.485,54.027,7.6,45.561a53.276,53.276,0,0,1,9.027-15.019,37.906,37.906,0,0,1,10.328-9,161.472,161.472,0,0,1,15.728-7.8c3.5-1.588,7.009-3.134,10.61-4.5a10.575,10.575,0,0,1,2.948-1.088c1.877-.007,4.537,1.379,6.351,1.894,5.964,1.7,12,3.867,18.168,4.733A23.43,23.43,0,0,0,92.113,13.4a10.628,10.628,0,0,0,1.787-.974,25.936,25.936,0,0,0,7.6-4.3,30.324,30.324,0,0,0,3.563-3.839,2.011,2.011,0,0,0,.47-1.264c.244-.128.406-.277.443-.451.269-1.286-2.184-1.31-3.754-1.233" transform="translate(1254.525 474.277) rotate(14)" fill="#89c5cc"/><path d="M85.98.66A47.063,47.063,0,0,0,75.329.033,66.182,66.182,0,0,0,26.489,23.2c-10.138,12-12.926,26.92-14.928,42-.2,1.5-.284,2.985-.4,4.486-.024.322-.06.609-.1.88A1.937,1.937,0,0,0,10.332,73,100.261,100.261,0,0,0,5.869,84.706C2.162,96.526-1.608,108.571.714,121a173.656,173.656,0,0,1,3.049-20.562c.079-.386.163-.769.252-1.151.009-.04.017-.081.027-.121a44.965,44.965,0,0,1,1.875-6.026c.008-.022.016-.043.024-.064.1-.259.208-.516.314-.774.219-.533.444-1.065.682-1.594q.121-.27.232-.546c1.112-2.726,1.582-5.8,2.578-8.618q.358-.962.749-1.916l.047-.112c.706-1.71,1.485-3.4,2.31-5.071a6.244,6.244,0,0,0,1.074-1.931,12.073,12.073,0,0,0,.891-1.722q.728-1.409,1.458-2.816l-.044.016q.734-1.35,1.467-2.689l.323-.589.524-.938c1.632-2.921,3.363-5.783,5.16-8.61.641-1.009,2.174-2.455,2.468-3.588.011-.042.013-.081.02-.122A64.29,64.29,0,0,1,39.967,36.924c-.651.7-2.034,3.091-2.4,3.564-1.119,1.447-2.334,2.795-3.554,4.158A88.517,88.517,0,0,0,27.8,52.274,144.959,144.959,0,0,0,18.519,67.51c-.027.031-.056.06-.082.091C17.017,69.352,16.123,72,15.1,74c4.046-1.874,8.521-3.1,12.674-4.759a104.134,104.134,0,0,0,12.059-5.676A134.574,134.574,0,0,0,55.25,53.743,61.078,61.078,0,0,0,69.7,40.477c4.912-5.934,9.414-11.919,12.2-19.124a57.426,57.426,0,0,0,3.082-10.967c.028-.163.064-.339.1-.523a35.925,35.925,0,0,0,1.726-3.958c.778-2.14,2.614-4.494-.83-5.246" transform="translate(1244.439 511.395) rotate(5)" fill="#69a1ac"/><path d="M2.02.66A47.063,47.063,0,0,1,12.671.033,66.182,66.182,0,0,1,61.511,23.2c10.138,12,12.926,26.92,14.928,42,.2,1.5.284,2.985.4,4.486.024.322.06.609.1.88A1.937,1.937,0,0,1,77.668,73a100.261,100.261,0,0,1,4.462,11.706c3.707,11.82,7.478,23.865,5.155,36.294a173.657,173.657,0,0,0-3.049-20.562c-.079-.386-.163-.769-.252-1.151-.009-.04-.017-.081-.027-.121a44.964,44.964,0,0,0-1.875-6.026c-.008-.022-.016-.043-.024-.064-.1-.259-.208-.516-.314-.774-.219-.533-.444-1.065-.682-1.594q-.121-.27-.232-.546c-1.112-2.726-1.582-5.8-2.578-8.618q-.358-.962-.749-1.916l-.047-.112c-.706-1.71-1.485-3.4-2.31-5.071a6.244,6.244,0,0,1-1.074-1.931,12.073,12.073,0,0,1-.891-1.722q-.728-1.409-1.458-2.816l.044.016q-.734-1.35-1.467-2.689l-.323-.589-.524-.938c-1.632-2.921-3.363-5.783-5.16-8.61-.641-1.009-2.174-2.455-2.468-3.588-.011-.042-.013-.081-.02-.122A64.29,64.29,0,0,0,48.033,36.924c.651.7,2.034,3.091,2.4,3.564,1.119,1.447,2.334,2.795,3.554,4.158A88.517,88.517,0,0,1,60.2,52.274,144.959,144.959,0,0,1,69.481,67.51c.027.031.056.06.082.091,1.42,1.751,2.314,4.4,3.337,6.4-4.046-1.874-8.521-3.1-12.674-4.759a104.134,104.134,0,0,1-12.059-5.676A134.574,134.574,0,0,1,32.75,53.743,61.078,61.078,0,0,1,18.3,40.477C13.385,34.543,8.883,28.558,6.1,21.353A57.426,57.426,0,0,1,3.017,10.386c-.028-.163-.064-.339-.1-.523A35.925,35.925,0,0,1,1.189,5.906C.412,3.766-1.425,1.412,2.02.66" transform="matrix(0.995, 0.105, -0.105, 0.995, 1161.565, 438.732)" fill="#69a1ac"/><path d="M127.986,3.376C124.041.7,118.8,0,114.076,0,95.64,0,78.311,6.84,63.341,17.032a118.671,118.671,0,0,0-22.019,20.1,58.867,58.867,0,0,0-9.434,14.041A48.375,48.375,0,0,0,28.46,61.991,111.159,111.159,0,0,0,26.515,75.8c-.128,1.82-1.185,11.477,1.841,11.641a4.177,4.177,0,0,0,0,.668c-6.57,10.274-10.63,22.314-14.394,33.729A229.732,229.732,0,0,0,5.87,152.063,329.391,329.391,0,0,0,.958,193.05C.791,196,.676,198.95.577,201.9q-.126,3.779-.251,7.557c-.092,2.823-.589,6.073-.14,8.88.391,2.444,2.506,2.074,2.6-.358.113-2.937.095-5.88.223-8.82q.256-5.852.538-11.7a273.592,273.592,0,0,1,15.515-79.376,185.077,185.077,0,0,1,13.474-29.74A207.372,207.372,0,0,1,49.084,64.173c5.762-7.38,11.752-14.59,18.812-20.843A144.678,144.678,0,0,1,86.4,29.722C94.631,24.5,102.843,19.4,111.755,15.391c4.633-2.084,9.353-3.95,14.021-5.95.84-.36,1.741-.709,2.549-1.126,2.7-1.39,1.808-3.483-.34-4.939" transform="matrix(0.995, -0.105, 0.105, 0.995, 1210.857, 420.397)" fill="#c1dee2"/><path d="M2.014,3.376C5.959.7,11.2,0,15.924,0,34.36,0,51.689,6.84,66.659,17.032a118.671,118.671,0,0,1,22.019,20.1,58.867,58.867,0,0,1,9.434,14.041,48.374,48.374,0,0,1,3.427,10.818A111.159,111.159,0,0,1,103.485,75.8c.128,1.82,1.185,11.477-1.841,11.641a4.177,4.177,0,0,1,0,.668c6.57,10.274,10.63,22.314,14.394,33.729a229.731,229.731,0,0,1,8.088,30.228,329.391,329.391,0,0,1,4.912,40.987c.167,2.949.282,5.9.381,8.854q.126,3.779.251,7.557c.092,2.823.589,6.073.14,8.88-.391,2.444-2.506,2.074-2.6-.358-.113-2.937-.095-5.88-.223-8.82q-.256-5.852-.538-11.7a273.591,273.591,0,0,0-15.515-79.376,185.076,185.076,0,0,0-13.474-29.74A207.373,207.373,0,0,0,80.916,64.173C75.155,56.792,69.164,49.583,62.1,43.33A144.678,144.678,0,0,0,43.6,29.722C35.369,24.5,27.157,19.4,18.245,15.391c-4.633-2.084-9.353-3.95-14.021-5.95-.84-.36-1.741-.709-2.549-1.126-2.7-1.39-1.808-3.483.34-4.939" transform="translate(1111 313)" fill="#c1dee2"/></g><path d="M0,0C0,35.9,2.843,65,41,65S82,35.9,82,0" transform="translate(1173 587)" fill="#c5cfd6"/></g><g transform="translate(330 131)" opacity="0.5"><path d="M53.307.032Q40.671.174,28.055.969c-8,.507-16.67.122-24.536,1.672-2.233.44-5.25,2.475-2.281,4.714,2.087,1.574,9.724-.237,12.216-.39C22.634,6.4,31.818,5.726,41.01,5.4c8.7-.308,17.4-.416,26.11-.5,1.329-.013,3.536-.439,4.859-.053,1.9.555,1.451.706,1.593,3.12.258,4.374.187,8.764.1,13.142-.084,4.237-.241,8.473-.225,12.712.011,3.024-.956,9.033.561,11.66,2.184,3.78,4.45-.326,4.613-2.838.312-4.8.172-9.668.174-14.479,0-4.516.033-9.031-.126-13.544-.115-3.26.351-8.951-1.406-11.915C75.475-.317,71.169.334,68.026.19c-4.9-.225-9.813-.21-14.719-.159" transform="translate(2.202 0.33)" fill="#89c5cc"/><path d="M1.373,2.563C1.383,11.047.4,19.475.126,27.949c-.126,3.9-.382,8.175.6,12,.995,3.862,4.155,4.7,4.519.387.737-8.73.556-17.783,1.13-26.584.2-3.107,1.521-8.8.29-11.711-1.084-2.563-5.3-3.054-5.3.522" transform="translate(0.536 3.247)" fill="#89c5cc"/><path d="M78.11.013C63.48,1.949,48.186,1.243,33.451,1.548c-7.069.146-14.137.155-21.207.229C9.777,1.8,3.511.864,1.377,2.251c-3.4,2.208.289,3.912,2.538,3.961,13.952.306,28.06-.336,42.009-.794,6.267-.206,12.555-.306,18.806-.839A66.285,66.285,0,0,0,76.52,2.9c.8-.221,2.53-.175,2.708-1.261.11-.672-.089-1.768-1.118-1.626" transform="translate(2.796 43.195)" fill="#89c5cc"/><path d="M18.368.429C14.3.453,2.049-1.436.365,2.529-1.88,7.817,6.877,6.583,9.233,6.522c5.349-.137,10.7-.152,16.046-.15,5.25,0,10.5-.032,15.749-.156,1.521-.037,5.061.595,5.935-1.237a2.306,2.306,0,0,0-1.087-3.226c-2.951-1.773-10.616-.745-14.07-.9C27.333.642,22.846.429,18.368.429" transform="translate(1.703 55.111)" fill="#89c5cc"/><path d="M10.541.264C8.218.4,3.517-.555,1.436.508-.93,1.717-.1,3.61,1.946,4.441c1.415.576,7.217.274,8.6-.393,1.436-.7,3.06-3.972,0-3.784" transform="translate(58.995 56.255)" fill="#89c5cc"/><path d="M2.047.008C-.435.689.318,14.779.254,17.013c-.175,6.12-.863,13.817,1.17,19.71,1.3,3.757,3.787,3.248,3.363-.708-.373-3.472-1.012-6.9-1.289-10.4C2.872,17.71,2.021,9.276,2.612,1.363c.252.46,2.606,4.725,3.16,4.407C5.6,5.868,3.056-.258,2.047.008" transform="translate(92.966 6.634)" fill="#89c5cc"/><path d="M31.422.077C26.4.151,21.377.24,16.356.379,12.364.49,6.09-.165,2.429,1.514c-4.36,2-2.291,6.455,1.8,6.549,3.622.084,7.485-.733,11.141-.859,9.873-.338,19.764-.41,29.642-.495,8.933-.077,18.246.876,27.1-.466,1.313,11.663-2.239,23.375-1.031,35.172.187,1.831.1,4.418,2.435,4.835,2.943.527,3.064-2.388,3.175-4.475.319-5.959.146-11.923.582-17.89.4-5.53,1.2-11.181.528-16.72C76.978.35,73.713.9,67.939.613,55.746.015,43.629-.1,31.422.077" transform="translate(91.508 1.377)" fill="#89c5cc"/><path d="M9.082.145C6.522.209,2.272-.58.632,1.874c-1.706,2.553.318,4.78,2.8,5.3,2.937.62,6.766-.23,9.814-.239,3.174-.009,6.349.026,9.523.039,13.608.053,27.275.259,40.873-.3,1.9-.078,7.289.559,8.6-1.263,1.167-1.616.351-3.065-1.186-3.888-2.52-1.35-7.7-.837-10.5-.944C57.1.448,53.63.4,50.167.351,36.495.14,22.752-.194,9.082.145" transform="translate(97.016 42.722)" fill="#89c5cc"/><path d="M19.129,0C14.037.087,8.6-.137,3.561.636-.872,1.315-1.418,5.6,3.354,6.1c4.386.461,9.7-.4,14.109-.683,1.565-.1,3.385.042,4.136-1.688A2.78,2.78,0,0,0,19.129,0" transform="translate(98.48 54.67)" fill="#89c5cc"/><path d="M12.31.353c-2.718.068-10.658-1.1-12,2C-1.935,7.525,8.812,5.561,10.874,5.485,13.473,5.39,23.6,6.907,23.6,2.77c0-4.057-8.8-2.479-11.294-2.417" transform="translate(143.799 54.767)" fill="#89c5cc"/><path d="M.189,3.2C.2,12.606-.39,22.1.468,31.475c.355,3.879.294,11.31,2.541,14.6,1.595,2.334,3.807,2.171,4.678-.632.582-1.874-.349-5.621-.453-7.625-.1-1.924-.217-3.847-.306-5.771-.229-4.957-.21-9.907-.142-14.867C6.844,12.923,7.868,7.295,6.9,3.2,6-.61.189-1.5.189,3.2" transform="translate(1.281 77.601)" fill="#69a1ac"/><path d="M92.929.318c-16.313.409-32.663.044-48.961.851-8.038.4-16.045,1.272-24.042,2.144C16,3.742,12.07,4.183,8.147,4.667c-1.184.146-11.019.527-7.32,4.267,1.615,1.633,6.756-.073,8.79-.314,3.938-.465,7.884-.87,11.828-1.287C28.949,6.539,36.463,5.787,44,5.37c17.749-.983,35.572-.688,53.339-1.344,4.806-.177,9.6-.3,14.406-.115,1.262.05,10.54.521,6.512-2.905-1.9-1.621-9.086-.784-11.466-.833-4.62-.1-9.242.029-13.86.145" transform="translate(3.038 72.214)" fill="#69a1ac"/><path d="M.008,56.03c-.379-5.344,13.029-5.335,16.863-5.692,16.461-1.531,33.193-1.209,49.705-.978,7.985.111,15.954.355,23.933-.133s16.211-.359,24.123-1.217c-1.02-3.951-.87-8.892-1.156-12.929-.734-10.365-.537-20.766-1.011-31.141-.208-4.571,6.018-5.264,7.865-1.563,1.866,3.737.653,11.153.774,15.3.279,9.594,2.058,20.335.179,29.823-.654,3.3-3.438,5.035-5.29,3.235l-.008.012c-.7,1.027-2.866,1.025-4.464,1.023-.44,0-.837,0-1.148.02-4.377.3-8.672.8-13.011,1.45a208.9,208.9,0,0,1-25.951,2.308c-17.281.428-34.633.028-51.889,1.211A94.731,94.731,0,0,0,8.179,58.19a26.115,26.115,0,0,1-4.765.779C1.653,58.97.171,58.34.008,56.03Z" transform="translate(5.38 71.403)" fill="#69a1ac"/><path d="M3.33.661C1.126.96-.712,2.847.272,5.239,1.511,8.251,5.2,7.074,7.641,6.883c7.75-.607,15.842.605,23.5-.309,2.091-.25,5.125-1.389,3.247-4.2C32.975.264,27.833.634,25.648.432A116.59,116.59,0,0,0,3.33.661" transform="translate(128.078 78.032)" fill="#c1dee2"/><path d="M11.636.108C8.631.31,1.634.151.367,3.571-1.9,9.706,6.995,7.544,9.7,7.2c3.148-.405,10.568.68,12.244-2.372,3-5.458-7.675-4.9-10.311-4.715" transform="translate(132.852 91.726)" fill="#c1dee2"/><path d="M1.07,1.325a3.941,3.941,0,0,0,0,5.4C2.818,8.472,6.628,8.109,8.925,8.237c3.2.179,12.407,1.874,14-1.9C25.07,1.247,16.736,1.353,14,1.064,10.827.731,3.7-1.3,1.07,1.325" transform="translate(135.689 103.973)" fill="#c1dee2"/><path d="M0,4.114c0,5.473,8.548,5.473,8.548,0C8.548-1.33,0-1.413,0,4.114" transform="translate(24.437 14.045)" fill="#89c5cc"/><path d="M0,4.7c0,6.257,9.736,6.244,9.736,0S0-1.6,0,4.7" transform="translate(40.651 13.52)" fill="#89c5cc"/><path d="M2.12.084C-2.613,1.391,1.747,5.4,3.944,6.318,7.437,7.775,12.2,8.848,15.7,6.665c1.39-.869,2.518-2.024,1.5-3.71-1.085-1.8-2.571-1-4.224-.831A12.96,12.96,0,0,1,7.167,1.63c-1.509-.5-3.4-2-5.047-1.546" transform="translate(28.723 26.456)" fill="#89c5cc"/><path d="M0,2.776c0,3.7,5.748,3.7,5.748,0S0-.925,0,2.776" transform="translate(116.69 15.729)" fill="#89c5cc"/><path d="M0,3.085C0,7.2,6.386,7.2,6.386,3.085S0-1.028,0,3.085" transform="translate(129.402 15.978)" fill="#89c5cc"/><path d="M13.646.179C10.291.612.59,1.6.047,5.73c-.837,6.379,9.793,1.216,12.219.715A35.165,35.165,0,0,1,21.2,6.1c1.694.068,3.946.342,3.769-2.238C24.678-.377,16.578-.2,13.646.179" transform="translate(115.283 27.809)" fill="#89c5cc"/><path d="M4.406.083C1.974.732-1.206,4.935.466,7.507c2.743,4.219,3.952-2.259,5.1-2.882,2.089-1.135,3.784,3.011,5.967.836C14.978,2.03,6.574-.5,4.406.083" transform="translate(40.186 86.731)" fill="#69a1ac"/><path d="M9.436,0C6.553.027.466,4.109.035,7.123A2.981,2.981,0,0,0,2.9,10.659c2.629.032,3.464-3.386,5.743-4.1,2.458-.771,2.093,1,4.216,1.925,1.554.674,3.5.392,4.036-1.518C17.91,3.362,12.4-.056,9.436,0" transform="translate(63.014 83.695)" fill="#69a1ac"/><path d="M1.456.445c-4.612,2.7,2.977,8.5,5.607,9.22,3.971,1.093,11.965-.947,12.906-5.8C20.343,1.935,19.135.187,17,.532c-1.754.285-2.88,2.486-4.5,3.274A5.03,5.03,0,0,1,6.492,3.2C4.974,1.891,4.161-1.133,1.456.445" transform="translate(48.924 100.509)" fill="#69a1ac"/><path d="M40.023.393c-4.12.879-8.309.289-12.449,1.115-4.222.843-6.745,2.438-10.667.831l-.553-.234C13.318.8,10.136.411,6.958,2.5c-1.881,1.233-7.589,5.5-6.9,8.1C1.548,16.24,7.972,7.391,9.61,6.529c3.124-1.645,5.265.456,8.481,1.049,3.852.71,6.951-1.325,10.58-2.136,4.244-.948,9.018-1.278,13.335-1.786,1.706-.2,8.166,1.149,8.75-.974C51.757-.964,41.642.05,40.023.393" transform="translate(13.699 140.492)" fill="#c1dee2"/><path d="M16.26,20.2h0c-3.071,0-5.532-.1-7.744-.314A11.824,11.824,0,0,1,4.1,18.859,5.171,5.171,0,0,1,1.561,15.4a49,49,0,0,1-1.4-6.552C-.249,5.565.116,3.623,1.249,3.075a2.643,2.643,0,0,1,1.176-.221c.231,0,.469.015.66.027l.025,0c.208.013.4.026.587.026a2.315,2.315,0,0,0,.416-.032c.991-.182,2-.447,3.075-.727a36.461,36.461,0,0,1,4.265-.934C15.523.666,19.945.293,24.971.076l.062,0C25.844.039,26.764,0,27.755,0a18.916,18.916,0,0,1,5.584.678A5.841,5.841,0,0,1,37.25,3.83c.614,1.431.663,3.746.14,6.516a22.484,22.484,0,0,1-2.1,6.269c-1.759,3.145-5.247,3.578-8.755,3.578-.657,0-1.328-.016-1.92-.029h-.038c-.626-.015-1.217-.028-1.8-.028l-.395,0-1.686.023h-.022C19.231,20.182,17.735,20.2,16.26,20.2ZM4.5,5.153h0c.078.5.131,1.439.191,2.531.153,2.756.362,6.53,1.186,7.459.786.887,3.568.915,5.231.931.414,0,.771.008,1.017.023,2.622.163,5.295.242,7.879.318,1.085.032,2.208.065,3.311.1.575.02,1.35.119,2.17.224a30.515,30.515,0,0,0,3.671.32,5.171,5.171,0,0,0,2.243-.377c1.007-.5,2.157-2.613,2.93-5.384.855-3.067.95-5.77.24-6.886a3.967,3.967,0,0,0-2.4-1.532,14.434,14.434,0,0,0-3.785-.416,60.5,60.5,0,0,0-8.53.847c-.973.146-1.813.272-2.419.333a39.473,39.473,0,0,0-3.979.741A35.075,35.075,0,0,1,6.63,5.434,6.917,6.917,0,0,1,4.5,5.153Z" transform="translate(77.55 137.016)" fill="#c1dee2"/><path d="M23.172,24.947h0a126.216,126.216,0,0,1-14.053-.718C6.286,23.913,4.47,23.3,3.23,22.254,1.852,21.086,1.093,19.285.842,16.588c-.058-.626-.162-1.371-.282-2.233C-.015,10.218-.886,3.967,2.327,1.917,4.735.381,9.561.229,13.085.118,13.9.092,14.676.068,15.338.03,15.714.01,16.109,0,16.51,0A52.992,52.992,0,0,1,23.1.566c1.789.228,3.639.465,5.432.541,3.078.131,5.015.375,6.434,1.29,1.437.926,2.289,2.5,2.941,5.448A5.313,5.313,0,0,0,38.3,8.912,3.9,3.9,0,0,1,38.75,10.6a22.43,22.43,0,0,1-.691,4.41c-.152.693-.3,1.346-.394,1.907-.5,2.875-1.544,4.882-3.189,6.134-1.535,1.168-3.638,1.749-6.616,1.827C26.258,24.925,24.681,24.947,23.172,24.947Zm4.2-6.992c-1.8.328-3.7.681-5.977,1.109l-1.124.212c.7.05,1.334.14,1.945.226a14.619,14.619,0,0,0,1.967.193A3.567,3.567,0,0,0,27.367,17.955ZM13.4,17.622h0l-.3.1-1.21.4-.009,0-.819.27c.892.11,1.739.208,2.589.3a2.076,2.076,0,0,1-.247-1.079ZM7.924,14.5a.477.477,0,0,0-.356.108.353.353,0,0,0-.081.272.662.662,0,0,0,.086.495.24.24,0,0,0,.186.075c.261,0,.712-.28,1.339-.833l-.034,0H9.013a3.784,3.784,0,0,1-.55-.06H8.454A3.661,3.661,0,0,0,7.924,14.5ZM23.482,6.876a.314.314,0,0,0-.25.138c-.179.141-.26.227-.247.263,0,.013.021.019.049.019a2.935,2.935,0,0,0,.629-.191c.07-.026.13-.048.172-.062A.579.579,0,0,0,23.482,6.876Zm8.4-1.462c.848,1.231,1.258,1.327,1.363,1.327a.134.134,0,0,0,.142-.14C33.415,6.28,32.922,5.589,31.882,5.414Z" transform="translate(121.937 134.058)" fill="#89c5cc"/></g><g transform="matrix(0.999, 0.035, -0.035, 0.999, 764.037, 392.986)"><g transform="translate(115.972 30.644)"><path d="M0,0,6.663,31.055C2.947,35.416.432,40.762.852,46.751,2.063,64.009,26.086,60.212,30.759,51.5s4.118-30.8-1.921-32.361c-2.409-.621-7.539.9-12.762,4.047L19.354,0Z" transform="translate(33.869 58.868) rotate(180)" fill="#784931"/></g><path d="M11.544,27.971c2.551-.418,9.419-.706,10.685-.706.809,0,1.687.185,2.166-.558.393-.609.249-1.638.366-2.344.136-.82.329-1.63.525-2.438a24.79,24.79,0,0,1,2.574-6.539A20.1,20.1,0,0,1,37.387,6.76,30.592,30.592,0,0,1,51.851,4.771c5.191.421,9.89,2.134,14.792,3.747A31,31,0,0,0,81.09,9.909c4.922-.756,8.641-3.424,12.792-5.956,4.25-2.592,9.107-4.287,14.131-3.9A27.215,27.215,0,0,1,120.9,4.943c3.628,2.42,6.622,5.332,8.313,9.431,1.818,4.409,1.817,9.248-1.173,13.144-4.334,5.648-12.38,7.108-19.075,6.963A36.444,36.444,0,0,1,97.638,32.4c-4.875-1.715-9.088-4.621-13.649-6.979a35.518,35.518,0,0,0-6.672-2.67c-2.25-.636-4.467-.927-6.5.432a30.717,30.717,0,0,1-6.553,3.751,21.133,21.133,0,0,1-7.391,1.327c-4.9-.038-9.737-1.566-14.5-2.589-3.884-.834-8.039-1.666-12-.864-1.652.335-4.065,1.026-4.662,2.743C35.752,29.375,39.7,41.8,36.865,50.915,35.337,55.836,26.151,61.589,22.579,59c-2.263-1.639-.889-3.791,0-5.211,1.7-2.72,2.285-6.215-.865-8.109C19,44.048,16.14,47.927,16.086,47.923c-.747-.059-7.2-3.709-11.647-9.034-4.386.26-5.052-2.632-4-5S8.019,28.549,11.544,27.971Z" transform="translate(118.57 0)" fill="#3d2216"/><ellipse cx="62.094" cy="59.271" rx="62.094" ry="59.271" transform="translate(95.812 178.217)" fill="#c5cfd6"/><path d="M102.069,53.287c-5.136,17.989-9.042,33.819-10.029,39.73-2.355,14.1,18.113,14.917,20.819,7.912,4.095-10.6,11.244-45.442,19.833-98.065L122.874,0C112.542,22.868,105.069,42.781,102.069,53.287ZM3.024,71.768C12.5,75.515,45.7,87.242,61.714,90.559c4.6.954,9.061,1.839,13.253,2.64,12.462,2.379,18.919-20.1,6.916-21.83-29.891-4.3-72.267-8.745-75.893-9.243a4.619,4.619,0,0,0-.628-.043C.6,62.08-2.686,69.511,3.024,71.768Z" transform="translate(163.439 287.615) rotate(180)" fill="#784931"/><path d="M51.416,77.345a10.48,10.48,0,0,0-.139,2.672L0,106.119V111.8H6.1S80.511,92.84,82.148,87.5c.012-.038.022-.075.031-.113l.075-.1C92.085,73.764,97.973,7.753,99.906,2.811L81.066,0C73.86,26.723,50.8,45.339,51.416,77.345Z" transform="translate(132.1 268.246) rotate(180)" fill="#5c63ab"/><path d="M25.061,15.067l15.488,5.312c-4.691.939-9.012,1.777-12.709,2.426C3.959,26.994-3,39.777,1.112,67.668h44c7.187-2.065,44.54-17.729,63.92-26.06,12.826-5.514,8.783-25.393,1.519-30.566a.709.709,0,0,0-.4-.629C83.276-.724,60.265-.184,45.155.357,38.294.6,33.062.848,29.837,0Z" transform="translate(168.389 224.112) rotate(180)" fill="#8991dc"/><path d="M3.607,12.876a1.613,1.613,0,0,1-2.069-1.087L0,6.366A51.805,51.805,0,0,1,.727,0H46.21s1.773,5.861-2.047,6.329-6.346.844-6.346.844L16.677,16.6a.806.806,0,0,1-1.074-.429l-1.359-3.3s-3.536-1.65-5.747-1.65Z" transform="matrix(-0.438, 0.899, -0.899, -0.438, 168.347, 217.396)" fill="#e4e4e4"/><path d="M43.013,4.123A1.613,1.613,0,0,1,45.082,5.21l1.539,5.423A51.806,51.806,0,0,1,45.894,17H.411s-1.773-5.861,2.047-6.329S8.8,9.826,8.8,9.826L29.944.4a.806.806,0,0,1,1.074.429l1.359,3.3s3.536,1.65,5.747,1.65Z" transform="translate(0 278.148)" fill="#e4e4e4"/><path d="M.989,1.744c-.9.554-1.886,2.645.5,4.278C7.419,10.09,15.969,17.21,17.125,19.554c2.363,4.794,10.41,51.52,10.41,51.52l16.852-.067S28.779,20.624,27.535,17.54c-1.866-4.625,2.083-11.667,3.771-15.452-2.661-1.191-3.9.329-5.252,1.85-1.443,1.621-3.02,3.241-6.6,1.576C14.874,3.383,11.087,0,6.573,0A10.475,10.475,0,0,0,.989,1.744Zm145.1,45.363L120.613,57.67,126.3,71.726l25.723-18.889a69.221,69.221,0,0,0,17.486-7.027c1.106-1.007,2.442-3.048-2.143-2.7s-9.425.517-10.058-1.047,2.142-3.434.863-5.545a.608.608,0,0,0-.558-.3Q155.352,36.223,146.085,47.107Z" transform="translate(214.223 217.857) rotate(180)" fill="#784931"/><path d="M0,90.044l6.842,1.8c27.722-20.01,42.05-61.858,75.625-81.753L75.688,0C20.287,1.991,2.138,52.976,0,90.044Z" transform="matrix(-0.996, 0.087, -0.087, -0.996, 146.645, 165.772)" fill="#e87613"/><path d="M63.908,91.931H2.208c-2.819,0-2.288-4.071-1.881-6.125C5.031,62.1,23.393,36.54,23.393,2.791L41.19,0C55.91,23.675,61,52.824,63.908,91.931Z" transform="translate(105.287 71.771)" fill="#dde3e9"/><path d="M.082,0c-1.423,46.029,16,81.45,30.589,102.807a9.359,9.359,0,0,0-8.009,4.92c-6.5,11.737-4.156,18.2,2.8,20.324S38.609,125.8,49.685,125.8a8.632,8.632,0,0,0,1.321-.094l5.906-.337S80.888,44.106,70.137,16.934H21.368A154.747,154.747,0,0,0,13.314,0Z" transform="translate(197.501 197.571) rotate(180)" fill="#ff9b21"/><path d="M18.227,0H0C3.343,8.028,7.03,17.944,10.96,29.471,12.6,15.265,15.041,5.35,18.227,0Z" transform="translate(176.133 180.636) rotate(180)" fill="rgba(0,0,0,0.1)"/></g><g transform="translate(293 190)"><g transform="matrix(0.966, -0.259, 0.259, 0.966, 47.539, 38.286)"><path d="M20.711,69.237l0-.039A21.5,21.5,0,0,1,0,47.713V21.5A21.5,21.5,0,0,1,21.5,0h5.75A21.5,21.5,0,0,1,48.735,20.693c3.7,14.144,8.25,43.805,3.392,48.544Z" transform="translate(55.25 29.199)" fill="#191847"/><g transform="translate(58.5 33.525)"><path d="M0,78.945,8.951,37.3C3.959,31.45.58,24.281,1.145,16.249,2.772-6.894,35.044-1.8,41.321,9.878s5.532,41.31-2.581,43.4c-3.236.833-10.129-1.207-17.144-5.428l4.4,31.1Z" transform="translate(0 0)" fill="#b28b67"/></g><path d="M31.546,67.631H.128A56.23,56.23,0,0,1,.3,57.819a26.935,26.935,0,0,1,1.579-6.676,25.267,25.267,0,0,1,5.538-8.176C11.293,38.706,15.3,34.3,15.3,20.442c.273-.266.545-.535.808-.795.772-.763,1.5-1.48,2.229-2.13l-.035-.841a43.645,43.645,0,0,1,5.649-8.338,28.9,28.9,0,0,1,6.53-5.733A16.141,16.141,0,0,1,39,0c5.586,0,9.96,1.154,13.371,3.527a25.967,25.967,0,0,1,6.5,7.236l.008.011a12.7,12.7,0,0,1-4.949,6.849A45.669,45.669,0,0,1,45.8,22.016a71.245,71.245,0,0,0-7.916,4.057A5.952,5.952,0,1,0,34.126,36.64c.09,0,.181,0,.271-.006a119.539,119.539,0,0,1,.362,19.01c-.317,4.348-1.132,9.956-3.213,11.987Z" transform="translate(40.082 30.281)" fill="#191847"/></g><g transform="translate(2.749 213.802)"><path d="M0,17.049S38.983,27.934,67.266,27.934s52.542-16.762,52.542-16.762S81.66,0,56.975,0,0,17.049,0,17.049Z" transform="translate(102.776 93.678)" fill="#afb9c5"/><path d="M65.289,127.421a6.113,6.113,0,0,1-.63-1.228C61.185,117.022,5.543,18.088,0,0H62.645C66.86,13.752,85.829,100.055,88.5,117.274c8.423,27.161,25.766,115.124,27.98,121.218,2.329,6.411-10.776,13.089-14.268,5.208-5.556-12.54-18.8-47.238-24.691-68.425C71.994,155.413,67.494,137.543,65.289,127.421Z" transform="translate(127.251 4.651)" fill="#997659"/><path d="M133.067,139.5c-25.439,6.418-118.487,18.021-124.873,19.841C1.625,161.213-4.134,147.7,3.985,144.77c12.919-4.659,48.516-15.422,70.1-19.815,17.36-3.533,33.2-6.416,43.837-8.1C117.02,87.028,112.9,15.458,115.6,0H171.03c-2.589,14.823-24.472,122.98-28.54,133.806-1.291,3.865-5.142,5.573-9.423,5.694Z" transform="translate(8.221 4.651)" fill="#b28b67"/><g transform="matrix(0.174, 0.985, -0.985, 0.174, 39.392, 138.199)"><path d="M4.474,5.033A2,2,0,0,0,1.908,6.381L0,13.106A64.242,64.242,0,0,0,.9,21H57.3s2.2-7.268-2.538-7.848-7.87-1.047-7.87-1.047L20.68.419a1,1,0,0,0-1.332.532L17.663,5.039s-4.385,2.046-7.127,2.046Z" transform="translate(1 19)" fill="#c5cfd6"/></g><g transform="translate(222.584 219.859)"><path d="M4.846,5.416A2.167,2.167,0,0,0,2.067,6.874L0,14.146a69.359,69.359,0,0,0,.976,8.537h61.1s2.382-7.86-2.75-8.487S50.8,13.065,50.8,13.065L22.4.426A1.084,1.084,0,0,0,20.961,1L19.135,5.422s-4.75,2.213-7.72,2.213Z" transform="translate(1.083 20.575)" fill="#c5cfd6"/></g><path d="M25.306,5.188s36.639-10.464,69.333,0c7.583,34.539,26.01,48.247,29.25,101.2-36.833,18.27-82.333-13.03-120.25,4.787C-7.194,86.255,7.973,26.238,25.306,5.188Z" transform="translate(98.695 -0.538)" fill="#dde3e9"/></g><g transform="matrix(0.985, -0.174, 0.174, 0.985, 89.686, 117.07)"><path d="M58.892,55.642l16.517-9.059s3.476-13.2,8.311-13.288c1.247-.58.771,1.956.593,4.492-.176,2.5-.064,4.995,2.265,4.517,4.694-.965,16.15-9.47,18.124-7.744,2.92,2.556.317,10.4-2.751,14.3-5.735,7.294-10.482,9.789-22.217,13.055-9.2,2.562-19.9,10.269-19.9,10.269ZM0,38.3,37.6,17.737A92.96,92.96,0,0,1,56.085.467c1.854-.773,5.1-1.241,2.065,4.133s-5.981,11.162-4.436,12.817c.679.727,1.8.688,3.007.649,1.536-.049,3.2-.1,4.234,1.444Q62.8,22.261,41.208,28.2L13.886,53.174Z" transform="translate(88.199 7.882)" fill="#997659"/><path d="M5.965,6.884A92.512,92.512,0,0,0,57.144.015L61.85,17.349c-14.771,10.626-34.369,18.175-50,15.249C-.461,30.292-4.417,14.354,5.965,6.884Z" transform="translate(62.917 35.732) rotate(-9)" fill="#5c63ab"/><path d="M36.206,154.085c-13.228-1.716-25.535-3.432-32.686-2.026-12.261-39.749,11.446-55.9,11.464-81.335C15.005,42.871,37.408,0,40.7,0H70.764c1.658,21.26,10,44.691,16.847,67.839,21.845,4.951,70.353-12.28,70.353-12.28s12.246,25.289,11.322,36.059c-28.236,14.724-52.433,21.288-72.37,21.72.633,11.809-.807,23.046-5.643,33.313-3.619,7.682-13.632,9.979-25.851,9.978C56.328,156.629,46.013,155.356,36.206,154.085Z" transform="translate(0)" fill="#8991dc"/></g></g><g transform="matrix(1, 0.017, -0.017, 1, 1029.865, 407.725)"><path d="M24,47,13.916,0H6.643L0,47Z" transform="translate(141.813 27.98)" fill="#d4a181"/><path d="M6.24,49.263c7.489,1.93,36.205-12.838,34.7-34.238S9.651-1.667,3.857,9.134-1.25,47.333,6.24,49.263Z" transform="translate(123.813 1.98)" fill="#d4a181"/><path d="M11.786,12.551c3.383,1.787,5.745,5.257,8.6,9.843a6,6,0,0,1,6.386,9.878c1.388,1.96,2.944,4.007,4.727,6.119,6.7-4.019,11.668-15.782,5.12-27.083-1.81-5.536-5.908-8.493-10.747-9.866A17.407,17.407,0,0,0,14.451.6C7.717,1.178,1.7,3.232,0,4.451c0,6.375,1.235,8.267,11.786,8.1Z" transform="translate(126.23)" fill="#915b3c"/><path d="M22.1,0s-1.378,19.2-7.291,19.2S3.883,15.444,1.288,15.444c-1.891,0-1.469,2.367-.215,4.121,1.034,1.448,6.071,2.843,6.071,5.088s-3.979.508-3.979,1.839c0,2.2-.7,6.342,3.122,6.342,3.868,0,14.956-1.409,16.857-7.15s2.413-24.2,2.413-24.2Z" transform="translate(122.575 19.367)" fill="#915b3c"/><path d="M1.36,1.005S-1.179,47.644.682,67.914c2.124,23.139,4.7,43.229,6.207,50.524,3.593,17.4,27.6,9.322,27.586,0C34.446,97.274,13.981,0,13.981,0Z" transform="translate(113.358 288.132) rotate(160)" fill="#d4a181"/><path d="M32.792,138.157c1-12.613,2.861-56.336,1-76.677-2.124-23.219-4.7-43.408-6.207-50.76C23.993-6.811-.012.351,0,9.674.028,30.84,19.343,131.32,20.352,137.664S32.163,146.084,32.792,138.157Z" transform="translate(21.813 171.172)" fill="#d4a181"/><path d="M0,0,5.118,101.51c3.688,17.553,34.907,9.406,34.894,0C39.982,80.155,27.154,6.383,27.145.021Z" transform="translate(110.913 271.106) rotate(160)" fill="#e87613"/><path d="M0,29.926C0,56.467,11.634,118.855,11.642,124.7l28.182-.95s-7.389-81.364-6.232-81.916c1.736-.827,71.146,9.607,91.964,10.395C155.574,53.365,167.992,34.948,169,0H110.852S36.27,8.9,12.815,12.384C2.774,13.874,0,22.615,0,29.926Z" transform="translate(20.813 158.231)" fill="#ff9b21"/><path d="M4.474,15.967a2,2,0,0,1-2.565-1.348L0,7.894A64.242,64.242,0,0,1,.9,0H57.3s2.2,7.268-2.538,7.848S46.9,8.894,46.9,8.894L20.68,20.581a1,1,0,0,1-1.332-.532l-1.685-4.088s-4.385-2.046-7.127-2.046Z" transform="translate(118.454 298.475) rotate(166)" fill="#e4e4e4"/><path d="M53.339,5.033A2,2,0,0,1,55.9,6.381l1.908,6.724a64.242,64.242,0,0,1-.9,7.894H.51s-2.2-7.268,2.538-7.848,7.87-1.047,7.87-1.047L37.133.419a1,1,0,0,1,1.332.532l1.685,4.088s4.385,2.046,7.127,2.046Z" transform="translate(0 287.98)" fill="#e4e4e4"/><rect width="53" height="7" rx="3.5" transform="translate(3.813 308.98)" fill="#2f3676"/><path d="M10,0H117a10,10,0,0,1,10,10V55a4,4,0,0,1-4,4H0a0,0,0,0,1,0,0V10A10,10,0,0,1,10,0Z" transform="translate(75.813 163.98)" fill="#2f3676"/><path d="M34,0H31.806a10,10,0,0,0-9.868,8.38L0,142H10.686" transform="translate(51.813 163.98)" fill="#2f3676"/><circle cx="18" cy="18" r="18" transform="translate(38.813 289.98)" fill="#191847"/><g transform="translate(113.812 171.98)"><path d="M76,0A75.644,75.644,0,0,0,33.508,12.98,76.222,76.222,0,0,0,5.972,46.418a75.9,75.9,0,0,0,7.007,72.075,76.222,76.222,0,0,0,33.438,27.535,75.9,75.9,0,0,0,72.075-7.007,76.222,76.222,0,0,0,27.535-33.438,75.9,75.9,0,0,0-7.007-72.075A76.222,76.222,0,0,0,105.583,5.972,75.525,75.525,0,0,0,76,0Zm0,138a61.71,61.71,0,0,1-34.664-10.588,62.18,62.18,0,0,1-22.463-27.278,61.919,61.919,0,0,1,5.716-58.8A62.179,62.179,0,0,1,51.867,18.873a61.919,61.919,0,0,1,58.8,5.716,62.179,62.179,0,0,1,22.463,27.278,61.918,61.918,0,0,1-5.716,58.8,62.18,62.18,0,0,1-27.278,22.463A61.614,61.614,0,0,1,76,138Z" transform="translate(152 152) rotate(180)" fill="#191847"/><rect width="8" height="132" transform="translate(72 10)" fill="#191847"/><rect width="8" height="132" rx="2" transform="translate(125.498 119.841) rotate(135)" fill="#191847"/><rect width="8" height="132" rx="2" transform="translate(142 72) rotate(90)" fill="#191847"/><rect width="8" height="132" rx="2" transform="translate(119.841 26.503) rotate(45)" fill="#191847"/></g><path d="M7.954,46,38.583,20.939a85.864,85.864,0,0,0,21.2-9.836c1.3-1.319,2.826-3.933-2.829-3.2S45.314,9.156,44.429,7.261s2.43-4.392.709-6.923q-1.721-2.53-14.279,13.89L0,28.962Z" transform="matrix(-0.996, 0.087, -0.087, -0.996, 97.701, 187.234)" fill="#d4a181"/><path d="M50.844,84.8S29.035,30.2,24.933,25C22.927,22.452,10.72,16.019,2.474,12.614-.836,11.247-.179,8.458.769,7.553,8.48.191,15.7,5.424,24.14,7.365c9.247,2.126,6.187-8.778,13.492-7.21-1.072,5.026-4.046,14.587-.591,19.715,2.3,3.419,34.226,60.51,34.226,60.51Z" transform="matrix(-0.978, -0.208, 0.208, -0.978, 243.606, 239.523)" fill="#d4a181"/><path d="M0,128.333l8.485,2.231Q35.593,76.937,95,36.37L70.043,0C29.32,39.879,2.652,82.366,0,128.333Z" transform="matrix(-0.996, 0.087, -0.087, -0.996, 163.303, 186.157)" fill="#afb9c5"/><path d="M77,114H0S26.759,48.938,26.759,3.461L49.986,0C68.24,29.358,73.4,65.5,77,114Z" transform="translate(112.813 52.98)" fill="#dde3e9"/><path d="M69,134.606H0S9.51,45.71,10.4,16.377L16.013.338S21.582.094,24.3,0H25.82C42.177,29.358,65.77,86.111,69,134.606Z" transform="translate(137.461 52.98)" fill="#afb9c5"/><path d="M6.5,0S59.579,52,68,147H30.469C36.3,67,0,5.774,0,5.774Z" transform="translate(156.813 52.98)" fill="#afb9c5"/><path d="M6.5,0S59.579,52,68,147H30.469C36.3,67,0,5.774,0,5.774Z" transform="translate(156.813 52.98)" fill="#afb9c5"/><path d="M24.889,11.571,0,0V11.571Z" transform="translate(151.813 145.409)" fill="rgba(255,255,255,0.2)"/><path d="M3.993.382s7.073,58.336-4.165,77.2l14.156.065a237.279,237.279,0,0,0-1.751-36.982A357.032,357.032,0,0,0,3.993.382Z" transform="translate(173.813 109.98)" fill="rgba(0,0,0,0.1)"/></g><g transform="translate(38 369)"><g transform="translate(72)"><g transform="translate(54 31)"><path d="M0,73,8.262,34.49C3.655,29.081.536,22.452,1.057,15.025c1.5-21.4,31.292-16.692,37.086-5.891s5.107,38.2-2.382,40.129c-2.987.77-9.349-1.116-15.825-5.019L24,73Z" fill="#b28b67"/></g><g transform="translate(36.535 28.741)"><path d="M17.735,2.011c-.55-.328-1.7-1.02-2.283-1.271-.138-.06-1.1-.749-1.129-.74-.731.247-2.848,1.157-3.029,1.944-.028.06-.056.116-.083.164-.3.545-.575,1.1-.838,1.67C9.8,5.019,9.3,6.317,8.825,7.6,7.9,10.112,7.1,12.677,6.358,15.249c-.752,2.618-1.391,5.266-2.105,7.895C3.224,26.925,1.907,30.615.886,34.4a22.186,22.186,0,0,0-.844,7.341c0,.03,0,.059.005.09,0,.012,0,.025,0,.037q.044.573.126,1.149c.048.328.1.658.149.987.933-1.86,1.645-3.91,2.4-5.856.074-.19.144-.382.213-.575q.366-.592.744-1.177c1.585-2.461,3.176-4.913,4.7-7.418a133.659,133.659,0,0,1,8.682-13.246c.957-1.222,1.936-2.425,2.881-3.657q.806-1.052,1.568-2.139c.362-.519,1.937-2.327,1.367-3.413A29.363,29.363,0,0,0,17.735,2.011Z" transform="translate(32.465 2.259)" fill="#2c2c2c"/><path d="M48.091,3.09c.535.18.275-.933-.243-1.324C45.449-.047,36.278-.706,28.3.951A38.722,38.722,0,0,0,12.462,8.375c-3.85,3.2-6.5,8.334-7.86,13.292a38.626,38.626,0,0,0-.851,15.974c.175,1.173.552,2.29.761,3.438a26.628,26.628,0,0,0,.778,3.795c.258.77.7,1.525.916,2.3a5.283,5.283,0,0,1-.085,2.6A28.4,28.4,0,0,1,4.927,54.1c-.79,2.1-1.748,4.068-2.349,6.248-.8,2.9-4.143,12.34-1.7,14.913H47.4c-1.171-3.2-4.687-6.956-5.4-10.376-.419-2.015-.619-6.415-.663-6.575-1.048-7.226-3.1-10.677-4.377-11.93s-2.989-1.637-3.077-2.724c-.364-4.493,1.423-8.8,2.733-12.991,1.561-5,2.706-10.119,4.315-15.1C41.642,13.358,45.315,2.158,48.091,3.09Z" transform="translate(0)" fill="#8991dc"/><path d="M5.575,39.736l.7-.856c9.608,3.01,8.537,9.222,20.637,15.514l-1.011.613C15.31,50.634,12.833,41.255,5.575,39.736ZM13.351,6.354l.769-.062C15.6,17.551,16.037,23.982,23.772,36.3l-.823.251C14.989,25.826,13.727,17.074,13.351,6.354ZM0,14.7l.688-.331C3.956,22.3,5.447,26.98,14.576,33.4l-.7.494C4.809,28.757,2.17,22.631,0,14.7Zm21.607,1.447C20,8.965,21.43,2.209,23.14,0h1.082c-1.754,5.566-2.131,8.537-1.754,16.142Z" transform="translate(7.56 8.259)" fill="rgba(0,0,0,0.2)"/></g></g><g transform="translate(0 187)"><g transform="translate(0 42)"><g transform="translate(55)"><path d="M27.623,0h77.255L115,124H0Z" fill="#c5cfd6"/><path d="M27.623,0h23.76L65.6,124H0Z" fill="rgba(0,0,0,0.1)"/></g></g><path d="M57.131,141.549c-1-12.65-2.861-56.444-1-76.715.785-8.557,1.633-16.7,2.465-23.927-17.858,32.116-47.08,79.1-47.08,79.1L0,114.743S13.566,70.049,22.247,51.638c9.91-21.017,19.2-39.015,23.112-45.355,6.151-9.971,16.86-6.492,22.518-.456C76.114.882,89.933,7.236,89.924,14.309,89.895,35.474,70.58,135.223,69.572,141.528c-.534,3.337-3.812,5.375-6.872,5.375C59.977,146.9,57.427,145.292,57.131,141.549Z" transform="translate(180.077 14.929)" fill="#b28b67"/><path d="M0,111.841,5.118,10.331c3.688-17.553,34.907-9.406,34.894,0-.029,21.355-12.857,95.127-12.866,101.489Z" transform="translate(219.152 8.029) rotate(20)" fill="#1f28cf"/><g transform="translate(189.086 100.429) rotate(30)"><path d="M4.474,5.033A2,2,0,0,0,1.908,6.381L0,13.106A64.242,64.242,0,0,0,.9,21H57.3s2.2-7.268-2.538-7.848-7.87-1.047-7.87-1.047L20.68.419a1,1,0,0,0-1.332.532L17.663,5.039s-4.385,2.046-7.127,2.046Z" transform="translate(1 19)" fill="#69a1ac"/></g><g transform="translate(232 126)"><path d="M4.474,5.033A2,2,0,0,0,1.908,6.381L0,13.106A64.242,64.242,0,0,0,.9,21H57.3s2.2-7.268-2.538-7.848-7.87-1.047-7.87-1.047L20.68.419a1,1,0,0,0-1.332.532L17.663,5.039s-4.385,2.046-7.127,2.046Z" transform="translate(1 19)" fill="#69a1ac"/></g><path d="M170.77,36.433c0,26.567-12.617,88.537-12.625,94.387L131,130.841S136.96,47.9,135.227,47s-71.051,6.921-91.84,6.921C13.408,53.925,1.006,35.02,0,0H59.386c12.092,1.294,75.162,14.015,98.586,18.388C168,20.261,170.77,29.115,170.77,36.433Z" transform="translate(102)" fill="#2b44ff"/></g><g transform="translate(12 82)"><path d="M0,131.11c0-14.2,11.673-28.48,12.046-45.75C12.4,68.921,15.473,19.112,28.3,2.287q.35-1.139.711-2.287L29.9.418c.139-.143.278-.282.419-.418L58.31,4.328c0,15.741,12.524,30.469,20.447,43.14,12.316,19.7,34.232,41.532,20.181,70.8-8.081,16.829-27.193,21.662-46.49,21.662C26.391,139.925,0,131.11,0,131.11Z" transform="translate(82.791)" fill="#c1dee2"/><path d="M26.484,72.77c-3.366,0-7.982-5.521-10.74-8.82-.443-.53-.826-.988-1.154-1.364C13.616,61.47,8.707,57.742,0,51.505c1.859-9.593,3.085-16.1,3.643-19.348C11.059,40.537,17,46.94,21.288,51.187s7.046,6.442,8.2,6.539c.194.016.393.025.589.025a10.085,10.085,0,0,0,4.6-1.314c.33-.171.635-.338.93-.5a5.238,5.238,0,0,1,1.935-.814.548.548,0,0,1,.446.194A9.475,9.475,0,0,1,38,60a19.308,19.308,0,0,1-2.2,5.707c-1.283,2.218-4.127,6.078-8.767,7.007A2.817,2.817,0,0,1,26.484,72.77Zm8.28-49.518c-1.893,0-6.68-1.508-10.9-3.433-2.449-1.118-8.146-3.979-8.146-6.4,0-2.116,2.949-3.55,5.8-4.938,2.411-1.173,4.689-2.28,4.689-3.663A5.514,5.514,0,0,0,24.8,1.659c-.425-.568-.761-1.016-.62-1.3C24.308.112,24.794,0,25.758,0c4.022,0,6.062,1.768,8.228,4.822.929,1.31,1.9,4.731,2.409,8.512.558,4.118.426,7.475-.351,8.979A1.452,1.452,0,0,1,34.764,23.252Z" transform="translate(145.863 59.282)" fill="#b28b67"/><path d="M38.357,109.282c-20.566-14.374-32.571-30.9-36.7-50.527A78.973,78.973,0,0,1,.037,44.779,100.619,100.619,0,0,1,.723,30.313,166.321,166.321,0,0,1,7.564,0,156.288,156.288,0,0,0,3.1,29.549a104.673,104.673,0,0,0,.281,13.966A87.731,87.731,0,0,0,5.64,56.992C10.295,75.52,21.226,91.8,39.059,106.768c-.417,1.5-.676,2.421-.7,2.507v.005Z" transform="translate(99 18.719)" fill="rgba(0,0,0,0.2)"/></g></g><g transform="translate(528 209.893)" opacity="0.5"><path d="M3.765,69.264C.595,67.83.669,66.238,1.964,65c-.784-1.724-.655-4.547-.824-5.9A139.713,139.713,0,0,1,0,42.095c-.019-11.215,0-22.864,3.1-33.72a2.755,2.755,0,0,1-1.989-2.5C1.132.192,18.372.332,27.22.474c1.847.03,3.328.06,4.211.036C37.707.347,43.987.325,50.265.358,51.637.365,53.17.271,54.756.179c3.209-.188,6.636-.377,9.4.266,8.045,1.868,7.536,15.659,7.7,22.327a350.044,350.044,0,0,1-.848,36.471c-.336,4.12-3.333,9.343-6.751,3.664C62.351,59.74,63.2,52.341,63.2,48.843c-.009-12.439,1.941-25.255.075-37.63-.611-4.056-.476-4.331-4.6-4.246-3.273.069-6.548.178-9.821.245-6.667.14-13.337.232-20,.476-2.531.093-11.626,1.683-18.72,1.676,0,.057.01.114.012.171.1,4.8-2.254,10.617-2.573,15.663-.77,12.135.148,24.555-.988,36.629-.034.367-.053.757-.075,1.149.213-.033.422-.056.622-.068,5.287-.336,10.643-.2,15.94-.32,3.377-.078,6.8-.075,10.231-.071a193.324,193.324,0,0,0,22.674-.857c2.191-.284,2.958,2.528,1.974,3.985-1.1,1.636-4.635,1.553-6.269,1.794A141.38,141.38,0,0,1,37.208,68.61c-5.073.224-10.149.393-15.225.534-2.946.082-8.3.934-12.733.934A14.165,14.165,0,0,1,3.765,69.264Z" transform="translate(56.624 0.302)" fill="#89c5cc"/><path d="M4.357,66.572a2.125,2.125,0,0,1,.458-1.333A8.964,8.964,0,0,1,2.772,61.62C1.061,56.083.9,50.108.772,44.368.5,32.1.635,19.805.561,7.53c-1.113-1.495-.452-3.2.938-4.4C5.251-.088,16.062.73,20.825.477,27.68.115,34.539.031,41.4.006,48.67-.031,55.948.1,63.211.324c2.7.082,21.433.554,13.058,5.1a8.748,8.748,0,0,1-1.609.658A26.531,26.531,0,0,1,75,11.3c-.355,6.532-.508,13.078-.8,19.613-.324,7.3-.631,14.591-.883,21.889-.134,3.858,1.187,12.83-1.867,15.615-2.058,1.878-3.464,1.5-4.411.226-5.248,1.524-15.424,1.248-21.881.971-2.534-.108-4.5-.216-5.36-.215-2.9,0-12.548.982-21.049.982C11.1,70.381,4.381,69.587,4.357,66.572Zm4.619-41.84C8.962,37.153,9.42,49.5,9.7,61.859q.014.607-.027,1.129c5.935-1.267,15.524-1.03,21.736-.792,2.514.1,4.475.192,5.418.189,6.092-.023,12.186.061,18.272.3.69.027,1.744,0,2.98-.035a56.293,56.293,0,0,1,7.223.151c-.033-.331-.055-.635-.068-.9-.332-6.57.03-13.209.242-19.779.213-6.622.539-13.239.793-19.859.132-3.405-.728-10.514.2-15.415-4.425-.084-9.065-.619-12.05-.619-7.007,0-14.009-.08-21.014.058A203.437,203.437,0,0,0,10.68,7.533c-.412.055-.907.161-1.454.289C10.37,12.606,8.981,20.3,8.976,24.732Z" transform="translate(153.803 1.546)" fill="#89c5cc"/><path d="M2.585.7C-1.92,3.329.51,13.856,2.071,17.5c2.566,5.987,7.771,10.671,13.388,13.779,11.354,6.281,27.72,4.612,36.306,15.5.089.113,3.057,3.051,3.732-.754.555-3.123-4.986-7.892-7.133-9.457-6.106-4.451-13.937-5.887-21-8.11-7.532-2.372-15.8-6.743-18.955-14.508C7.292,11.2,9.424-3.317,2.585.7" transform="translate(85.689 68.488)" fill="#c1dee2"/><path d="M49.91.145c-4.128,1.138-1.4,6.819-1.4,9.663A16.845,16.845,0,0,1,45.176,19.9c-5.546,7.181-16.4,8.257-24.546,10.316-5.911,1.5-20.055,4.7-20.608,12.7-.618,8.928,11.868-1.937,12.923-2.382C24.616,36.253,39.715,35.426,48.723,26a23.159,23.159,0,0,0,6.265-14.44c.2-3.017.23-12.868-5.078-11.418" transform="translate(141.347 74.101)" fill="#c1dee2"/><path d="M34,59.619h0a37.687,37.687,0,0,1-11.915-2.03,38.842,38.842,0,0,1-10.929-5.75,29.794,29.794,0,0,1-8.007-8.957A23.625,23.625,0,0,1,0,31.229a24.044,24.044,0,0,1,2.638-11.17,29.706,29.706,0,0,1,6.969-8.75A51,51,0,0,1,30.009.958,28.658,28.658,0,0,1,37.3,0,27.466,27.466,0,0,1,55.935,7.333,29.734,29.734,0,0,1,65.221,25.79a29.544,29.544,0,0,1-6.762,22.849,30.469,30.469,0,0,1-10.048,7.721,33.1,33.1,0,0,1-12.993,3.227C34.951,59.609,34.475,59.619,34,59.619ZM10.431,20.812c-3.5,6.044-3.693,12.113-.557,17.552a24.829,24.829,0,0,0,10.64,9.458,33.681,33.681,0,0,0,14.762,3.54,24.184,24.184,0,0,0,10.189-2.077A20.148,20.148,0,0,0,55.695,38.652,23.87,23.87,0,0,0,57,24.425a20.236,20.236,0,0,0-6.056-10.87A18.547,18.547,0,0,0,38.382,8.9a4.279,4.279,0,0,1,.973,2.985,2.1,2.1,0,0,1-1.078,1.393,2.474,2.474,0,0,1-1.241.39c-1.029,0-1.707-.951-2.363-1.872a4.25,4.25,0,0,0-1.953-1.836,2.814,2.814,0,0,0-.762-.1c-1.954,0-4.572,1.625-6.423,2.988A25.587,25.587,0,0,0,22.648,15.8c-2.667,2.97-6.319,7.038-9.251,7.038A3.428,3.428,0,0,1,10.431,20.812Z" transform="translate(105.957 122.209)" fill="#89c5cc"/><path d="M0,2.872c0,3.792,5.988,3.792,5.988,0C5.988-.877,0-1.037,0,2.872" transform="translate(128.613 145.036)" fill="#89c5cc"/><path d="M0,3.518c0,4.644,7.338,4.644,7.338,0C7.338-1.074,0-1.27,0,3.518" transform="translate(139.147 143.678)" fill="#89c5cc"/><path d="M1.271.338c-6,3.53,11.16,10.543,11.838,3.376.292-3.092-2.7-2.258-4.7-2.486C6.5,1.011,3.083-.716,1.271.338" transform="translate(130.338 157.68)" fill="#89c5cc"/><path d="M0,3.022c.261,9.015.136,18.026,1.845,26.916C2.173,31.626,2.4,37.75,3.733,39,7.015,42.09,7.069,36.176,7.2,33.91c.455-8.117-.4-16.487-.585-24.621-.041-1.751.423-5.377-.4-7.072C4.9-.474-.125-1.272,0,3.022" transform="translate(129.003 180.038)" fill="#c1dee2"/><path d="M87.746,1C74.59,15.765,56.474,14.678,38.224,15.971c-9.643.683-19.393,2.086-27.152,8.323A32.958,32.958,0,0,0,2.26,34.972c-.914,1.811-5.249,12.258,1.262,9.78C5.831,43.872,8.1,36.963,9.6,34.92a29.016,29.016,0,0,1,10.85-9.194c8.422-4.029,18.479-3.96,27.611-4.472,9.546-.534,19.792-1.033,28.567-5.184A43.257,43.257,0,0,0,87.948,8.543C89.135,7.42,91.68,5.515,91.87,3.8c.217-1.961-1.668-5.55-4.124-2.8" transform="translate(34.842 174.751)" fill="#c1dee2"/><path d="M46.2.909c-12.358.413-24.7.913-37.04,1.694C6.631,2.763-1.8,2.253.347,7.434c1.721,4.154,12,1.406,15.405,1.2,12.859-.763,25.771-1.029,38.6-2.186,2.883-.259,15.912-.156,10.532-5.264C62.327-1.242,49.735.788,46.2.909" transform="translate(9.977 220.161)" fill="#89c5cc"/><path d="M2.477,1.179c-3.9,5.116-2.106,17.55-1.811,23.7.285,5.96-.873,16.857,6.907,17.781-2.47-.324,1.875.15,2.582.188,1.58.085,3.166.112,4.748.129,3.654.04,7.309-.009,10.962-.082,8.275-.165,16.572-.406,24.837-.863,3.474-.193,22.321-.032,23.067-3.641.953-4.612-17.117-2-20.351-1.855-7.878.361-15.768.437-23.653.541-3.908.051-7.82.09-11.728.013-1.614-.031-8,.631-8.985-.445-.836-.917-.184-9.343-.2-10.632-.057-4.2-.053-8.413.1-12.613.1-2.828,1.63-8.207.384-10.864A4.3,4.3,0,0,0,2.477,1.179" transform="translate(0 225.852)" fill="#89c5cc"/><path d="M0,4.885c.226,9.359.3,18.907,2.506,28.06.736,3.046,1.766,9.327,4.827,10.9,3.212,1.655,5.985-.707,6.195-3.89.264-4-1.878-9.253-2.317-13.358-.513-4.79-.812-9.584-.987-14.4-.133-3.62.967-9.047-2.483-11.381C4.641-1.274-.1.837,0,4.885" transform="translate(66.106 222.384)" fill="#89c5cc"/><path d="M2.444,1.509C-1.4,5.338.318,17.459.8,22.378c.352,3.6,4.3,21.327,10.2,12.084,2.614-4.088-.707-14.9-.684-19.666.015-3.036,1.09-6.875.571-9.792C10.205,1.149,5.93-1.972,2.444,1.509" transform="translate(88.256 223.475)" fill="#89c5cc"/><path d="M5.454,45.627C2.51,45.505-.635,44.542.111,40.736c.661-3.376,4.059-3.4,6.828-3.684a238.19,238.19,0,0,1,25.078-1.12c17.618.061,35.221-.031,52.839-.123a3.815,3.815,0,0,1,1.966.757c-.919-1.118-.477-2.773-.649-4.389-.463-4.358-.762-8.643-1.588-13-.661-3.486-1.159-9.406-4.388-11.6-2.75-1.865-8.113-1.8-12.336-1.725-1.2.019-2.3.039-3.227.016A293.2,293.2,0,0,0,30.65,7.4c-5.14.468-10.344.823-15.427,1.746-2.83.515-11.133,4.67-13.393,2.113C-3.613,5.105,20.3,2.578,23.552,2.243,35.1,1.053,46.654.158,58.261.048c7.838-.061,21.253-.73,27.016,5.7,3.461,3.862,4.676,10.224,6.027,15.042,1.037,3.7,3.85,10.375,1.851,14.2-.9,1.731-2.361,3.2-4.571,2.593a4.155,4.155,0,0,1-1.237-.541,3.207,3.207,0,0,1,.671,3.5c-1.321,3.067-6.184,2.4-8.824,2.625-8.814.735-17.668,1.225-26.513,1.3-4.209.036-8.417,0-12.627-.032-4.338-.036-8.675-.071-13.012-.029-6.473.064-13.19,1.262-19.657,1.262Q6.416,45.665,5.454,45.627Z" transform="translate(93.759 219.582)" fill="#89c5cc"/><path d="M86.207,45.485h0c-2.131,0-4.326-3.625-5.778-6.023a21.093,21.093,0,0,0-1.231-1.9c-3.1-3.878-5.868-5.919-9.859-7.279-7.5-2.559-15.79-3.526-23.8-4.462-2.728-.319-5.549-.648-8.252-1.033-1.395-.2-2.816-.379-4.321-.569-7.244-.916-15.455-1.955-21.645-5.458C8.607,17.222.044,9.376,0,4.141A3.794,3.794,0,0,1,2.047.673,4.287,4.287,0,0,1,4.174,0C6.245,0,7.4,2.254,8.413,4.242c.325.635.631,1.235.951,1.732a16.914,16.914,0,0,0,10.379,7.5A156.165,156.165,0,0,0,39.83,17.424c1.731.262,3.519.533,5.269.814,1.433.23,2.921.454,4.36.671,7.935,1.2,16.139,2.433,23.31,5.6,1.49.658,5.34,3.675,8.96,7.4,2.48,2.553,6.668,7.33,6.852,10.647A2.68,2.68,0,0,1,87.2,45.208,1.951,1.951,0,0,1,86.207,45.485Z" transform="translate(159.959 169)" fill="#c1dee2"/><path d="M9.549,47c-3.013-.292-6.249-1.356-5.5-5.153C1.95,37.826.985,30.1.8,28.579A140.853,140.853,0,0,1,.043,8.9,4.31,4.31,0,0,1,6.954,5.579c3.6-1.508,9.692-1.734,12.966-2.065,5.379-.543,10.8-.745,16.2-1.068C48.714,1.693,61.295.335,73.914.055c3.775-.079,8.832-.42,11.853,2.367C89.2,5.6,89.889,13.469,90.919,17.711,92.038,22.317,93.375,27,93.843,31.73a26.686,26.686,0,0,1,.272,4.719,2.954,2.954,0,0,1,2.352,3.4c-.294,3.091-4.575,3.512-7.081,4-8.329,1.627-17.233,1.256-25.677,1.495-13.693.386-28.121,2.187-42.114,2.187C17.534,47.533,13.508,47.382,9.549,47Zm1.758-8.789c.388,0,.769,0,1.134,0q13.33-.233,26.644-.766c9.056-.347,18.112-.735,27.175-.839,3.157-.036,6.355.062,9.563.162,4.112.127,8.238.254,12.314.1-1.56-4.083-1.323-10.511-2.156-14.739-.826-4.2-1.14-9.177-2.827-13.121-1.9-4.436-3.552-3.409-8.5-3.074-5.087.345-10.169.831-15.25,1.248C48.231,8.1,37.05,8.678,25.87,9.455c-5.8.4-11.347,2.059-17.019,2.709-.086,2.024-.371,4.067-.339,5.544.1,4.357.525,8.683.9,13.022.153,1.765.882,4.81.991,7.48h.9Z" transform="translate(195.575 216.855)" fill="#89c5cc"/></g></g></svg>