<svg xmlns="http://www.w3.org/2000/svg" xmlns:xlink="http://www.w3.org/1999/xlink" width="1366" height="768" viewBox="0 0 1366 768"><defs><clipPath id="b"><rect width="1366" height="768"/></clipPath></defs><g id="a" clip-path="url(#b)"><g transform="translate(57.463 97.285)"><g transform="translate(229.44 0) rotate(51)"><path d="M0,43.559c0,32.909,26.6,59.846,59.089,59.846l1.483-59.126L18.707,0A59.3,59.3,0,0,0,0,43.559Z" transform="translate(0 14.772)" fill="#f2f2f2"/><path d="M40.779,59.089h59.671a59.129,59.129,0,0,0-16.24-40.381A60.143,60.143,0,0,0,40.779,0,60.992,60.992,0,0,0,0,16.081Z" transform="translate(19.7 0)" fill="#afb9c5"/><path d="M60.658,0A59.27,59.27,0,0,1,1.57,59.089L0,0Z" transform="translate(60.474 59.089)" fill="#c5cfd6"/><path d="M26,55.664,0,0,55.549,26.119C50.29,39.9,38.481,50.4,26,55.664Z" transform="translate(60.428 59.089) rotate(45)" fill="#afb9c5"/></g><g transform="translate(0 526.722)" opacity="0.6"><path d="M1230.537,50.143c17.945,22.412-417.252,37.03-791.836,26.828S-107.725,26.93,71.021,5.7,1212.592,27.731,1230.537,50.143Z" transform="translate(0 0)" fill="#dde3e9"/></g><g transform="translate(274.037 288.215) rotate(-90)"><rect width="159" height="302" rx="8" transform="translate(35 -44)" fill="#f2f2f2"/><circle cx="15" cy="15" r="15" transform="translate(99 209)" fill="#fff"/><g transform="translate(99 -28)"><circle cx="2" cy="2" r="2" fill="#fff"/><rect width="21" height="4" rx="2" transform="translate(9)" fill="#fff"/></g><g transform="translate(63 -14)"><g transform="translate(117.5 -1.5) rotate(90)"><rect width="210" height="54" rx="4" fill="#fff"/><g transform="translate(39 16.2)"><rect width="160.293" height="8.1" rx="3" fill="#dde3e9"/><rect width="107.594" height="8.1" rx="3" transform="translate(0 13.5)" fill="#dde3e9"/></g><circle cx="12" cy="12" r="12" transform="translate(9 15)" fill="#c5cfd6"/></g><g transform="translate(55.5 -1.5) rotate(90)"><path d="M4,0H205c2.209,0,4,2.814,4,6.286v22c0,3.471-1.791,6.286-4,6.286H4c-2.209,0-4-2.814-4-6.286v-22C0,2.814,1.791,0,4,0Z" fill="#fff"/><g transform="translate(39 9.723)"><rect width="155.187" height="4.862" rx="2.431" transform="translate(0 0)" fill="#dde3e9"/><rect width="104.167" height="4.862" rx="2.431" transform="translate(0 8.103)" fill="#dde3e9"/></g><circle cx="12" cy="12" r="12" transform="translate(9 6)" fill="#c5cfd6"/><rect width="209" height="30" rx="4" transform="translate(0 36)" fill="#fff"/><g transform="translate(39 43.678)"><rect width="155.187" height="4.862" rx="2.431" fill="#dde3e9"/><rect width="104.167" height="4.862" rx="2.431" transform="translate(0 8.103)" fill="#dde3e9"/></g><circle cx="12" cy="12" r="12" transform="translate(9 36)" fill="#c5cfd6"/></g></g></g><g transform="translate(501.537 99.715)"><rect width="159" height="302" rx="8" transform="translate(-87 91)" fill="#dde3e9"/><circle cx="15" cy="15" r="15" transform="translate(-23 344)" fill="#fff"/><g transform="translate(-23 107)"><circle cx="2" cy="2" r="2" fill="#fff"/><rect width="21" height="4" rx="2" transform="translate(9)" fill="#fff"/></g><g transform="translate(-73 119)"><rect width="131" height="54" rx="4" fill="#fff"/><g transform="translate(9 16.2)"><rect width="73" height="8.1" rx="3" fill="#dde3e9"/><rect width="49" height="8.1" rx="3" transform="translate(0 13.5)" fill="#dde3e9"/></g><g transform="translate(110 20)"><circle cx="7" cy="7" r="7" fill="#dde3e9"/><circle cx="3" cy="3" r="3" transform="translate(4 4)" fill="#f2f2f2"/></g><g transform="translate(0 62)"><rect width="131" height="42" rx="4" fill="#fff"/><g transform="translate(39 12.6)"><rect width="73" height="6.3" rx="3" fill="#dde3e9"/><rect width="49" height="6.3" rx="3" transform="translate(0 10.5)" fill="#dde3e9"/></g><circle cx="12" cy="12" r="12" transform="translate(9 9)" fill="#c5cfd6"/></g><g transform="translate(0 112)"><rect width="131" height="42" rx="4" fill="#fff"/><g transform="translate(9 12.6)"><rect width="73" height="6.3" rx="3" fill="#dde3e9"/><rect width="49" height="6.3" rx="3" transform="translate(0 10.5)" fill="#afb9c5"/></g><g transform="translate(110 14)"><circle cx="7" cy="7" r="7" fill="#dde3e9"/><circle cx="3" cy="3" r="3" transform="translate(4 4)" fill="#f2f2f2"/></g></g><g transform="translate(0 162)"><rect width="131" height="42" rx="4" fill="#fff"/><g transform="translate(39 12.6)"><rect width="73" height="6.3" rx="3" fill="#dde3e9"/><rect width="49" height="6.3" rx="3" transform="translate(0 10.5)" fill="#dde3e9"/></g><circle cx="12" cy="12" r="12" transform="translate(9 9)" fill="#c5cfd6"/></g></g></g><g transform="translate(604.537 114.715)"><rect width="335" height="346" rx="8" fill="#f2f2f2"/><rect width="70" height="81" rx="8" transform="translate(249 43)" fill="#fff"/><g transform="translate(259 58)"><circle cx="16" cy="16" r="16" transform="translate(9)" fill="#dde3e9"/><rect width="50" height="6" rx="3" transform="translate(0 36)" fill="#dde3e9"/><rect width="34" height="6" rx="3" transform="translate(8 46)" fill="#dde3e9"/></g><path d="M8,0H327a8,8,0,0,1,8,8V27a0,0,0,0,1,0,0H0a0,0,0,0,1,0,0V8A8,8,0,0,1,8,0Z" fill="#c5cfd6"/><g transform="translate(9 10)"><circle cx="4" cy="4" r="4" fill="#f2f2f2"/><circle cx="4" cy="4" r="4" transform="translate(12)" fill="#f2f2f2"/><circle cx="4" cy="4" r="4" transform="translate(24)" fill="#f2f2f2"/></g><g transform="translate(249 132)"><rect width="70" height="194" rx="8" fill="#fff"/><g transform="translate(18 18)"><rect width="34" height="26" rx="4" fill="#dde3e9"/><rect width="34" height="25" rx="4" transform="translate(0 34)" fill="#afb9c5"/><rect width="34" height="25" rx="4" transform="translate(0 67)" fill="#dde3e9"/><rect width="34" height="25" rx="4" transform="translate(0 133)" fill="#dde3e9"/><rect width="34" height="25" rx="4" transform="translate(0 100)" fill="#c5cfd6"/></g></g><g transform="translate(16 44)"><rect width="225" height="47" rx="4" fill="#fff"/><g transform="translate(9 14.1)"><rect width="167" height="7.05" rx="3" fill="#dde3e9"/><rect width="112.096" height="7.05" rx="3" transform="translate(0 11.75)" fill="#dde3e9"/></g><g transform="translate(193.954 16.5)"><circle cx="7" cy="7" r="7" fill="#dde3e9"/><circle cx="3" cy="3" r="3" transform="translate(4 4)" fill="#f2f2f2"/></g><g transform="translate(0 55)"><rect width="225" height="39" rx="4" fill="#fff"/><g transform="translate(9 11.7)"><rect width="167" height="5.85" rx="2.925" fill="#dde3e9"/><rect width="112.096" height="5.85" rx="2.925" transform="translate(0 9.75)" fill="#dde3e9"/></g><g transform="translate(193.954 12.5)"><circle cx="7" cy="7" r="7" fill="#dde3e9"/><circle cx="3" cy="3" r="3" transform="translate(4 4)" fill="#f2f2f2"/></g></g><g transform="translate(0 102)"><rect width="225" height="39" rx="4" fill="#fff"/><g transform="translate(9 11.7)"><rect width="167" height="5.85" rx="2.925" fill="#dde3e9"/><rect width="112.096" height="5.85" rx="2.925" transform="translate(0 9.75)" fill="#dde3e9"/></g><g transform="translate(193.954 12.5)"><circle cx="7" cy="7" r="7" fill="#dde3e9"/><circle cx="3" cy="3" r="3" transform="translate(4 4)" fill="#afb9c5"/></g></g><g transform="translate(0 243)"><rect width="225" height="39" rx="4" fill="#fff"/><g transform="translate(9 11.7)"><rect width="167" height="5.85" rx="2.925" fill="#dde3e9"/><rect width="112.096" height="5.85" rx="2.925" transform="translate(0 9.75)" fill="#dde3e9"/></g><g transform="translate(193.954 12.5)"><circle cx="7" cy="7" r="7" fill="#dde3e9"/><circle cx="3" cy="3" r="3" transform="translate(4 4)" fill="#f2f2f2"/></g></g><g transform="translate(0 196)"><rect width="225" height="39" rx="4" fill="#fff"/><g transform="translate(9 11.7)"><rect width="167" height="5.85" rx="2.925" fill="#dde3e9"/><rect width="112.096" height="5.85" rx="2.925" transform="translate(0 9.75)" fill="#dde3e9"/></g><g transform="translate(193.954 12.5)"><circle cx="7" cy="7" r="7" fill="#dde3e9"/><circle cx="3" cy="3" r="3" transform="translate(4 4)" fill="#f2f2f2"/></g></g><g transform="translate(0 149)"><rect width="225" height="39" rx="4" fill="#fff"/><g transform="translate(9 11.7)"><rect width="167" height="5.85" rx="2.925" fill="#dde3e9"/><rect width="112.096" height="5.85" rx="2.925" transform="translate(0 9.75)" fill="#dde3e9"/></g><g transform="translate(193.954 12.5)"><circle cx="7" cy="7" r="7" fill="#dde3e9"/><circle cx="3" cy="3" r="3" transform="translate(4 4)" fill="#f2f2f2"/></g></g></g></g><g transform="translate(310.537 288.715)"><path d="M9.938,35.736C28.6,67.052,50.345,97.374,63.4,131.613c-.526-4.036-1.084-8.067-1.708-12.093-3.313-21.341-7.43-42.526-11.757-63.685-2.2-10.773-4.534-21.507-6.924-32.241C41.727,17.829,40.457,12.061,39.145,6.3c-.318-1.4-.591-3.832-.989-6.3C50.845,41.637,63.081,83.3,72.031,125.942q1.761,8.394,2.993,16.758c.28-1.272.556-2.544.857-3.813A246.4,246.4,0,0,1,91.4,94.374a134.951,134.951,0,0,1,10.825-19.648c2.608-3.863,8.757-8.455,11.136-12.412-13.01,23.861-17.707,53.717-25.219,79.659-1.833,6.331-3.678,12.651-5.486,18.982,11.328-22.718,28.9-41.384,53.341-49.473-29.58,19.544-47.322,53.771-59.278,88.777-.039.415-.086.83-.127,1.246,3.518-6.677,7.95-12.716,13.956-16.946,12.855-9.055,27.116-6.417,39.586,1.35-9.787-6.221-27.474-.556-35.709,5.767-5.9,4.526-10.933,10.6-15.308,16.523-1.048,1.42-2.479,3.077-3.989,4.845A218.405,218.405,0,0,1,64.672,254c.807-3.889.223-10.108.447-13.007.024-.314.044-.628.068-.941q-1.114,4.449-2.152,8.784a120.22,120.22,0,0,0,2.7-17.061q.225-3.743.451-7.487-.074-7.1-.574-14.253c-1.17-4.629-2.48-8.994-3.56-12.625a163.194,163.194,0,0,0-16.646-37.36,147.491,147.491,0,0,0-22.966-29.116c-4.78-4.717-9.783-9.21-14.716-13.765-1.784-1.647-4.972-5.7-7.729-7.806,20.08,11.071,40.749,23.047,55.4,40.884q-2.576-9.892-5.556-19.468C39.831,98.454,27.191,64.953,9.938,35.736Z" transform="translate(-247 -21)" fill="#89c5cc"/><path d="M0,0C0,35.9,2.843,65,41,65S82,35.9,82,0" transform="translate(-220 200)" fill="#c5cfd6"/></g><g transform="translate(318.412 253.006) rotate(49)"><path d="M62.411,61.236A17.346,17.346,0,1,1,49.734,32.118V0C22.385,0,0,22.24,0,49.412S22.385,98.823,49.734,98.823a49.14,49.14,0,0,0,36.2-15.644Z" fill="#f2f2f2"/><path d="M0,0V32.118A17.294,17.294,0,0,1,17.294,49.412H49.412A49.563,49.563,0,0,0,0,0Z" transform="translate(49.412)" fill="#afb9c5"/><path d="M6.6,0A17.144,17.144,0,0,1,0,13.52L19.757,38.67A49,49,0,0,0,38.67,0Z" transform="translate(60.153 49.412)" fill="#c5cfd6"/></g><g transform="translate(1228.537 122.715)"><path d="M1.007.986C1,1,1,1.006.993,1.018c.006-.01.014-.05.014-.032" transform="translate(-281 358)" fill="#c5cfd6"/><path d="M1,1a.087.087,0,0,0,0,.01C1,1,1.014.971,1,1" transform="translate(-281 358)" fill="#c5cfd6"/><path d="M1.067.832c-.014.04-.032.078-.048.118.008-.02.016-.036.024-.056-.208.52-.076.182.024-.062" transform="translate(-281 358)" fill="#c5cfd6"/><path d="M1.022.953,1,1.009c-.058.112.024-.056.024-.056" transform="translate(-281 358)" fill="#c5cfd6"/><path d="M1,1H1V1Z" transform="translate(-281 358)" fill="#c5cfd6"/><path d="M1,1S1,1,1,1,1,1,1,1" transform="translate(-281 358)" fill="#c5cfd6"/><path d="M.99,1.016c-.012.024.056-.092,0,0" transform="translate(-281 358)" fill="#c5cfd6"/><path d="M1,1,1,1S1,1,1,1" transform="translate(-281 358)" fill="#c5cfd6"/><rect width="95" height="63" rx="4" transform="translate(-328 307)" fill="#dde3e9"/><g transform="translate(-320 325)"><path d="M28,0,0,45H56Z" fill="#afb9c5"/><path d="M24.5,0,0,33H49Z" transform="translate(31 12)" fill="#c5cfd6"/></g><circle cx="9" cy="9" r="9" transform="translate(-263 319)" fill="#fff"/></g><g transform="translate(1059.537 41.715) rotate(180)"><path d="M0,0c0,.01.008.02.014.032C.008.027,0-.013,0,0" transform="translate(71.007 17.018) rotate(180)" fill="#c5cfd6"/><path d="M.007.013a.087.087,0,0,1,0,.01c0-.01-.018-.04,0-.01" transform="translate(71.004 17.011) rotate(180)" fill="#c5cfd6"/><path d="M0,0C.014.04.032.078.048.118.04.1.032.082.024.062.232.582.1.244,0,0" transform="translate(71.067 17.168) rotate(180)" fill="#c5cfd6"/><path d="M0,0,.024.056C.082.168,0,0,0,0" transform="translate(71.022 17.047) rotate(180)" fill="#c5cfd6"/><path d="M0,0H0V0Z" transform="translate(71 17.001) rotate(180)" fill="#c5cfd6"/><path d="M0,0S0,0,0,0,0,0,0,0" transform="translate(71.001 17.002) rotate(180)" fill="#c5cfd6"/><path d="M.022.036c.012.024-.056-.092,0,0" transform="translate(71.012 17.02) rotate(180)" fill="#c5cfd6"/><path d="M0,0,0,0S0,0,0,0" transform="translate(71.002 17.002) rotate(180)" fill="#c5cfd6"/><rect width="142" height="94" rx="4" transform="translate(154 -30) rotate(180)" fill="#dde3e9"/><g transform="translate(23 -57)"><path d="M41.055,0,82.11,67H0Z" transform="translate(82.11 67) rotate(180)" fill="#afb9c5"/><path d="M36.295,0,72.59,49.054H0Z" transform="translate(119.68 49.054) rotate(180)" fill="#c5cfd6"/></g><circle cx="13.5" cy="13.5" r="13.5" transform="translate(136 -48) rotate(180)" fill="#fff"/></g></g><g transform="translate(-11 18)"><g transform="translate(-21 -38)"><path d="M-43.818,0C-51.3,0-57.949.972-64.838,3.943A93.43,93.43,0,0,0-81.467,13.6c-7.4,5.2-13.232,11.249-17.312,19.266-2.438,4.789-4.226,11.566-2.589,16.79,1.929,6.152,7.224,11.284,14.2,10.2,4.313-.67,8.267-3.525,11.545-6.212A43.659,43.659,0,0,0-65.972,42.27c4.228-7,6.713-14.919,10.3-22.237,1.7-3.473,3.351-6.971,5.393-10.271a16.569,16.569,0,0,1,3.619-4.468c.82-.65,4.278-1.774,2.956-3.233,19.39.255,36.568,15.147,40.291,33.58.347,1.718.618,3.45.9,5.179.181,1.092.108,5.117,1.084,5.814C.73,48.172-.174,43.5-.267,42.826q-.358-2.608-.76-5.211A43.366,43.366,0,0,0-13.685,12.683C-21.694,4.99-32.5,0-43.818,0" transform="matrix(0.978, 0.208, -0.208, 0.978, 1244.123, 549.259)" fill="#89c5cc"/><path d="M102.225,1.334A7.414,7.414,0,0,0,99.838.692,38.719,38.719,0,0,0,92.374,0,137.709,137.709,0,0,0,69.3,2.074c-4.8.83-10.61,3.622-15.388,2.106-8.324-2.642-16.738-2.512-24.635,1.26-7.221,3.449-12.7,10-15.9,17.078a43.407,43.407,0,0,0-2.995,7.652c-.237.542-.465,1.088-.67,1.642-.582,1.573-1.1,3.173-1.59,4.777-.207.684-.729,2.194-.11,2.486a45.46,45.46,0,0,0-2.6,5.652C3.286,50.378.962,56.578.215,62.568a27.912,27.912,0,0,0-.03,6.671c.127,1.1.074,3.307.819,4.142,1.58,1.772,2.392-.709,2.214-1.89C1.858,62.485,4.485,54.027,7.6,45.561a53.276,53.276,0,0,1,9.027-15.019,37.906,37.906,0,0,1,10.328-9,161.472,161.472,0,0,1,15.728-7.8c3.5-1.588,7.009-3.134,10.61-4.5a10.575,10.575,0,0,1,2.948-1.088c1.877-.007,4.537,1.379,6.351,1.894,5.964,1.7,12,3.867,18.168,4.733A23.43,23.43,0,0,0,92.113,13.4a10.628,10.628,0,0,0,1.787-.974,25.936,25.936,0,0,0,7.6-4.3,30.324,30.324,0,0,0,3.563-3.839,2.011,2.011,0,0,0,.47-1.264c.244-.128.406-.277.443-.451.269-1.286-2.184-1.31-3.754-1.233" transform="translate(1254.525 474.277) rotate(14)" fill="#89c5cc"/><path d="M85.98.66A47.063,47.063,0,0,0,75.329.033,66.182,66.182,0,0,0,26.489,23.2c-10.138,12-12.926,26.92-14.928,42-.2,1.5-.284,2.985-.4,4.486-.024.322-.06.609-.1.88A1.937,1.937,0,0,0,10.332,73,100.261,100.261,0,0,0,5.869,84.706C2.162,96.526-1.608,108.571.714,121a173.656,173.656,0,0,1,3.049-20.562c.079-.386.163-.769.252-1.151.009-.04.017-.081.027-.121a44.965,44.965,0,0,1,1.875-6.026c.008-.022.016-.043.024-.064.1-.259.208-.516.314-.774.219-.533.444-1.065.682-1.594q.121-.27.232-.546c1.112-2.726,1.582-5.8,2.578-8.618q.358-.962.749-1.916l.047-.112c.706-1.71,1.485-3.4,2.31-5.071a6.244,6.244,0,0,0,1.074-1.931,12.073,12.073,0,0,0,.891-1.722q.728-1.409,1.458-2.816l-.044.016q.734-1.35,1.467-2.689l.323-.589.524-.938c1.632-2.921,3.363-5.783,5.16-8.61.641-1.009,2.174-2.455,2.468-3.588.011-.042.013-.081.02-.122A64.29,64.29,0,0,1,39.967,36.924c-.651.7-2.034,3.091-2.4,3.564-1.119,1.447-2.334,2.795-3.554,4.158A88.517,88.517,0,0,0,27.8,52.274,144.959,144.959,0,0,0,18.519,67.51c-.027.031-.056.06-.082.091C17.017,69.352,16.123,72,15.1,74c4.046-1.874,8.521-3.1,12.674-4.759a104.134,104.134,0,0,0,12.059-5.676A134.574,134.574,0,0,0,55.25,53.743,61.078,61.078,0,0,0,69.7,40.477c4.912-5.934,9.414-11.919,12.2-19.124a57.426,57.426,0,0,0,3.082-10.967c.028-.163.064-.339.1-.523a35.925,35.925,0,0,0,1.726-3.958c.778-2.14,2.614-4.494-.83-5.246" transform="translate(1244.439 511.395) rotate(5)" fill="#69a1ac"/><path d="M2.02.66A47.063,47.063,0,0,1,12.671.033,66.182,66.182,0,0,1,61.511,23.2c10.138,12,12.926,26.92,14.928,42,.2,1.5.284,2.985.4,4.486.024.322.06.609.1.88A1.937,1.937,0,0,1,77.668,73a100.261,100.261,0,0,1,4.462,11.706c3.707,11.82,7.478,23.865,5.155,36.294a173.657,173.657,0,0,0-3.049-20.562c-.079-.386-.163-.769-.252-1.151-.009-.04-.017-.081-.027-.121a44.964,44.964,0,0,0-1.875-6.026c-.008-.022-.016-.043-.024-.064-.1-.259-.208-.516-.314-.774-.219-.533-.444-1.065-.682-1.594q-.121-.27-.232-.546c-1.112-2.726-1.582-5.8-2.578-8.618q-.358-.962-.749-1.916l-.047-.112c-.706-1.71-1.485-3.4-2.31-5.071a6.244,6.244,0,0,1-1.074-1.931,12.073,12.073,0,0,1-.891-1.722q-.728-1.409-1.458-2.816l.044.016q-.734-1.35-1.467-2.689l-.323-.589-.524-.938c-1.632-2.921-3.363-5.783-5.16-8.61-.641-1.009-2.174-2.455-2.468-3.588-.011-.042-.013-.081-.02-.122A64.29,64.29,0,0,0,48.033,36.924c.651.7,2.034,3.091,2.4,3.564,1.119,1.447,2.334,2.795,3.554,4.158A88.517,88.517,0,0,1,60.2,52.274,144.959,144.959,0,0,1,69.481,67.51c.027.031.056.06.082.091,1.42,1.751,2.314,4.4,3.337,6.4-4.046-1.874-8.521-3.1-12.674-4.759a104.134,104.134,0,0,1-12.059-5.676A134.574,134.574,0,0,1,32.75,53.743,61.078,61.078,0,0,1,18.3,40.477C13.385,34.543,8.883,28.558,6.1,21.353A57.426,57.426,0,0,1,3.017,10.386c-.028-.163-.064-.339-.1-.523A35.925,35.925,0,0,1,1.189,5.906C.412,3.766-1.425,1.412,2.02.66" transform="matrix(0.995, 0.105, -0.105, 0.995, 1161.565, 438.732)" fill="#69a1ac"/><path d="M127.986,3.376C124.041.7,118.8,0,114.076,0,95.64,0,78.311,6.84,63.341,17.032a118.671,118.671,0,0,0-22.019,20.1,58.867,58.867,0,0,0-9.434,14.041A48.375,48.375,0,0,0,28.46,61.991,111.159,111.159,0,0,0,26.515,75.8c-.128,1.82-1.185,11.477,1.841,11.641a4.177,4.177,0,0,0,0,.668c-6.57,10.274-10.63,22.314-14.394,33.729A229.732,229.732,0,0,0,5.87,152.063,329.391,329.391,0,0,0,.958,193.05C.791,196,.676,198.95.577,201.9q-.126,3.779-.251,7.557c-.092,2.823-.589,6.073-.14,8.88.391,2.444,2.506,2.074,2.6-.358.113-2.937.095-5.88.223-8.82q.256-5.852.538-11.7a273.592,273.592,0,0,1,15.515-79.376,185.077,185.077,0,0,1,13.474-29.74A207.372,207.372,0,0,1,49.084,64.173c5.762-7.38,11.752-14.59,18.812-20.843A144.678,144.678,0,0,1,86.4,29.722C94.631,24.5,102.843,19.4,111.755,15.391c4.633-2.084,9.353-3.95,14.021-5.95.84-.36,1.741-.709,2.549-1.126,2.7-1.39,1.808-3.483-.34-4.939" transform="matrix(0.995, -0.105, 0.105, 0.995, 1210.857, 420.397)" fill="#c1dee2"/><path d="M2.014,3.376C5.959.7,11.2,0,15.924,0,34.36,0,51.689,6.84,66.659,17.032a118.671,118.671,0,0,1,22.019,20.1,58.867,58.867,0,0,1,9.434,14.041,48.374,48.374,0,0,1,3.427,10.818A111.159,111.159,0,0,1,103.485,75.8c.128,1.82,1.185,11.477-1.841,11.641a4.177,4.177,0,0,1,0,.668c6.57,10.274,10.63,22.314,14.394,33.729a229.731,229.731,0,0,1,8.088,30.228,329.391,329.391,0,0,1,4.912,40.987c.167,2.949.282,5.9.381,8.854q.126,3.779.251,7.557c.092,2.823.589,6.073.14,8.88-.391,2.444-2.506,2.074-2.6-.358-.113-2.937-.095-5.88-.223-8.82q-.256-5.852-.538-11.7a273.591,273.591,0,0,0-15.515-79.376,185.076,185.076,0,0,0-13.474-29.74A207.373,207.373,0,0,0,80.916,64.173C75.155,56.792,69.164,49.583,62.1,43.33A144.678,144.678,0,0,0,43.6,29.722C35.369,24.5,27.157,19.4,18.245,15.391c-4.633-2.084-9.353-3.95-14.021-5.95-.84-.36-1.741-.709-2.549-1.126-2.7-1.39-1.808-3.483.34-4.939" transform="translate(1111 313)" fill="#c1dee2"/></g><path d="M0,0C0,35.9,2.843,65,41,65S82,35.9,82,0" transform="translate(1173 587)" fill="#c5cfd6"/></g><g transform="translate(350.921 438.588)"><rect width="12" height="51" rx="3.5" transform="translate(0.08 66.412)" fill="#dde3e9"/><rect width="12" height="84" rx="3.5" transform="translate(29.08 33.412)" fill="#dde3e9"/><rect width="12" height="101" rx="3.5" transform="translate(58.08 16.412)" fill="#dde3e9"/><rect width="12" height="84" rx="3.5" transform="translate(87.08 33.412)" fill="#dde3e9"/><rect width="12" height="117" rx="3.5" transform="translate(116.08 0.412)" fill="#c5cfd6"/></g><g transform="translate(151 309)"><g transform="translate(82)"><g transform="translate(54 31)"><path d="M0,73,8.262,34.49C3.655,29.081.536,22.452,1.057,15.026c1.5-21.4,31.292-16.692,37.086-5.891s5.107,38.2-2.382,40.129c-2.987.77-9.349-1.116-15.825-5.019L24,73Z" fill="#b28b67"/></g><path d="M10.418,46.308C7.406,32.906-1.175,23.771.135,17.782a10.2,10.2,0,0,1,6.986-7.45S10.057-1.543,26.056.23,51.819,8.648,47.6,23.268c-3.876,0-8.556-1.4-15.027,1-3.08,1.143-4.406,7.09-4.406,7.09H25.246s-4.257-7.057-8.4-5.187-1.881,9.087-1.881,9.087l-1.44,11.049Z" transform="translate(50 24)" fill="#191847"/></g><g transform="translate(0 187)"><g transform="translate(10 42)"><g transform="translate(55)"><path d="M27.623,0h77.255L115,124H0Z" fill="#c5cfd6"/><path d="M27.623,0h23.76L65.6,124H0Z" fill="rgba(0,0,0,0.1)"/></g></g><path d="M57.131,141.549c-1-12.65-2.861-56.444-1-76.715.785-8.557,1.633-16.7,2.465-23.927-17.858,32.116-47.08,79.1-47.08,79.1L0,114.744S13.566,70.05,22.247,51.638c9.91-21.017,19.2-39.015,23.112-45.355,6.151-9.971,16.86-6.492,22.518-.456C76.114.882,89.933,7.236,89.924,14.31,89.895,35.474,70.58,135.223,69.572,141.529c-.534,3.337-3.812,5.375-6.872,5.375C59.977,146.9,57.427,145.292,57.131,141.549Z" transform="translate(190.077 14.928)" fill="#b28b67"/><path d="M0,111.841,5.118,10.331c3.688-17.553,34.907-9.406,34.894,0-.029,21.355-12.857,95.127-12.866,101.489Z" transform="translate(229.152 8.029) rotate(20)" fill="#1f28cf"/><g transform="translate(199.086 100.429) rotate(30)"><path d="M4.474,5.033A2,2,0,0,0,1.908,6.381L0,13.106A64.242,64.242,0,0,0,.9,21H57.3s2.2-7.268-2.538-7.848-7.87-1.047-7.87-1.047L20.68.419a1,1,0,0,0-1.332.532L17.663,5.039s-4.385,2.046-7.127,2.046Z" transform="translate(1 19)" fill="#e4e4e4"/></g><g transform="translate(242 126)"><path d="M4.474,5.033A2,2,0,0,0,1.908,6.381L0,13.106A64.242,64.242,0,0,0,.9,21H57.3s2.2-7.268-2.538-7.848-7.87-1.047-7.87-1.047L20.68.419a1,1,0,0,0-1.332.532L17.663,5.039s-4.385,2.046-7.127,2.046Z" transform="translate(1 19)" fill="#e4e4e4"/></g><path d="M170.77,36.433c0,26.567-12.617,88.537-12.625,94.387L131,130.841S136.96,47.9,135.227,47s-71.051,6.921-91.84,6.921C13.408,53.925,1.006,35.02,0,0H59.386c12.092,1.294,75.162,14.015,98.586,18.388C168,20.261,170.77,29.115,170.77,36.433Z" transform="translate(112 0)" fill="#2b44ff"/></g><g transform="translate(101.929 60.776)"><path d="M31.587,120.921,0,107.823l7.052-17.43,31.9,23.423a85.86,85.86,0,0,1,21.685,8.714c1.371,1.249,3.029,3.779-2.659,3.342s-11.687-.642-12.471,1.3,2.656,4.259,1.07,6.876a.754.754,0,0,1-.692.373Q43.078,134.419,31.587,120.921ZM10.4,23.565,48.3,12.186A85.861,85.861,0,0,1,68.314.113c1.823-.343,4.841-.144,1.069,4.135s-7.546,8.948-6.469,10.742,5,.442,6.136,3.283q1.135,2.842-19.5,4.071L20.078,39.686Z" transform="translate(101.126 0)" fill="#b28b67"/><path d="M13.491,0C38.653,26.79,69.342,44.272,111.2,59.778L101.9,78.364C58.717,74.292,35.63,71.04,17.531,44.209,12.988,37.475,4.866,14.3,0,2.271Z" transform="matrix(0.966, 0.259, -0.259, 0.966, 45.6, 23.819)" fill="#db2721"/><path d="M0,114H77S50.837,34.208,50.27,4.472c-.019-1.011-1.886-2.792-2.712-2.558C38.5,4.472,28.172,0,28.172,0,9.917,29.358,3.6,65.5,0,114Z" transform="translate(10.071 21.224)" fill="#f2f2f2"/><path d="M1.421,147.606C-5.1,103.784,12.038,43.024,27.926,12.377A5.417,5.417,0,0,1,32.867,9H44.8l.016.047c4.019.033,8.494.193,13.375.353,21.921.722,52.027,1.443,85.805-9.4l4.078,20.373C116.857,40.448,85.252,56,57.557,53.791c12.025,51.585,11.471,93.815-15.079,93.815Z" transform="translate(0 12.224)" fill="#ff4133"/></g></g><g transform="translate(920.163 282)"><path d="M21.5,64.022A21.5,21.5,0,0,1,0,42.522v-21L32.686,36.776C30.179,18.982,17.662,25.279,19.117,0h29c4.583,4.479.091,33.031-3.356,45.733A21.5,21.5,0,0,1,23.5,64.022Z" transform="translate(145 64.022) rotate(180)" fill="#784931"/><g transform="translate(100 4)"><path d="M0,0,8.262,38.51C3.655,43.919.536,50.548,1.057,57.974c1.5,21.4,31.292,16.692,37.086,5.891s5.107-38.2-2.382-40.129c-2.987-.77-9.349,1.116-15.825,5.019L24,0Z" transform="translate(42 73) rotate(180)" fill="#d4a181"/></g><path d="M29.119,0h-29A52.085,52.085,0,0,0,.282,9.073a24.942,24.942,0,0,0,1.457,6.174,23.366,23.366,0,0,0,5.112,7.56c3.573,3.94,7.268,8.014,7.268,20.828.252.246.5.495.746.735.713.705,1.384,1.369,2.058,1.97l-.032.778a40.365,40.365,0,0,0,5.214,7.71,26.687,26.687,0,0,0,6.027,5.3A14.881,14.881,0,0,0,36,62.537c5.156,0,9.194-1.067,12.342-3.262a24,24,0,0,0,6-6.691l.007-.01a11.743,11.743,0,0,0-4.568-6.333,42.133,42.133,0,0,0-7.507-4.062,65.721,65.721,0,0,1-7.307-3.752A5.5,5.5,0,1,1,31.5,28.657c.083,0,.167,0,.25.006a110.727,110.727,0,0,0,.334-17.578C31.793,7.064,31.04,1.878,29.119,0Z" transform="translate(159.001 63.537) rotate(180)" fill="#784931"/><path d="M71.153,0,34.522,126.227,17.293,221H0L17.262,0Z" transform="translate(79.339 160)" fill="#d4a181"/><path d="M63.7,0c-2.556,65.574-1.548,101.34-.976,107.3s3.82,45.858,25.95,115.7H70.683c-29.308-67-39.539-106.9-42.9-115.7S14.494,62.734,0,0Z" transform="translate(103.259 160)" fill="#d4a181"/><path d="M75,0Q60.71,65.153,25.563,208H.27C-1.6,110.254,6.349,45.92,20.112,0Z" transform="translate(76.275 160)" fill="#e87613"/><path d="M67.7,0c-2.5,65.574,3.984,130.177,24.079,209.021H64.789C35.427,143.018,14.383,78.734,0,0Z" transform="translate(99.386 160)" fill="#ff9b21"/><path d="M60.11,18,59.171,2.856a1,1,0,0,0-.907-.934L37.284,0,1.3,13.357A2,2,0,0,0,.076,15.778L1.557,21H58.125Z" transform="translate(134.382 378)" fill="#191847"/><path d="M60.11,18,59.171,2.856a1,1,0,0,0-.907-.934L37.284,0,1.3,13.357A2,2,0,0,0,.076,15.778L1.557,21H58.125Z" transform="translate(40.382 378)" fill="#191847"/><path d="M1.227,2.162c-1.116.688-2.338,3.28.615,5.3C9.2,12.512,19.8,21.342,21.236,24.248c2.93,5.945,28.571,82.459,28.571,82.459l21.9-.083s-36.017-81.05-37.56-84.874C31.831,16.017,36.728,7.283,38.822,2.59c-3.3-1.477-4.834.409-6.512,2.293C30.52,6.894,28.564,8.9,24.125,6.837,18.445,4.194,13.749,0,8.15,0A12.99,12.99,0,0,0,1.227,2.162Zm172.61,113.684,39.483,5.386a86.09,86.09,0,0,0,21.8,8.923c1.867.054,4.837-.625.412-4.313s-8.913-7.768-8.124-9.736,4.9-1.236,5.585-4.263q.682-3.027-20.032-.984l-32.037-12.7Z" transform="translate(237.837 236.157) rotate(180)" fill="#d4a181"/><path d="M0,98.2l17.179.356c7.536-37.688,32.551-59.721,83.138-47.1l11.1-48.411C64.016-7.34,20.287,8.177,7.122,59.4,3.714,72.654.728,86.5,0,98.2Z" transform="matrix(-0.996, 0.087, -0.087, -0.996, 136.609, 157.827)" fill="#afb9c5"/><path d="M0,0Q17.855,95,75.374,147h1.7l.014-.016,25.977-5.949C103.066,96.355,117.3,67.849,124.6,35H54.442c-.988-11.35-1.6-23.019-1.912-35Z" transform="translate(213.598 202) rotate(180)" fill="#c5cfd6"/><path d="M14.259,0H0C2.142,24.6,5.918,45.99,11.544,65.4c-.77-12.956-1.03-24.666-.772-34.8C11.1,17.69,12.273,7.4,14.258,0Z" transform="translate(159.156 167) rotate(180)" fill="rgba(0,0,0,0.1)"/></g></g></svg>