<svg xmlns="http://www.w3.org/2000/svg" xmlns:xlink="http://www.w3.org/1999/xlink" width="1366" height="768" viewBox="0 0 1366 768"><defs><clipPath id="a"><path d="M35.395,8.306c.3-.874,2.36-3.583-1.305-6.164-.659-.464-1.747,0-2.69-.294C30.69,1.628,30.451.633,29.638.46c-.844-.18-1.763.636-2.716.564C26.337.98,25.436.065,24.828.016,23.742-.072,22.756.957,21.7,1.024c-.615.038-1.328-.956-1.938-1.008-1.485-.128-2.837.568-4.146.779-1.206.194-1.767,2.678-2.655,3.265C10.168,5.9,7.984,6.416,5.722,8.306c-2.689,2.247-3.2,3.919-4.318,5.417S-.4,20.5.252,23.877c.383,1.995,1.382,7.442,3.613,9.551,3.054,2.887,9.266,3.742,9.818,3.357C16.236,35,21.961,25.136,26.022,21.649,29.008,19.085,33.524,13.723,35.395,8.306Z" transform="translate(0 0)" fill="#ff9b21"/></clipPath><clipPath id="b"><path d="M30.989,6.362c-.109-.68.107-1.014-2.623-2.931S21.227-.746,16.787.238C11.025,1.515,8.737,5.323,6.515,7.174c-2,1.669-4.013,1.863-5.2,3.934s-1.825,8.028-.789,10.4c1.429,3.267,4.246,4.147,6.3,5.088,3.527,1.614,8.513-.091,8.634-.373.934-2.185,5.963-8.348,8.988-10.937C26.67,13.379,31.5,9.555,30.989,6.362Z" transform="translate(0 0)" fill="#5c63ab"/></clipPath><clipPath id="d"><rect width="1366" height="768"/></clipPath></defs><g id="c" clip-path="url(#d)"><g transform="translate(845 77)" opacity="0.32"><path d="M.879.813C-.4,2.086.1,6.608.073,8.282c-.041,2.605.121,5.188.339,7.784C.558,17.8,1.38,34.391,3.67,33.117c1.291-.718.482-5.516.479-7.034-.005-3.374-.146-6.74-.371-10.107a88.458,88.458,0,0,1-.22-9.346C3.588,5.866,4.3-2.617.879.813" transform="translate(0.706 1.377)" fill="#89c5cc"/><path d="M56.824.015C45.875.1,34.93.642,23.986.973c-5.266.159-10.529.362-15.79.654-1.793.1-5.637-.474-7.131.481C-2.249,4.228,3.1,4.723,4.523,4.672c21.658-.785,43.324-1.82,65-1.869,10.633-.024,21.261.279,31.9.211,4.065-.026,8.566-1.777,9.593,2.954,1.159,5.339-.173,11.284-.535,16.649a94.133,94.133,0,0,0,.006,10.667c.1,2.293-.166,4.876.239,7.126.39,2.166,1.948,3.465,3.375,1.039.853-1.45.428-5.031.485-6.711.076-2.263,0-4.524,0-6.787,0-5.523.779-11.025.676-16.547-.066-3.561-.255-10.016-4.747-10.872C105.57-.41,99.491.538,94.43.48,81.889.337,69.369-.083,56.824.015" transform="translate(0.264 0.131)" fill="#89c5cc"/><path d="M26.712.068q-6.193,0-12.386.093C10.785.22,5.219-.518,1.923.748c-2.256.867-2.855,3.386,0,4.057,3.114.732,7.807-.465,11.065-.522,16.338-.288,32.833-.664,49.147.369,15.287.968,30.869,1.906,46.179.885,1.288-.086,7.858-.347,4.86-2.81-1.749-1.437-8.837-.492-11.11-.561-8.017-.242-16.042-.3-24.056-.6-7.91-.3-15.784-1.189-23.7-1.41C45.12-.1,35.907.068,26.712.068" transform="translate(0.206 34.624)" fill="#89c5cc"/><path d="M13.584,22.607h0c-5.6,0-11.7-2.687-12.735-8.689a5.587,5.587,0,0,1-.038-1.065,4.759,4.759,0,0,0-.059-1.147,2.214,2.214,0,0,0-.358-.669A1.757,1.757,0,0,1,0,10.184C-.012,8.549.936,7.658,2.032,6.627A16.233,16.233,0,0,0,3.241,5.4C5.426,2.872,6.805,1.631,9.7.5A7.618,7.618,0,0,1,12.484,0a13.8,13.8,0,0,1,8.128,3.151A12.79,12.79,0,0,1,25.443,10,9.738,9.738,0,0,1,24.1,17.405a11.176,11.176,0,0,1-7.019,4.838A16.571,16.571,0,0,1,13.584,22.607ZM4.84,9.691h0a6.373,6.373,0,0,0,.615,6.094,10.1,10.1,0,0,0,8.208,3.8,9.515,9.515,0,0,0,5.459-1.6,6.11,6.11,0,0,0,2.47-3.193,6.3,6.3,0,0,0-.029-3.686,10.585,10.585,0,0,0-3.321-4.937,9.176,9.176,0,0,0-5.41-2.308,1.4,1.4,0,0,1-.772.379.665.665,0,0,1-.318-.1l-.007,0a.723.723,0,0,0-.346-.1.78.78,0,0,0-.236.04A9.462,9.462,0,0,0,8.4,5.719l-.2.151-.23.173a15.671,15.671,0,0,0-2.371,2.03s-.087.187-.192.418c-.2.45-.545,1.2-.563,1.209a.016.016,0,0,1,0-.009Z" transform="translate(9.955 7.342)" fill="#89c5cc"/><path d="M0,1.976c0,2.608,4.12,2.608,4.12,0C4.12-.6,0-.714,0,1.976" transform="translate(16.97 15.99)" fill="#89c5cc"/><path d="M0,1.57a1.639,1.639,0,0,0,3.274,0C3.274-.479,0-.567,0,1.57" transform="translate(22.125 15.868)" fill="#89c5cc"/><path d="M3.889.077C2.84.48,1.51-.356.65.195c-1.524.976,0,1.859.821,2.251C5.149,4.211,5.8-.657,3.889.077" transform="translate(19.25 21.636)" fill="#89c5cc"/><path d="M1.668,7.622a1.855,1.855,0,0,1-.489-.067C.309,7.317-.083,6.829.014,6.106.176,4.9,1.662,3.365,3,2.331A8.851,8.851,0,0,1,7.536.211a1.963,1.963,0,0,1,.275.018,7.592,7.592,0,0,1,3,1.39,7.376,7.376,0,0,0,3.111,1.407,4.842,4.842,0,0,0,.551.032,9.37,9.37,0,0,0,4.352-1.511A12.792,12.792,0,0,1,21.988.178,7.244,7.244,0,0,1,23.572,0a12.178,12.178,0,0,1,5.466,1.725l.034.017a12.064,12.064,0,0,0,5.352,1.707A7.007,7.007,0,0,0,36.861,3c.269-.1.563-.222.9-.379l.021-.008c.325-.154.652-.32.968-.48A9.619,9.619,0,0,1,42.334.869c.1-.007.206-.01.308-.01a8.857,8.857,0,0,1,4.649,1.873c.565.363,1.15.738,1.733,1.042a3.819,3.819,0,0,0,.862.279c.684.164,1.329.319,1.418,1.138a1.065,1.065,0,0,1-.191.862,1.176,1.176,0,0,1-.926.3,7.3,7.3,0,0,1-.8-.061c-.107-.012-.208-.024-.306-.033a7.131,7.131,0,0,1-3.163-1.426,7.083,7.083,0,0,0-3.045-1.393,3.285,3.285,0,0,0-.342-.017,10.345,10.345,0,0,0-4.072,1.357,13.188,13.188,0,0,1-3.078,1.207,8.1,8.1,0,0,1-1.48.139,11.057,11.057,0,0,1-5.119-1.509l-.535-.279a9.742,9.742,0,0,0-4.527-1.542,6.715,6.715,0,0,0-2.534.545c-.713.288-1.391.618-2.047.938A11.561,11.561,0,0,1,14.01,5.848a7.258,7.258,0,0,1-1.2-.1,9.194,9.194,0,0,1-2.5-1.06A7.336,7.336,0,0,0,7.292,3.553a2.022,2.022,0,0,0-.219.012c-.953.1-1.766,1.064-2.551,1.991C3.66,6.572,2.77,7.622,1.668,7.622Z" transform="translate(41.313 13.412)" fill="#89c5cc"/><path d="M63.54.043C52.287.147,41,.314,29.774,1.216,27.114,1.43-.051,3.994,0,4.179c.1.342,3.589.864,3.567.945Q3.214,4.248,1.953,4.4C27.717,4.4,53.4,2.092,79.2,2.507c6.482.1,12.989.06,19.466.265,1.617.051,5.624,1.21,6.894.48,3.333-1.917-2.722-2.138-3.725-2.218C89.136.018,76.271-.084,63.54.043" transform="translate(4.635 51.117)" fill="#69a1ac"/><path d="M.781.842C-.9,2.529.648,8.6.714,10.877c.1,3.3.017,6.618.306,9.906a67.005,67.005,0,0,0,1.828,11.4c.543,2.008,2.448,5.2,3.2,1.55.539-2.606-.28-6.063-.564-8.717A102.749,102.749,0,0,1,5,14.4c-.013-3.109-.073-6.232-.328-9.331C4.54,3.455,3.73-2.092.781.842" transform="translate(0.519 55.786)" fill="#69a1ac"/><path d="M39.322.068C31.336.2,23.333.393,15.361.892c-3.268.2-6.532.509-9.788.855-.664.07-8.017.369-4.732,3.082,1.483,1.225,7.583-.469,9.6-.645,3.389-.3,6.777-.49,10.175-.634,7.874-.334,15.773-.629,23.655-.493,14.4.25,28.7.361,43.1.04,2.046-.045,18.073.383,18.617-1.746.439-1.715-5.293-.928-6.338-.9-3.834.115-7.668.088-11.5.068C71.9.439,55.555-.207,39.322.068" transform="translate(4.304 87.462)" fill="#69a1ac"/><path d="M0,2C.255,9.108,1.466,16.21,1.853,23.342c.177,3.26.385,6.517.545,9.778.052,1.052-.372,3.587.872,4.192,1.706.83,1.936-.842,2.256-1.974.923-3.268.3-7.512.215-10.868-.081-3.25-.087-6.506-.326-9.75C5.168,11.4,4.5,8.153,4.191,4.85c-.131-1.4.327-3.721-1.156-4.588A2.033,2.033,0,0,0,0,2" transform="translate(107.572 51.784)" fill="#69a1ac"/><path d="M14.763,23.422h-.125a23.274,23.274,0,0,1-9.563-1.954,9.668,9.668,0,0,1-3.61-2.9A7.848,7.848,0,0,1,0,13.914,15.023,15.023,0,0,1,3.418,4.761,13.876,13.876,0,0,1,7.179,1.452,10.057,10.057,0,0,1,11.8.015C11.985,0,12.175,0,12.364,0a12.865,12.865,0,0,1,4.6.892A16.186,16.186,0,0,1,21.179,3.3a16.116,16.116,0,0,1,3.333,3.53,12.731,12.731,0,0,1,1.936,4.251A8.984,8.984,0,0,1,24.865,19a11.216,11.216,0,0,1-4.409,3.271,14.561,14.561,0,0,1-5.691,1.149h0ZM11.621,3.239a8.717,8.717,0,0,0-6.33,3.185,11.258,11.258,0,0,0-2.613,6.734,5.882,5.882,0,0,0,1.594,4.489,9.527,9.527,0,0,0,4.67,2.417,23.38,23.38,0,0,0,5.5.6l.374,0a9.771,9.771,0,0,0,7.631-3.343,6.211,6.211,0,0,0,.921-5.552A9.65,9.65,0,0,0,21.511,8.3a16.618,16.618,0,0,0-2.864-2.763,9.807,9.807,0,0,0-4.792-1.819,21.09,21.09,0,0,1-2.234-.477Z" transform="translate(10.675 60.263)" fill="#69a1ac"/><path d="M0,1.588a1.658,1.658,0,0,0,3.312,0C3.312-.485,0-.574,0,1.588" transform="translate(15.873 68.784)" fill="#69a1ac"/><path d="M0,1.6a1.672,1.672,0,0,0,3.339,0C3.339-.488,0-.578,0,1.6" transform="translate(22.821 67.852)" fill="#69a1ac"/><path d="M.383.279C-1.773,2.431,5.8,6.2,7.587,3.21,9.054.751,5.86,1.566,4.727,1.433,3.5,1.288,1.387-.723.383.279" transform="translate(18.608 73.955)" fill="#69a1ac"/><path d="M1.642,7.567h0A1.587,1.587,0,0,1,.449,7.142,2.156,2.156,0,0,1,0,5.525C.1,2.958,7.2.53,9.447.109A6.34,6.34,0,0,1,10.611,0a10.651,10.651,0,0,1,4.768,1.509l.021.01a10.731,10.731,0,0,0,4.838,1.52,6.663,6.663,0,0,0,1.45-.163,18.939,18.939,0,0,0,2.631-.868A13.669,13.669,0,0,1,27.95.982c.2-.018.4-.027.593-.027a6.289,6.289,0,0,1,3.624,1.279,13.46,13.46,0,0,0,2.042,1.1,3.738,3.738,0,0,0,1.472.292,8.381,8.381,0,0,0,1.069-.089l.024,0a8.939,8.939,0,0,1,1.143-.092c.109,0,.218,0,.323.01,1.083.069,1.769.433,1.881,1,.122.618-.475,1.331-1.559,1.861a5.165,5.165,0,0,1-2.29.586A6.974,6.974,0,0,1,32.7,5.582,8.686,8.686,0,0,0,29.17,4.154a5.352,5.352,0,0,0-.571-.03A12.384,12.384,0,0,0,24,5.4l-.074.031a12.865,12.865,0,0,1-4.818,1.3c-.089,0-.179,0-.267-.006a11.521,11.521,0,0,1-4.372-1.279A9.335,9.335,0,0,0,10.6,4.329a5.857,5.857,0,0,0-2.235.463c-.269.109-.7.346-1.251.646C5.562,6.286,3.216,7.567,1.642,7.567Z" transform="translate(41.656 65.882)" fill="#69a1ac"/><path d="M5.394,10.083h0A4.874,4.874,0,0,1,2.055,8.546a7.064,7.064,0,0,1-1.93-3.44,4.56,4.56,0,0,1,.2-2.786A4.145,4.145,0,0,1,2.524.2,2.486,2.486,0,0,1,3.56,0,8.255,8.255,0,0,1,8.231,2.022,4.4,4.4,0,0,1,9.6,5.387,5.016,5.016,0,0,1,7.9,9.106,3.831,3.831,0,0,1,5.394,10.083ZM3.815,3.158a2.09,2.09,0,0,0-.2,2.221c.334.844.934,1.39,1.527,1.39a1.023,1.023,0,0,0,.221-.024c.617-.137.959-.382,1.015-.729C6.564,4.9,3.843,3.174,3.815,3.158Z" transform="translate(90.597 64.907)" fill="#69a1ac"/><path d="M30.622.026c-7.8,0-15.665-.162-23.453.3C5.859.4.866.156.191,1.526c-1.235,2.506,3.9,1.262,4.648,1.187C20.345,1.16,36.543,2.053,52.1,2.5c12.724.362,25.379.586,38.088,1.242Q95.2,4,100.2,4.3c1.088.066,3.826.787,4.056-.951.212-1.608-3.2-1.245-4.057-1.29Q90.025,1.525,79.853.948C63.525.027,46.977.023,30.622.026" transform="translate(3.833 105.266)" fill="#89c5cc"/><path d="M1.127.8C-.33,2.249.353,7.778.312,9.606.241,12.8.09,16,.023,19.191c-.07,3.34.027,6.695.225,10.03.083,1.4,1.232,8.167,3.041,4.295C4.1,31.785,3.27,26.964,3.282,25c.022-3.569.214-7.123.392-10.686.153-3.064.158-6.13.292-9.195C4.009,4.146,4.124-2.205,1.127.8" transform="translate(2.647 107.278)" fill="#89c5cc"/><path d="M106.922.007C99.332.784,91.621.417,84,.991c-6.566.5-13.125.7-19.708.837-14.906.315-29.836.622-44.7,1.864-3.387.283-6.77.583-10.166.735C7.732,4.5.605,3.73.074,5.52c-.9,3.049,6.718,1.843,8.362,1.795,3.615-.1,7.213-.366,10.818-.64,15.154-1.155,30.366-1.5,45.553-1.98,8.26-.261,16.461-.865,24.7-1.415,4.108-.274,8.226-.283,12.334-.548,1.075-.069,4.879.068,5.652-.8.531-.594.665-2.044-.574-1.928" transform="translate(2.484 136.622)" fill="#89c5cc"/><path d="M0,2.223C.262,9.5.673,16.773.919,24.051c.074,2.189-.587,6.111.632,8.041,1.96,3.1,3.489-.181,3.848-2.115,1.133-6.1-.085-12.846-.4-18.987-.12-2.343.607-7.557-.525-9.654-1.079-2-4.567-1.8-4.47.887" transform="translate(106.831 106.375)" fill="#89c5cc"/><path d="M5.7,12.8a6.1,6.1,0,0,1-1.981-.363,5.425,5.425,0,0,1-2.192-1.481A6.052,6.052,0,0,1,.193,8.673a4.558,4.558,0,0,1,.458-3.56A6.662,6.662,0,0,0,1.31,3a3.708,3.708,0,0,0-.066-.761A2.428,2.428,0,0,1,1.358.546C1.619.2,2.253.035,3.3.035c.384,0,.757.021,1.086.04.168.009.327.018.457.022A4.715,4.715,0,0,1,5.771,0,3.972,3.972,0,0,1,9.188,2a8.36,8.36,0,0,1,1.186,4.4A7.41,7.41,0,0,1,8.6,11.607,3.95,3.95,0,0,1,5.7,12.8ZM5.654,2.611h0C3.9,3.457,2.419,6.656,2.867,8.616a2,2,0,0,0,2.19,1.62,4.612,4.612,0,0,0,.647-.049A2.36,2.36,0,0,0,7.364,9.123a4.159,4.159,0,0,0,.629-2.057A5.745,5.745,0,0,0,7.47,4.291,2.992,2.992,0,0,0,5.654,2.611Z" transform="translate(88.438 116.353)" fill="#89c5cc"/><path d="M11.377,23.19h0a11.312,11.312,0,0,1-9.466-5.207,9.549,9.549,0,0,1-.227-9.6,1.112,1.112,0,0,1-.668.288c-.59,0-.877-.788-1-1.258C-.167,6.681,1,5.39,1.769,4.536c.177-.2.33-.366.435-.495C3.869,2,5.828.1,8.86.005,8.966,0,9.073,0,9.179,0a11.046,11.046,0,0,1,6.974,2.659,15.076,15.076,0,0,1,4.5,6.281,11.959,11.959,0,0,1,.707,6.157,9.067,9.067,0,0,1-3.039,5.436A10.4,10.4,0,0,1,11.377,23.19ZM8.662,5.323A2.592,2.592,0,0,0,7.92,5.4,5.994,5.994,0,0,0,5.064,7.655a10.269,10.269,0,0,0-1.617,3.315,7.707,7.707,0,0,0,.587,5.975,7.567,7.567,0,0,0,4.818,3.4,9.847,9.847,0,0,0,2.477.322,7.879,7.879,0,0,0,4.393-1.248,6.634,6.634,0,0,0,2.709-3.793,8.445,8.445,0,0,0-1.1-7.246,14.118,14.118,0,0,0-5.834-4.735q.026.219.051.439t.051.439c-.2.734-.965.832-1.685.832-.213,0-.438-.01-.636-.018h-.02C9.047,5.331,8.851,5.323,8.662,5.323Zm.164-2.565A5.454,5.454,0,0,0,5.482,4.02,6.792,6.792,0,0,1,8.826,2.757Z" transform="translate(9.649 109.406)" fill="#89c5cc"/><path d="M0,1.048a1.085,1.085,0,0,0,2.169,0A1.085,1.085,0,0,0,0,1.048" transform="translate(15.819 118.111)" fill="#89c5cc"/><path d="M0,1.065a1.1,1.1,0,0,0,2.2,0,1.1,1.1,0,0,0-2.2,0" transform="translate(19.521 118.332)" fill="#89c5cc"/><path d="M5.822,0C4.791.088,1.016-.262.354.641-.753,2.15,1.014,2.2,1.881,2.366c.782.147,4.18.064,4.659-.63.423-.613.324-1.82-.719-1.731" transform="translate(15.379 124.379)" fill="#89c5cc"/><path d="M1.4,7.547h0C.851,7.547.431,7.173.113,6.4-.554,4.792,1.923,2.688,2.737,2A5.248,5.248,0,0,1,6.263.524,7,7,0,0,1,8.378.9c.6.191,1.1.406,1.59.613a6.507,6.507,0,0,0,2.678.714,5.463,5.463,0,0,0,1.284-.163,18.662,18.662,0,0,0,2.64-.923A12.881,12.881,0,0,1,20.443.018C20.6.006,20.769,0,20.933,0a12.7,12.7,0,0,1,4.326,1.032,19.143,19.143,0,0,0,2.873.885,9.869,9.869,0,0,0,1.917.193,12.546,12.546,0,0,0,4.486-.978A11.75,11.75,0,0,1,38.766.16a9.54,9.54,0,0,1,2.922.5c.133.042.391.115.719.207,1.674.471,5.158,1.451,5.324,2.049a1.262,1.262,0,0,1-.079,1.116,1.274,1.274,0,0,1-1.064.377,10.642,10.642,0,0,1-2.98-.681l-.005,0-.155-.053c-.4-.135-.788-.274-1.161-.409a11.689,11.689,0,0,0-4.034-.951,6.763,6.763,0,0,0-1.877.27c-.71.2-1.371.421-2.012.632A16,16,0,0,1,29.194,4.3a10.855,10.855,0,0,1-1.437-.1,16.407,16.407,0,0,1-2.774-.714,12.256,12.256,0,0,0-3.674-.776h-.044a11.557,11.557,0,0,0-4.416,1.234,16.892,16.892,0,0,1-3.022,1.076,4.9,4.9,0,0,1-1.035.11A9.115,9.115,0,0,1,9.864,4.5l-.076-.026a8.473,8.473,0,0,0-2.694-.606,3.868,3.868,0,0,0-.654.055A5.67,5.67,0,0,0,4.422,5.481C3.434,6.449,2.313,7.547,1.4,7.547Z" transform="translate(31.97 119.408)" fill="#89c5cc"/></g><g transform="translate(337 69.427)" opacity="0.25"><path d="M3.121,61.263h0a10.879,10.879,0,0,1-1.254-.068c-.868-.1-1.361-.288-1.55-.588-.206-.328-.055-.768.136-1.325a7.983,7.983,0,0,0,.292-1A16.4,16.4,0,0,0,.556,53.2C.426,52.243.3,51.342.272,50.538c-.449-11.09-.255-22.2-.038-31.749.052-2.3.117-4.635.18-6.895q.021-.753.042-1.506c.005-.187.012-.377.018-.569A21.343,21.343,0,0,0,.437,6.827a2.288,2.288,0,0,0-.2-.682c-.156-.367-.269-.632.2-1.244.612-.8,2.2-.9,3.51-.9.417,0,.837.011,1.266.024l.087,0c.378.011.735.022,1.053.022.278,0,.5-.008.679-.026,2.556-.247,4.927-.426,7.249-.548C21.588,3.091,29,2.6,36.174,2.118,51.762,1.077,67.881,0,83.812,0h1.415a38.164,38.164,0,0,1,8.428.663,13.412,13.412,0,0,0,1.752.322A2.255,2.255,0,0,0,95.644,1c.109,0,.215-.006.318-.012h.006c.1-.006.2-.011.3-.011a1.588,1.588,0,0,1,.634.115,2.4,2.4,0,0,1,1.4,1.786,10.012,10.012,0,0,1-.256,3.974c-.132.706-.257,1.373-.3,1.951-.2,2.435-.287,5.083-.28,8.1q0,.472,0,.944a109.548,109.548,0,0,0,.6,13.692c.145,1.129.307,2.271.463,3.375.423,2.987.861,6.073,1.006,9.168.049,1.045.088,2.108.125,3.135v.008c.053,1.463.107,2.976.194,4.465.015.256.014.521.013.8A6.575,6.575,0,0,0,100,54.108a1.213,1.213,0,0,0,.441.63.724.724,0,0,1,.264.333c.184.741.246,1.235.016,1.566-.212.305-.649.472-1.489.709a39.268,39.268,0,0,1-10.445,1.049c-.71,0-1.407-.005-2.08-.01h-.2c-.621,0-1.207-.008-1.8-.008h-.1c-11.984.006-22.784.036-33.613.331-3.289.09-6.641.142-9.883.192-7.709.12-15.679.243-23.471.885-1.831.151-3.69.332-5.489.507-.705.069-1.431.139-2.145.207-.778.074-1.6.194-2.46.322A31.328,31.328,0,0,1,3.121,61.263Zm32.5-41.282a15.707,15.707,0,0,1,8.056,2.66,58.93,58.93,0,0,1,6.976,5.218l.341.283c.79.655,1.584,1.326,2.352,1.975,1.739,1.47,3.538,2.99,5.378,4.4l.361.277.062.048c1.558,1.2,3.169,2.434,4.842,3.514a4.138,4.138,0,0,0,2.176.853,5.455,5.455,0,0,0,2.773-1.267c.41-.273.82-.55,1.217-.818a45.3,45.3,0,0,1,5.032-3.09,15.471,15.471,0,0,1,5.681-1.673c.388-.032.789-.048,1.192-.048,2.543,0,6.744.66,12.316,3.8A100.868,100.868,0,0,1,92.929,10.01c.1-1.5.266-3,.429-4.4.016-.135.063-.348.118-.593a3.821,3.821,0,0,0,.163-1.678c-.308-.607-1.423-.684-2.361-.684-.251,0-.5.006-.766.012h-.04c-.235.006-.455.011-.654.011-.088,0-.165,0-.236,0-1.15-.036-2.337-.053-3.629-.053-2.924,0-5.9.092-8.776.182-1.308.041-2.658.083-3.984.115-11.833.291-24.22.948-36.818,1.953-4.683.374-9.45.642-14.06.9-5.381.3-10.944.617-16.4,1.1-2.031.179-2.032.351-2.045,1.992,0,.193,0,.411-.008.65-.012.553-.027,1.115-.04,1.658v0l-.008.331c-.073,2.849-.152,5.886-.255,8.954-.129,3.816-.334,7.691-.532,11.439-.115,2.168-.233,4.408-.336,6.612,3.07-1.879,6.04-4.021,8.912-6.094,2.768-2,5.629-4.062,8.582-5.892,4.255-2.637,8.454-5.1,13.03-6.252A9.871,9.871,0,0,1,35.619,19.98Z" transform="translate(0.128 0.301)" fill="#69a1ac"/><path d="M.044,1.388c0,1.686-.265,4.173.512,5.76C1.542,9.161,2.775,8.531,3.1,6.64a17.173,17.173,0,0,0-.166-5.252C2.443.029.044-.9.044,1.388" transform="translate(71.026 10.43)" fill="#89c5cc"/><path d="M7.816.012C6.234.068,1.625-.312.555.96-1.282,3.143,1.915,3.529,3.288,3.407c1.589-.141,6.5.2,7.561-1.07C12.628.206,9.06-.033,7.816.012" transform="translate(66.082 12.456)" fill="#89c5cc"/><path d="M9.439,16.114h0a10.065,10.065,0,0,1-5.457-1.747A9.032,9.032,0,0,1,.4,10.076a7.219,7.219,0,0,1,.647-6.1A8.17,8.17,0,0,1,3.308,1.48,7.487,7.487,0,0,1,6.468.147,10.719,10.719,0,0,1,8.243,0a9.818,9.818,0,0,1,4.924,1.257A7.128,7.128,0,0,1,16.4,5.112a8.054,8.054,0,0,1,.4,3.1,9.666,9.666,0,0,1-.723,3.137,8.731,8.731,0,0,1-1.724,2.673,6.69,6.69,0,0,1-2.6,1.709A6.947,6.947,0,0,1,9.439,16.114ZM8.83,3.421a7.529,7.529,0,0,0-3.3.816A5,5,0,0,0,3.153,6.559a3.13,3.13,0,0,0,0,2.561A7.99,7.99,0,0,0,7.559,12.8a5.429,5.429,0,0,0,1.891.368,3.842,3.842,0,0,0,2.932-1.3,5.113,5.113,0,0,0,1.235-2.975A4.92,4.92,0,0,0,9.349,3.445C9.182,3.429,9.008,3.421,8.83,3.421Z" transform="translate(3.144 65.331)" fill="#89c5cc"/><path d="M28.282.014C26.55.158,25.053,1.371,23.31,1.585A10.789,10.789,0,0,1,18.8.783a9.843,9.843,0,0,0-5.42-.3c-1.44.366-2.861,1.346-4.357,1.464-2.944.232-6.365-3.126-8.663.672-1.1,1.821.5,2.994,2.146,2.145,1.718-.885.875-1.2,3.006-.679a8.146,8.146,0,0,0,5,.062c1.614-.553,3.03-1.566,4.783-1.68,1.717-.111,3.211.671,4.852,1.008a10.634,10.634,0,0,0,5.717-.532c1.819-.6,2.545-.931,4.38-.394,1.162.34,3.7,1.42,4.833.55,1.956-1.5-.663-1.725-1.694-1.939C31.723.82,30-.127,28.282.014" transform="translate(23.644 70.003)" fill="#89c5cc"/><path d="M6.643,12.348h0a6.361,6.361,0,0,1-4.5-1.824A7.051,7.051,0,0,1,.061,6.434,5.683,5.683,0,0,1,.814,2.613,6.123,6.123,0,0,1,4.49.041,1.3,1.3,0,0,1,4.835,0,10.116,10.116,0,0,1,8.768,1.469,6.605,6.605,0,0,1,11.393,4.59a6.616,6.616,0,0,1,.417,2.761,6.085,6.085,0,0,1-.755,2.634,4.43,4.43,0,0,1-3.194,2.259A7.343,7.343,0,0,1,6.643,12.348ZM4.845,3.81A1.736,1.736,0,0,0,3.473,5.847,3.659,3.659,0,0,0,4.606,7.816a3.131,3.131,0,0,0,2.051.929l.1,0c1-.049,1.549-.509,1.555-1.3A3.747,3.747,0,0,0,7.218,5.135,3.746,3.746,0,0,0,4.845,3.81Z" transform="translate(85.015 64.84)" fill="#89c5cc"/><path d="M.708,51.344c-.565-1.363.22-1.99,1.369-2.276a15.164,15.164,0,0,1-.121-3.023c-.062-1.738-.084-3.476-.151-5.214-.159-4.14-.265-8.3-.584-12.433C.916,24.45.146,20.622.124,16.645.109,13.954-.638,7.138,1.718,5.311,5.767,2.948,4.166,11.284,4.1,12.727a86.065,86.065,0,0,0,.509,12.812c.4,3.956-.06,7.894-.214,11.85-.082,2.1-.126,4.2-.284,6.295a37.037,37.037,0,0,1-.316,5.169c.521-.022,1.027-.018,1.451-.013.294,0,.548.006.74,0,3.28-.1,6.561-.186,9.84-.31,12.616-.474,25.238-.26,37.852-.859,11.93-.567,23.9-.687,35.843-.833a1.21,1.21,0,0,1,.841,2.03c-.656.824-3.7.644-4.644.72-3.363.27-6.719.392-10.092.424-7.1.067-14.179.372-21.27.776-12.6.718-25.217.659-37.823,1.172-3.06.124-6.12.217-9.181.3-.819.022-2.31.282-3.686.282C2.329,52.541,1.1,52.295.708,51.344ZM91.841,40.268q-.4-6.893-1.015-13.781C90.154,19.076,89.579,11.84,89.585,4.4a1.677,1.677,0,0,1,3.06-.92c.9,1.149.32,4.628.342,6,.072,4.53.5,9.033.907,13.543.4,4.472.689,8.946,1,13.425.144,2.07,1.735,10.332-.577,11.538a1.539,1.539,0,0,1-.706.2C91.46,48.186,91.916,41.569,91.841,40.268ZM1.81,4.715C1.054,4.406.442,3.974.858,3.058c.342-.753,1.558-.687,2.481-.62.286.021.543.041.739.038,2.976-.058,5.946-.225,8.917-.407,6.746-.413,13.477-.9,20.237-1.011C46.114.838,58.978.129,71.865.009c3.817-.035,7.613.032,11.424.25,1.69.1,3.38.19,5.072.262.311.013.75-.011,1.231-.034A6.889,6.889,0,0,1,92.428.7c3.364,1.78-3.49,1.975-4.323,1.961-3.5-.059-6.987-.331-10.484-.417-12.86-.316-25.817.467-38.665.993-6.181.254-12.358.29-18.537.637-3.377.19-6.753.406-10.13.585-1.557.082-3.115.162-4.674.2-.662.017-1.8.211-2.73.211A2.978,2.978,0,0,1,1.81,4.715Z" transform="translate(1.453 87.856)" fill="#69a1ac"/><path d="M1.465,29.663C.643,29.645.09,29.469,0,28.473c-.109-1.274,1.942-1.8,2.77-2.211q4.261-2.131,8.567-4.173c5.694-2.716,11.441-5.323,17.209-7.879l.1-.044q-4.8-1.624-9.622-3.174C17.191,10.4,4.31,7.222,4.779,5.515c.528-1.913,11.937,2.6,13.692,3.157q6.48,2.065,12.914,4.273C41.67,8.324,52.064,3.4,62.792.039c.676-.211,1.1.485.949,1.07-.205.782-2.611,1.416-3.279,1.714-2.642,1.18-5.3,2.331-7.94,3.511C46.766,8.905,41,11.453,35.245,14.026l-.339.151q6.07,2.157,12.076,4.488c2.144.828,4.276,1.683,6.414,2.523,1.071.421,5.526,1.477,5.782,2.546.361,1.51-4.387-.345-5.142-.586-2.134-.682-4.241-1.446-6.348-2.2-4.715-1.7-9.41-3.451-14.144-5.1l-1.329-.461q-7.537,3.385-15.037,6.85-4.02,1.862-8,3.8c-1.954.947-5.477,3.631-7.652,3.631Z" transform="translate(17.156 99.349)" fill="#89c5cc"/><path d="M7.871,14.872a7.634,7.634,0,0,1-4.833-1.539A5.132,5.132,0,0,1,1.31,10.805a5.794,5.794,0,0,1-.123-2.389,1.581,1.581,0,0,1-.232.018,1.048,1.048,0,0,1-.943-.547c-.181-2.236,1.867-4.193,3.1-5.16A13.28,13.28,0,0,1,8.852.046,5.845,5.845,0,0,1,9.582,0a6.356,6.356,0,0,1,4.6,2.1A7.628,7.628,0,0,1,16.3,7.625a7.247,7.247,0,0,1-2.218,4.942A8.506,8.506,0,0,1,9.1,14.8,10.807,10.807,0,0,1,7.871,14.872ZM9.634,2.358a1.154,1.154,0,0,0-1.255.693,1.993,1.993,0,0,1-.949.927,1.628,1.628,0,0,1-.689.094,1.928,1.928,0,0,0-.85.13A4.207,4.207,0,0,0,4.342,5.966L4.3,6.031a4.954,4.954,0,0,0-.587,4.624,4.019,4.019,0,0,0,3.3,2.092,7.89,7.89,0,0,0,1.1.078,6.944,6.944,0,0,0,4.038-1.219,4.991,4.991,0,0,0,2.095-3.6,5.145,5.145,0,0,0-1-3.632,5.067,5.067,0,0,0-3.193-2C9.9,2.365,9.759,2.358,9.634,2.358Z" transform="translate(3.969 143.503)" fill="#89c5cc"/><path d="M4.906.591C3.466,1.354,1.187,2.527.343,3.976-.549,5.507.374,7.182,2.254,6.458c1.492-.575,2.442-2.4,4.033-2.988,1.4-.517,1.971-.253,3.456.261a10.684,10.684,0,0,0,4.521.912C16.344,4.481,18.144,3.276,20.178,3c1.713-.231,3.126.436,4.766.7,1.9.308,3.148-.413,4.929-.788,1.211-.255,3.346.783,4.23.395,1.987-.873-.115-1.941-1.215-2.294C31.036.42,29.9.945,28.134,1.438c-1.913.535-2.74.133-4.569-.359-3.7-.994-6.559,1.41-10.066.973-3.247-.4-5.19-3.263-8.594-1.461" transform="translate(23.462 147.794)" fill="#89c5cc"/><path d="M6.189,11.377h0a8.131,8.131,0,0,1-2.782-.486A5.842,5.842,0,0,1,1.131,9.43,4.212,4.212,0,0,1,.016,6.113a5.618,5.618,0,0,1,2.249-4.2A10.72,10.72,0,0,1,6.783.1,5.23,5.23,0,0,1,7.772,0a3.82,3.82,0,0,1,3.1,1.5A5.924,5.924,0,0,1,12.03,4.923a6.9,6.9,0,0,1-1.2,4.212,5.3,5.3,0,0,1-4.036,2.219C6.6,11.369,6.392,11.377,6.189,11.377ZM7.725,2.786A5.831,5.831,0,0,0,3.409,4.42a2.947,2.947,0,0,0-.738,2.23A2.327,2.327,0,0,0,3.737,8.218,4.166,4.166,0,0,0,6.094,9a3.4,3.4,0,0,0,1.945-.6A3.36,3.36,0,0,0,9.257,6.867a3.271,3.271,0,0,0,.131-2A4.247,4.247,0,0,0,8.1,2.8C7.982,2.79,7.854,2.786,7.725,2.786Z" transform="translate(80.767 143.811)" fill="#89c5cc"/></g><path d="M707.87,57.144C697.793,31.6,157.134-17.694,56.762,6.5S-18.2,81.575,192.138,93.2,717.947,82.685,707.87,57.144Z" transform="translate(84.895 636.62)" fill="#89c5cc" opacity="0.5"/><path d="M-472.663,88.3c11.249-39.467,614.827-115.644,726.879-78.261s4.328,107.541-230.492,125.506S-483.913,127.77-472.663,88.3Z" transform="matrix(0.998, 0.07, -0.07, 0.998, 1027.087, 614.188)" fill="#c5cfd6"/><g transform="translate(169 171)" opacity="0.2"><g transform="translate(63)"><g transform="translate(37.74 22.161)"><path d="M0,51,5.9,24.1C2.611,20.317.383,15.686.755,10.5,1.828-4.454,23.106-1.165,27.245,6.381s3.648,26.687-1.7,28.036c-2.134.538-6.678-.78-11.3-3.507L17.143,51Z" transform="translate(0.26 -0.161)" fill="#b28b67"/></g><g transform="translate(28.463 15.595)"><path d="M35.395,8.306c.3-.874,2.36-3.583-1.305-6.164-.659-.464-1.747,0-2.69-.294C30.69,1.628,30.451.633,29.638.46c-.844-.18-1.763.636-2.716.564C26.337.98,25.436.065,24.828.016,23.742-.072,22.756.957,21.7,1.024c-.615.038-1.328-.956-1.938-1.008-1.485-.128-2.837.568-4.146.779-1.206.194-1.767,2.678-2.655,3.265C10.168,5.9,7.984,6.416,5.722,8.306c-2.689,2.247-3.2,3.919-4.318,5.417S-.4,20.5.252,23.877c.383,1.995,1.382,7.442,3.613,9.551,3.054,2.887,9.266,3.742,9.818,3.357C16.236,35,21.961,25.136,26.022,21.649,29.008,19.085,33.524,13.723,35.395,8.306Z" transform="translate(0 0)" fill="#ff9b21"/><g transform="translate(0 0)" clip-path="url(#a)"><path d="M7.12,15.45C8.8,9.461,10.435.218,10.435.218L12.5,0S9.082,14.487,7.2,20.289C5.93,24.21,4.895,27.532,4,30.251,5.838,26.17,8.2,20.933,10.329,15.562,12.623,9.784,15.21.762,15.21.762h2.076s-4.906,14.049-7.38,19.622C7.253,26.358,5.347,30.9,3.828,33.942A165.185,165.185,0,0,0,14.458,15.86,144.32,144.32,0,0,0,20.045,1.54l1.932.831s-4.866,12.206-7.519,17.024C8.692,29.863,3.187,36.18,1.263,37.973c-.333.31-.444.382-.365.224a.076.076,0,0,1-.058-.048,5.078,5.078,0,0,1-.4.541c-.153.176-.264.261-.335.261C-.728,38.951,3.749,27.457,7.12,15.45Z" transform="translate(10.812 -1.036)" fill="rgba(0,0,0,0.2)"/></g></g></g><g transform="translate(0 133)"><g transform="translate(0 29)"><ellipse cx="55" cy="53" rx="55" ry="53" transform="translate(28 -11)" fill="#c5cfd6"/></g><path d="M86.5,44.02C82.147,28.775,78.836,15.36,78,10.351c-2-11.946,15.35-12.642,17.643-6.7,3.47,8.986,9.528,38.51,16.808,83.105l-8.32,2.428C95.374,69.8,89.041,52.924,86.5,44.02ZM2.563,28.359C10.6,25.184,38.731,15.245,52.3,12.435c3.9-.808,7.678-1.559,11.232-2.237,10.561-2.016,16.033,17.036,5.861,18.5C44.061,32.344,8.149,36.109,5.076,36.531a3.917,3.917,0,0,1-.532.037C.512,36.569-2.276,30.272,2.563,28.359Z" transform="translate(90.585 21.982)" fill="#d4a181"/><path d="M43.573,29.2a8.881,8.881,0,0,1-.118-2.264L0,4.816V0H5.168S68.229,16.069,69.616,20.6c.01.032.018.064.026.1l.064.085c8.332,11.458,13.321,67.4,14.959,71.588L68.7,94.747C62.593,72.1,43.054,56.324,43.573,29.2Z" transform="translate(117.142)" fill="#1f28cf"/><path d="M21.238,44.577l13.125-4.5c-3.975-.8-7.638-1.506-10.77-2.056C3.355,34.469-2.546,23.636.943,0H38.23C44.321,1.75,75.976,15.025,92.4,22.085c10.87,4.673,7.443,21.519,1.287,25.9a.6.6,0,0,1-.341.533c-22.773,9.438-42.274,8.98-55.079,8.522-5.815-.208-10.249-.416-12.981.3Z" transform="translate(86.39)" fill="#2b44ff"/><g transform="matrix(0.438, 0.899, -0.899, 0.438, 110.695, 39.057)"><path d="M4.474,5.033A2,2,0,0,0,1.908,6.381L0,13.106A64.242,64.242,0,0,0,.9,21H57.3s2.2-7.268-2.538-7.848-7.87-1.047-7.87-1.047L20.68.419a1,1,0,0,0-1.332.532L17.663,5.039s-4.385,2.046-7.127,2.046Z" transform="translate(1 19)" fill="#e4e4e4"/></g><g transform="translate(189 90)"><path d="M3.057,3.545A1.367,1.367,0,0,0,1.3,4.466L0,9.061a43.9,43.9,0,0,0,.616,5.395H39.161s1.5-4.967-1.735-5.363-5.378-.715-5.378-.715L14.133.391a.683.683,0,0,0-.91.364L12.071,3.549a15.489,15.489,0,0,1-4.87,1.4Z" transform="translate(0.683 12.879)" fill="#e4e4e4"/></g></g><g transform="translate(25.547 58.471)"><path d="M.815,69.324c-.741-.457-1.553-2.175.408-3.517,4.886-3.346,11.927-9.2,12.879-11.128C16.048,50.736,25.77,0,25.77,0L40.311.054S23.7,53.8,22.675,56.334c-1.537,3.8,1.715,9.594,3.105,12.706-2.192.979-3.21-.271-4.325-1.521-1.188-1.333-2.487-2.665-5.434-1.3-3.772,1.753-6.891,4.535-10.609,4.534A8.635,8.635,0,0,1,.815,69.324ZM131.072,38.9,111.511,27.38l6.248-10.795L136.57,34.909a57.053,57.053,0,0,1,13.454,7.723c.786.947,1.642,2.761-2.057,1.949s-7.626-1.5-8.322-.3,1.354,3.042.069,4.614a.486.486,0,0,1-.394.188Q137.55,49.085,131.072,38.9Z" transform="translate(14.717 44.726)" fill="#b28b67"/><path d="M0,1.48,5.634,0C17.429,31.019,65.626,48.65,69.508,60.292c1.424,4.269-1.526,6.749.213,7.935l-6.96,6.086c-1.387-1.357-3.84,1.562-9.615.176S3.295,39.143,0,1.48Z" transform="matrix(0.996, 0.087, -0.087, 0.996, 84.927, 2.062)" fill="#db2721"/><path d="M2.919,99.275c.662-3.658-3.942-5.439-2.707-13.611C7.191,39.471,33.975,14.656,44.782,6.352l.178-2.54A4,4,0,0,1,49.229.1l15.2,1.063a4,4,0,0,1,3.711,4.27l-.383,5.477C67.1,53.186,91.571,63.972,86.12,80.931c-4.5,14-47.587,29.057-55.042,15.331-2.988-5.5-4.36-12.146-4.538-19.369-1.879,5.454-3.452,10.357-4.526,14.283-1.913,6.989-9.327,8.1-9.327,10.793Z" transform="translate(26.696 -3.137)" fill="#ff4133"/></g></g><g transform="translate(420.542 157.88)" opacity="0.2"><path d="M0,0,6.891,32.12h4.97L16.4,0Z" transform="translate(95.128 62.491) rotate(-177)" fill="#b28b67"/><path d="M23.755.116C18.637-1.2-.987,8.889.039,23.514S21.423,34.922,25.384,27.54,28.873,1.435,23.755.116Z" transform="translate(95.289 46.372) rotate(-177)" fill="#b28b67"/><path d="M5.189,22.619A5.126,5.126,0,0,0,4.121,24.6a20.085,20.085,0,0,0-.684,2.255,4.967,4.967,0,0,0,.749,4.5A5.158,5.158,0,0,0,7.6,32.838a6.278,6.278,0,0,0,2.422-.307c.772-.254,1.437-.759,2.185-1.073a9.776,9.776,0,0,0,1.153,4.8,4.79,4.79,0,0,0,3.566,2.327,7.071,7.071,0,0,0,4.344-.875c.338-.183.672-.374.993-.591a2.782,2.782,0,0,1,.862-.474c.351-.082.525.12.753.376a5.719,5.719,0,0,0,.887.8,5.226,5.226,0,0,0,4.89.841,4.544,4.544,0,0,0,1.994-1.441c.455-.6.779-1.543,1.407-1.959.266-.176.455.057.7.23.364.26.712.546,1.081.8a4.949,4.949,0,0,0,1.679.759c.879.2,2.094.156,2.345-1a4.753,4.753,0,0,0-.008-1.331c-.042-.6-.085-1.2-.137-1.794a12.953,12.953,0,0,0-.175-1.337,1.957,1.957,0,0,1-.087-.918c.127-.3.715-.128.965-.139a3.815,3.815,0,0,0,1.452-.319,1.562,1.562,0,0,0,.878-.813,1.46,1.46,0,0,0,.024-.764,2.279,2.279,0,0,1,.046-.784c.666.328,2.972,1.056,3.262-.137a1.866,1.866,0,0,0-.291-1.181A10.236,10.236,0,0,0,43.714,24.9a14.633,14.633,0,0,0-2.863-2.778,1.877,1.877,0,0,0,.49-3.143,2.325,2.325,0,0,0-1.708-.5,3.775,3.775,0,0,1-.706.056,1.688,1.688,0,0,0-.32-.108,9.518,9.518,0,0,0-2.619.332,8.635,8.635,0,0,0-3.994,2.089,1.231,1.231,0,0,1-.924.424c-.344,0-.681-.1-1.024-.106a7.375,7.375,0,0,0-2.57.716,9.7,9.7,0,0,0-.842-3.418c-.38-.836-1.173-.957-1.953-1.03-2.493-.235-5,.027-7.492.024,2.417-.546,4.914-.771,7.309-1.414,1.083-.291.256-1.02-.207-1.526a8.8,8.8,0,0,1-1.722-2.952,5.209,5.209,0,0,1-5.123,2.083c-2.046-.523-3.486-3.289-2.178-5.278.759-1.154,2.131-1.6,3.272-2.1-.89-.926-1.105-2.292-1.641-3.444a2.464,2.464,0,0,0-1.226-1.408,1.434,1.434,0,0,1-.648-.258c-.214-.221-.265-.467-.537-.657a3.03,3.03,0,0,0-3.755.289,2.451,2.451,0,0,0,.083,3.213C9.656,4.5,7.542,5.124,8,6.932,5.489,7.1-.615,11.176,2.759,14.156.907,15.2-.794,17.76.4,20.015c.916,1.736,3.046,2.512,4.794,2.6" transform="translate(107.875 41.261) rotate(-177)" fill="#191847"/><path d="M47.942,0,22.226,84.074l-12.458,71.5H0L13.164,0Z" transform="translate(57.993 129.495)" fill="#997659"/><path d="M38.746,0c-1.747,46.161.309,69.972.7,74.166s5.744,31.388,18.417,82.816l-10.408-3.575C27.426,106.24,20.6,81.726,18.3,75.533S9.905,44.162,0,0Z" transform="translate(76.39 129.495)" fill="#b28b67"/><path d="M36.452,3.545a1.367,1.367,0,0,1,1.753.922l1.3,4.6a43.9,43.9,0,0,1-.616,5.395H.348s-1.5-4.967,1.735-5.363,5.378-.715,5.378-.715L25.376.391a.683.683,0,0,1,.91.364l1.152,2.793a15.489,15.489,0,0,0,4.87,1.4Z" transform="translate(95.812 278.37)" fill="#e4e4e4"/><path d="M36.452,3.545a1.367,1.367,0,0,1,1.753.922l1.3,4.6a43.9,43.9,0,0,1-.616,5.395H.348s-1.5-4.967,1.735-5.363,5.378-.715,5.378-.715L25.376.391a.683.683,0,0,1,.91.364l1.152,2.793a15.489,15.489,0,0,0,4.87,1.4Z" transform="translate(31.573 278.37)" fill="#e4e4e4"/><path d="M44.332,0,33.4,42.835H0L4.98,0Z" transform="translate(65.02 129.495)" fill="#2f3676"/><path d="M41.776,0c5.4,16.177,2.05,42.835,2.05,42.835H9.745L.373,0Z" transform="translate(73.727 129.495)" fill="#89c5cc"/><path d="M5.671,32.785,27.51,14.924A61.236,61.236,0,0,0,42.625,7.913c.93-.94,2.015-2.8-2.017-2.28s-8.3.893-8.929-.458,1.733-3.13.506-4.934q-1.227-1.8-10.181,9.9L0,20.642Z" transform="matrix(-1, -0.017, 0.017, -1, 43.487, 144.484)" fill="#d4a181"/><path d="M38.944,61.88S20.7,21.526,17.777,17.815C16.347,16,7.644,11.417,1.764,8.991-.6,8.016-.127,6.029.549,5.384c5.5-5.247,10.645-1.518,16.663-.134,6.594,1.515,4.411-6.256,9.62-5.139-.765,3.582-2.885,10.4-.421,14.051,1.643,2.437,25,45.009,25,45.009Z" transform="translate(179.951 162.944) rotate(-180)" fill="#d4a181"/><path d="M0,77.472,7.57,80.73C20.455,55.25,38.462,31.082,66.7,11.807L61.168,0C36.817,11.61,13.968,20.285,3.282,39.968-.3,46.574.475,69.239,0,77.472Z" transform="translate(89.17 131.212) rotate(177)" fill="#5c63ab"/><path d="M3.4.23C1.827-.584-1.125,5.111.448,5.926c4.455,2.307,9.784,2.359,15.835.322A3.207,3.207,0,1,0,14.234.169C9.714,1.691,6.154,1.656,3.4.23Z" transform="matrix(-0.999, 0.035, -0.035, -0.999, 40.182, 121.034)" fill="#5c63ab"/><path d="M0,1.641s33.624-3.692,52.931,0c1.595.3,1.525,7.176.785,9.053C42.2,39.919,34.624,61.313,34.624,81.612c-3.17-1.655-11.095-.5-11.095-.5C9.331,60.2,2.8,36.2,0,1.641Z" transform="matrix(-0.999, 0.035, -0.035, -0.999, 114.617, 131.108)" fill="#dde3e9"/><path d="M47.042,105.612S6.009,69.274,0,1.562L13.95,0C24.959,57.8,52.767,67.975,52.767,67.975l-1.932,38.306Z" transform="matrix(-0.978, 0.208, -0.208, -0.978, 161.901, 142.479)" fill="#8991dc"/><path d="M3.4.23C1.827-.584-1.125,5.111.448,5.926c4.455,2.307,9.784,2.359,15.835.322A3.207,3.207,0,1,0,14.234.169C9.714,1.691,6.154,1.656,3.4.23Z" transform="matrix(-0.999, 0.035, -0.035, -0.999, 162.304, 135.588)" fill="#8991dc"/><path d="M0,0C29.411,11.743,59.625-2.955,80.79,1.769c11.45,58.843-21.526,127.743-19.139,159.3h-7c-3.932-9.411-14.4-23.563-19.536-37.779-4.232-11.711,1.252-23.712-.742-36.045C29.945,59.848,1.256,27.2,0,0Z" transform="matrix(-0.999, 0.035, -0.035, -0.999, 153.06, 208.059)" fill="#8991dc"/><rect width="6.416" height="8.552" rx="3.208" transform="matrix(-0.978, 0.208, -0.208, -0.978, 120.37, 132.985)" fill="#8991dc"/><path d="M6.575,54.166,2.9,42.858,10.3,34.382,3.61,27.72,19.806,0,0,27.665l6.575,6.717L0,41.873Z" transform="matrix(-0.999, 0.035, -0.035, -0.999, 99.473, 103.673)" fill="rgba(0,0,0,0.1)"/><path d="M4.278,2.851A2.852,2.852,0,1,0,7.13,0,2.852,2.852,0,0,0,4.278,2.851ZM3.565,19.243a2.852,2.852,0,1,0,2.852-2.851A2.851,2.851,0,0,0,3.565,19.243ZM0,35.636a2.852,2.852,0,1,0,2.852-2.851A2.851,2.851,0,0,0,0,35.636Z" transform="matrix(-0.999, 0.035, -0.035, -0.999, 88.793, 147.547)" fill="rgba(0,0,0,0.4)"/></g><g transform="translate(700 171)" opacity="0.35"><g transform="translate(42)"><g transform="translate(28.306 15.847)"><path d="M0,38,4.328,17.954A14.052,14.052,0,0,1,.553,7.821C1.34-3.319,16.945-.868,19.98,4.755s2.675,19.884-1.248,20.889c-1.565.4-4.9-.581-8.289-2.613L12.572,38Z" transform="translate(-0.306 0.153)" fill="#b28b67"/></g><g transform="translate(16.139 12.375)"><path d="M30.989,6.362c-.109-.68.107-1.014-2.623-2.931S21.227-.746,16.787.238C11.025,1.515,8.737,5.323,6.515,7.174c-2,1.669-4.013,1.863-5.2,3.934s-1.825,8.028-.789,10.4c1.429,3.267,4.246,4.147,6.3,5.088,3.527,1.614,8.513-.091,8.634-.373.934-2.185,5.963-8.348,8.988-10.937C26.67,13.379,31.5,9.555,30.989,6.362Z" transform="translate(0 0)" fill="#5c63ab"/><g transform="translate(0 0)" clip-path="url(#b)"><path d="M0,2.973l2.073-.634S4.37,12.213,14,21A33.287,33.287,0,0,1,0,2.973Zm2.593-1.8L4.385,0a40.524,40.524,0,0,0,7.35,16.812C4.8,11.221,2.593,1.177,2.593,1.177Z" transform="translate(1.861 5.625)" fill="rgba(0,0,0,0.2)"/></g></g></g><g transform="translate(0 101)"><g transform="translate(0 26)"><ellipse cx="42.5" cy="40.5" rx="42.5" ry="40.5" transform="translate(22 -8)" fill="#c5cfd6"/></g><path d="M66.445,33.947c-3.343-11.756-5.886-22.1-6.529-25.965C58.383-1.23,71.708-1.767,73.469,2.812c2.666,6.93,7.319,29.7,12.911,64.089l-6.391,1.872C73.263,53.827,68.4,40.814,66.445,33.947ZM1.969,21.87C8.14,19.421,29.752,11.757,40.175,9.589c3-.623,5.9-1.2,8.628-1.725C56.915,6.309,61.118,21,53.3,22.131,33.846,24.943,6.26,27.846,3.9,28.172a3,3,0,0,1-.409.028C.393,28.2-1.748,23.345,1.969,21.87Z" transform="translate(61.456 16.952)" fill="#d4a181"/><path d="M33.471,22.519a6.876,6.876,0,0,1-.09-1.746L0,3.714V0H3.97S52.411,12.392,53.477,15.883c.008.025.014.049.02.074l.049.066C59.946,24.859,63.779,68,65.037,71.23L52.773,73.067C48.082,55.6,33.072,43.436,33.471,22.519Z" transform="translate(81.857)" fill="#1f28cf"/><path d="M16.314,34.377,26.4,30.9c-3.054-.614-5.867-1.162-8.273-1.585C2.577,26.582-1.956,18.228.724,0H29.367c4.679,1.349,28.995,11.587,41.611,17.031,8.35,3.6,5.718,16.595.989,19.976a.464.464,0,0,1-.262.411C54.211,44.7,39.231,44.343,29.4,43.99c-4.467-.16-7.873-.321-9.972.233Z" transform="translate(58.234)" fill="#2b44ff"/><g transform="matrix(0.438, 0.899, -0.899, 0.438, 76.904, 30.12)"><path d="M4.474,5.033A2,2,0,0,0,1.908,6.381L0,13.106A64.242,64.242,0,0,0,.9,21H57.3s2.2-7.268-2.538-7.848-7.87-1.047-7.87-1.047L20.68.419a1,1,0,0,0-1.332.532L17.663,5.039s-4.385,2.046-7.127,2.046Z" transform="translate(1 19)" fill="#e4e4e4"/></g><g transform="translate(137 69)"><path d="M2.348,2.809A1.049,1.049,0,0,0,1,3.52L0,7.064a33.983,33.983,0,0,0,.473,4.16H30.082s1.154-3.83-1.332-4.136-4.131-.552-4.131-.552L10.856.378a.524.524,0,0,0-.7.28L9.272,2.812A11.864,11.864,0,0,1,5.531,3.891Z" transform="translate(0.525 9.856)" fill="#e4e4e4"/></g></g><g transform="translate(28.396 45.846)"><path d="M.644,47.364C.058,47-.583,45.636.967,44.569,4.83,41.91,10.4,37.256,11.148,35.724c1.538-3.133,6.777-33.67,6.777-33.67l10.97.044S18.735,35.026,17.925,37.04c-1.215,3.022,1.356,7.625,2.455,10.1-1.733.778-2.538-.215-3.419-1.209-.939-1.059-1.966-2.118-4.3-1.03-2.982,1.393-5.447,3.6-8.386,3.6A6.8,6.8,0,0,1,.644,47.364ZM94.456,17.733,78.992,8.58,83.931,0,98.8,14.564A45.03,45.03,0,0,1,109.438,20.7c.622.753,1.3,2.195-1.626,1.55s-6.029-1.192-6.579-.238,1.07,2.418.054,3.667a.384.384,0,0,1-.312.149Q99.577,25.831,94.456,17.733Z" transform="translate(0 46.969)" fill="#d4a181"/><path d="M0,1.175,4.454,0Q18.695,28.267,49.889,49.657l-13.1,19.163C15.408,47.8,1.4,25.4,0,1.175Z" transform="matrix(0.996, 0.087, -0.087, 0.996, 49.203, 1.64)" fill="#191847"/><path d="M0,60.08H40.422S26.375,25.791,26.375,1.824L14.181,0C4.6,15.472,1.892,34.522,0,60.08Z" transform="translate(29.312 0)" fill="#dde3e9"/><path d="M0,77.472C4.421,27.4,32.287,0,32.287,0L32.3.008,32.3,0h.8c1.429.049,4.352.178,4.352.178L40.4,8.631c.468,15.459,5.46,62.309,5.46,62.309H19.4q.068,3.222.3,6.532Z" transform="translate(10.939)" fill="#2f3676"/><path d="M7.4,26.086H.033A135.163,135.163,0,0,1,2.027,0,142.251,142.251,0,0,0,3.805,14.591c.96,5.222,2.171,9.089,3.6,11.495Z" transform="translate(30.308 45.061)" fill="rgba(0,0,0,0.1)"/><path d="M0,6.1,13.066,0V6.1Z" transform="translate(36.195 48.712)" fill="rgba(255,255,255,0.2)"/></g></g><g transform="translate(955 157.97)" opacity="0.15"><path d="M13.932,27.283,8.078,0H3.856L0,27.283Z" transform="translate(87.546 17.203)" fill="#b28b67"/><path d="M3.622,28.6C7.97,29.718,24.639,21.145,23.767,8.722S5.6-.968,2.239,5.3-.725,27.477,3.622,28.6Z" transform="translate(77.097 2.111)" fill="#b28b67"/><path d="M14.864,22.286c4.335-2.6,7.424-10.792,1.387-17.967S0-.371,0,6.5C6.784,6.5,7.365,13.4,14.864,22.286Z" transform="translate(81.923 0.961)" fill="#3d2216"/><ellipse cx="3.483" cy="3.483" rx="3.483" ry="3.483" transform="translate(88.126 13.72)" fill="#b28b67"/><path d="M.13.5C3.637,2.734,22.073-5.631,24.865,8.218c-1.639,1.663-9.122,1.357-13.471,0C2,9.351-.655,5.42.13.5Z" transform="translate(75.094 0)" fill="#3d2216"/><path d="M50.722,0H5.876L0,71.981H66.757Z" transform="translate(70.131 117.049)" fill="#c5cfd6"/><path d="M22.048,0H8.255L0,71.981H38.083Z" transform="translate(98.805 117.049)" fill="rgba(0,0,0,0.1)"/><path d="M.789.584S-.684,27.657.4,39.424C1.629,52.856,3.124,64.518,4,68.753c2.086,10.1,16.021,5.412,16.013,0C20,56.467,8.116,0,8.116,0Z" transform="translate(65.223 168.22) rotate(160)" fill="#b28b67"/><path d="M19.036,79.8c.581-7.344,1.661-32.766.58-44.532-1.233-13.432-2.728-25.094-3.6-29.329C13.928-4.155-.007.532,0,5.943c.016,12.286,11.229,70.189,11.814,73.85S18.671,84.42,19.036,79.8Z" transform="translate(12.082 103.697)" fill="#b28b67"/><path d="M0,0,2.971,58.926c2.141,10.189,20.263,5.46,20.256,0C23.21,46.529,15.763,3.706,15.758.012Z" transform="translate(63.804 158.336) rotate(160)" fill="#e87613"/><path d="M2.6,9.269a1.161,1.161,0,0,1-1.489-.783L0,4.583A37.292,37.292,0,0,1,.523,0H33.264s1.276,4.219-1.473,4.556-4.568.608-4.568.608L12,11.947a.58.58,0,0,1-.773-.309l-.978-2.373A13.157,13.157,0,0,0,6.116,8.078Z" transform="translate(70.159 171.366) rotate(150)" fill="#e4e4e4"/><path d="M30.963,3.061a1.161,1.161,0,0,1,1.489.783l1.108,3.9a37.292,37.292,0,0,1-.523,4.583H.3S-.98,8.11,1.769,7.774s4.568-.608,4.568-.608L21.555.382a.58.58,0,0,1,.773.309l.978,2.373a13.157,13.157,0,0,0,4.137,1.188Z" transform="translate(0 176.7)" fill="#e4e4e4"/><path d="M0,21.149c0,15.422,7.324,51.4,7.329,54.791l15.758.012S19.627,27.8,20.633,27.286,61.878,31.3,73.946,31.3c17.4,0,24.6-10.974,25.186-31.3H64.658C57.639.751,21.026,8.136,7.429,10.674,1.608,11.761,0,16.9,0,21.149Z" transform="translate(10.473 92.668)" fill="#ff9b21"/><path d="M33.475,17.773,12.441,8.536A49.843,49.843,0,0,0,1.767.164C.741-.163-1.012-.262.858,2.47S4.573,8.159,3.825,9.117.913,9.018.058,10.574Q-.8,12.131,11.005,14.3L26.758,26.377Z" transform="translate(19.241 58.999)" fill="#b28b67"/><path d="M11.9,0,0,2.36Q17.944,35.8,19.246,37.808c1.953,3.01.131,8.526-.542,11.431,4.223.983,2.558-5.373,7.9-4.046,4.878,1.211,9.014,4.32,13.562.127.559-.515.969-2.127-.938-2.953-4.75-2.059-11.768-5.914-12.906-7.41Q24,31.895,11.9,0Z" transform="translate(125.859 79.316)" fill="#b28b67"/><path d="M0,57.353l4.925,1.3c11.816-9.612,18.481-34.607,26.034-37.331,7.14-2.576,16.6,1.349,27.8,6.511l4.233-7.6C53.481,7.94,31.938-3.622,22.385,1.067,7.113,8.563,1.025,39.576,0,57.353Z" transform="matrix(-0.996, 0.087, -0.087, -0.996, 98.526, 91.946)" fill="#db2721"/><path d="M46,66.176H1.59c-2.03,0-1.647-2.931-1.354-4.409C3.622,44.7,16.839,26.3,16.839,2.009L29.65,0C40.247,17.042,43.911,38.025,46,66.176Z" transform="translate(69.406 31.716)" fill="#dde3e9"/><path d="M41.977,78.367H2C-5.742,58.807,11.509,0,11.509,0h4.926C26.014,17.092,40.105,50.133,41.977,78.367Z" transform="translate(83.301 31.716)" fill="#ff4133"/><path d="M3.049,0H.736L0,4.023Q29.595,65.249,45.837,84.172l9.31-1.823Q46.152,26.561,3.049,0Z" transform="translate(96.834 31.716)" fill="#ff4133"/></g><g transform="translate(74 353)"><g transform="translate(102)"><g transform="translate(24 17)"><path d="M0,73,8.262,34.49C3.655,29.081.536,22.452,1.057,15.025c1.5-21.4,31.292-16.692,37.086-5.891s5.107,38.2-2.382,40.129c-2.987.77-9.349-1.116-15.825-5.019L24,73Z" fill="#d4a181"/></g><path d="M72.776,11.16A5.191,5.191,0,0,0,69.14,7.474,4.788,4.788,0,0,0,67.8,7.341c-.161.006-.206.053-.282-.06a1.48,1.48,0,0,1-.08-.386,7.282,7.282,0,0,0-.272-.9A7.354,7.354,0,0,0,65.4,3.357,8.929,8.929,0,0,0,60.032.82a7.819,7.819,0,0,0-3.224.44,12.767,12.767,0,0,0-1.565.669c-.153.077-.648.452-.8.427-.169-.027-.51-.447-.647-.553A9.478,9.478,0,0,0,47.872,0c-2.392.018-4.7.137-6.69,1.6a13.38,13.38,0,0,0-1.207,1c-.2.187-.4.382-.583.584q-.169.183-.327.375c-.179.218-.15.289-.4.137a4.973,4.973,0,0,0-3.193-.718,7.146,7.146,0,0,0-1.928.545c-.209.09-.694.447-.917.45s-.7-.328-.927-.412A7.6,7.6,0,0,0,27.846,3.2a9.948,9.948,0,0,0-3.777,1.485,5.078,5.078,0,0,0-1.4,1.273c-.165.227-.313.468-.5.678-.109.123-.326.25-.384.406a8.3,8.3,0,0,0-1.6-.707,3.944,3.944,0,0,0-2.253.086,8.958,8.958,0,0,0-3.552,2.524,10.086,10.086,0,0,0-1.315,1.766q-.268.455-.492.934a3.474,3.474,0,0,1-.216.487c-.123.179-.206.183-.429.261a6.93,6.93,0,0,0-2.951,1.976,6.8,6.8,0,0,0-1.528,3.24,1.651,1.651,0,0,1-.061.4c-.056.052-.284.029-.37.039a7.787,7.787,0,0,0-.887.156,7.321,7.321,0,0,0-1.559.561A8.148,8.148,0,0,0,.576,23.536a9.676,9.676,0,0,0,.151,6.624,6.472,6.472,0,0,0,.492.97c.118.189.156.19.079.388-.085.221-.241.436-.342.651A9.352,9.352,0,0,0,.25,34.385a10.388,10.388,0,0,0-.122,3.829,5.527,5.527,0,0,0,.591,1.68,4.819,4.819,0,0,0,.518.752c.1.121.21.237.323.348a2.155,2.155,0,0,1,.2.189c.134.172.162.031.093.284a11.335,11.335,0,0,1-.451,1.048c-.138.355-.264.715-.378,1.078a15.906,15.906,0,0,0-.55,2.247,7.056,7.056,0,0,0,.5,4.365,4.367,4.367,0,0,0,1.235,1.47,4.584,4.584,0,0,0,.811.493c.147.07.335.1.4.242s-.035.457-.059.628a10.466,10.466,0,0,0,.123,4.509,6.23,6.23,0,0,0,2.469,3.315,7.683,7.683,0,0,0,7.68.218A8.063,8.063,0,0,0,15.353,59.9c1.315,1.771,4.022,1.714,5.944,1.21a8.538,8.538,0,0,0,5.424-4.482c1.514,1.843,4.691,1.245,5.741-.754a4.784,4.784,0,0,0,.484-1.574c.039-.287.014-.576.044-.861a4.449,4.449,0,0,1,.419-1.066,5.886,5.886,0,0,0,.447-2.125,10.789,10.789,0,0,0-.082-1.141,3.921,3.921,0,0,1,.116-1,4.585,4.585,0,0,1-1.941-.243,3.833,3.833,0,0,1-1.5-1.055,8.756,8.756,0,0,1-1.888-3.529c-.854-2.8-.5-6.149,2.308-7.683,1.31-.715,5.234-.712,6.794-.359,1.64.371,3.5,3.991,3.591,4.331.057.211.028.471.222.611.425.308,1.126-.227,1.44-.491a5.678,5.678,0,0,0,1.261-1.678,20.755,20.755,0,0,0,1.73-4.243c.32-1.131.524-2.3.942-3.4a5.2,5.2,0,0,1,2.091-2.7,18.409,18.409,0,0,1,3.6-1.456,8.928,8.928,0,0,0,3.327-1.828,4.6,4.6,0,0,0,.571-.636c.131-.183.26-.532.459-.648.31-.18.761.288,1.029.458a11.891,11.891,0,0,1,3.311,3.286,20.447,20.447,0,0,1,2.2,3.912,11.313,11.313,0,0,0,1.478,3.263c.343.385,2.894.618,3.72.282a4.7,4.7,0,0,0,2.029-1.756,2.728,2.728,0,0,0,.23-1.788c-.071-.361-.217-.7-.3-1.052a3.279,3.279,0,0,0-.273-.851,2.1,2.1,0,0,0-1.309-1.043,6.147,6.147,0,0,0,1.414-1.917,8.229,8.229,0,0,0,.732-2.5,3.033,3.033,0,0,0-.405-1.946,5.124,5.124,0,0,0-1.661-1.379A10.807,10.807,0,0,0,71.4,17.552,7.864,7.864,0,0,0,72.776,11.16Z" transform="translate(0 0)" fill="#191847"/></g><g transform="translate(0 173)"><g transform="translate(0 42)"><path d="M131,124H16A16,16,0,0,1,0,108V16A16,16,0,0,1,16,0H131a16,16,0,0,1,16,16v92a16,16,0,0,1-16,16ZM32,28a4.005,4.005,0,0,0-4,4V92a4.005,4.005,0,0,0,4,4h83a4,4,0,0,0,4-4V32a4,4,0,0,0-4-4Z" transform="translate(43 0)" fill="#c5cfd6"/></g><path d="M126.572,64.414c-6.368-22.307-11.213-41.937-12.437-49.268-2.92-17.48,22.461-18.5,25.816-9.811,5.078,13.149,13.943,56.351,24.594,121.606l-12.175,3.552C139.559,102.136,130.292,77.442,126.572,64.414ZM3.75,41.5c11.756-4.647,52.924-19.189,72.779-23.3,5.706-1.183,11.236-2.281,16.435-3.273,15.454-2.95,23.46,24.929,8.576,27.071C64.473,47.328,11.924,52.837,7.428,53.456a5.731,5.731,0,0,1-.778.053C.749,53.51-3.331,44.3,3.75,41.5Z" transform="translate(109.138 32.166)" fill="#d4a181"/><path d="M63.76,42.729a13,13,0,0,1-.172-3.313L0,7.047V0H7.562s92.277,23.513,94.307,30.137c.014.047.027.093.038.14q.047.062.093.125c12.191,16.767,19.493,98.624,21.89,104.753l-23.362,3.486C91.591,105.5,63,82.418,63.76,42.729Z" transform="translate(148)" fill="#1f28cf"/><path d="M31.077,65.228l19.206-6.588c-5.817-1.164-11.176-2.2-15.76-3.008C4.909,50.438-3.726,34.586,1.38,0H55.942c8.913,2.561,55.232,21.985,79.265,32.316,15.906,6.838,10.892,31.488,1.884,37.9a.879.879,0,0,1-.5.781C103.268,84.811,74.732,84.14,56,83.47c-8.509-.3-15-.609-19,.443Z" transform="translate(103)" fill="#2b44ff"/><g transform="matrix(0.438, 0.899, -0.899, 0.438, 138.565, 57.151)"><path d="M4.474,5.033A2,2,0,0,0,1.908,6.381L0,13.106A64.242,64.242,0,0,0,.9,21H57.3s2.2-7.268-2.538-7.848-7.87-1.047-7.87-1.047L20.68.419a1,1,0,0,0-1.332.532L17.663,5.039s-4.385,2.046-7.127,2.046Z" transform="translate(1 19)" fill="#e4e4e4"/></g><g transform="translate(253 132)"><path d="M4.474,5.033A2,2,0,0,0,1.908,6.381L0,13.106A64.242,64.242,0,0,0,.9,21H57.3s2.2-7.268-2.538-7.848-7.87-1.047-7.87-1.047L20.68.419a1,1,0,0,0-1.332.532L17.663,5.039s-4.385,2.046-7.127,2.046Z" transform="translate(1 19)" fill="#e4e4e4"/></g></g><g transform="translate(46.163 68)"><path d="M1.227,89.872c-1.116-.688-2.338-3.28.615-5.3C9.2,79.522,19.8,70.692,21.236,67.785,24.166,61.841,34.145,3.9,34.145,3.9l20.9.083s-19.354,62.481-20.9,66.3c-2.314,5.735,2.583,14.468,4.676,19.162-3.3,1.477-4.834-.409-6.512-2.294-1.789-2.01-3.745-4.019-8.184-1.954-5.68,2.643-10.377,6.838-15.975,6.838A12.989,12.989,0,0,1,1.227,89.872Zm178.7-56.225L150.473,16.28,159.881,0,188.21,27.635a85.858,85.858,0,0,1,20.26,11.646c1.184,1.428,2.473,4.164-3.1,2.94s-11.485-2.262-12.532-.451,2.038,4.587.1,6.959a.732.732,0,0,1-.593.283Q189.684,49.013,179.93,33.647Z" transform="translate(0 89.123)" fill="#d4a181"/><path d="M0,2.231,8.485,0Q35.593,53.627,95,94.194l-24.957,36.37C29.32,90.685,2.652,48.2,0,2.231Z" transform="matrix(0.996, 0.087, -0.087, 0.996, 93.727, 3.109)" fill="#191847"/><path d="M0,114H77S50.241,48.938,50.241,3.461L27.014,0C8.76,29.358,3.6,65.5,0,114Z" transform="translate(55.837 0)" fill="#dde3e9"/><path d="M0,147C8.421,52,61.5,0,61.5,0l.018.016L61.531,0h1.517c2.722.094,8.29.338,8.29.338l5.612,16.04c.891,29.333,10.4,118.229,10.4,118.229H36.95q.129,6.113.581,12.394Z" transform="translate(20.837)" fill="#2f3676"/><path d="M14.1,49.5H.062A255.488,255.488,0,0,1,3.861,0,268.911,268.911,0,0,0,7.249,27.685C9.078,37.594,11.384,44.932,14.1,49.5Z" transform="translate(57.734 85.502)" fill="rgba(0,0,0,0.1)"/><path d="M0,11.571,24.889,0V11.571Z" transform="translate(68.948 92.429)" fill="rgba(255,255,255,0.2)"/></g></g><g transform="translate(426 344.364)"><path d="M24,47,13.916,0H6.643L0,47Z" transform="translate(150.813 29.636)" fill="#b28b67"/><path d="M6.24,49.263c7.489,1.93,36.205-12.838,34.7-34.238S9.651-1.667,3.857,9.134-1.25,47.333,6.24,49.263Z" transform="translate(132.813 3.636)" fill="#b28b67"/><path d="M25.606,38.391C33.075,33.911,38.4,19.8,28,7.44S0-.639,0,11.2C11.687,11.2,12.687,23.085,25.606,38.391Z" transform="translate(141.126 1.656)" fill="#3d2216"/><ellipse cx="6" cy="6" rx="6" ry="6" transform="translate(151.813 23.636)" fill="#b28b67"/><path d="M.223.863C6.265,4.71,38.025-9.7,42.834,14.156c-2.824,2.864-15.714,2.337-23.206,0C3.45,16.109-1.129,9.338.223.863Z" transform="translate(129.362)" fill="#3d2216"/><path d="M87.377,0H10.123L0,124H115Z" transform="translate(120.813 201.636)" fill="#c5cfd6"/><path d="M37.981,0H14.221L0,124H65.6Z" transform="translate(170.209 201.636)" fill="rgba(0,0,0,0.1)"/><path d="M1.36,1.005S-1.179,47.644.682,67.914c2.124,23.139,4.7,43.229,6.207,50.524,3.593,17.4,27.6,9.322,27.586,0C34.446,97.274,13.981,0,13.981,0Z" transform="translate(112.357 289.788) rotate(160)" fill="#b28b67"/><path d="M32.792,137.477c1-12.651,2.861-56.444,1-76.715-2.124-23.139-4.7-43.229-6.207-50.524C23.993-7.157-.012.916,0,10.238.028,31.4,19.343,131.151,20.352,137.457S32.163,145.428,32.792,137.477Z" transform="translate(20.813 178.636)" fill="#b28b67"/><path d="M0,0,5.118,101.51c3.688,17.553,34.907,9.406,34.894,0C39.982,80.155,27.154,6.383,27.145.021Z" transform="translate(109.912 272.761) rotate(160)" fill="#e87613"/><path d="M4.474,15.967a2,2,0,0,1-2.565-1.348L0,7.894A64.242,64.242,0,0,1,.9,0H57.3s2.2,7.268-2.538,7.848S46.9,8.894,46.9,8.894L20.68,20.581a1,1,0,0,1-1.332-.532l-1.685-4.088s-4.385-2.046-7.127-2.046Z" transform="translate(120.86 295.207) rotate(150)" fill="#e4e4e4"/><path d="M53.339,5.033A2,2,0,0,1,55.9,6.381l1.908,6.724a64.242,64.242,0,0,1-.9,7.894H.51s-2.2-7.268,2.538-7.848,7.87-1.047,7.87-1.047L37.133.419a1,1,0,0,1,1.332.532l1.685,4.088s4.385,2.046,7.127,2.046Z" transform="translate(0 304.636)" fill="#e4e4e4"/><path d="M0,36.433C0,63,12.617,124.97,12.625,130.82l27.146.021S33.81,47.9,35.544,47s71.051,6.921,91.84,6.921c29.979,0,42.38-18.9,43.386-53.925H111.384C99.292,1.294,36.222,14.015,12.8,18.388,2.77,20.261,0,29.115,0,36.433Z" transform="translate(18.042 159.636)" fill="#ff9b21"/><path d="M57.666,30.617,21.431,14.7A85.864,85.864,0,0,0,3.043.282C1.276-.281-1.744-.451,1.478,4.255s6.4,9.8,5.112,11.45S1.573,15.534.1,18.216Q-1.374,20.9,18.958,24.633L46.1,45.439Z" transform="translate(33.147 101.636)" fill="#b28b67"/><path d="M20.492,0,0,4.066Q30.912,61.674,33.155,65.13c3.365,5.185.225,14.687-.934,19.691,7.275,1.693,4.406-9.256,13.612-6.97,8.4,2.087,15.528,7.442,23.363.22.963-.888,1.669-3.663-1.616-5.087C59.4,69.437,47.308,62.8,45.348,60.218Q41.338,54.944,20.492,0Z" transform="translate(216.813 136.636)" fill="#b28b67"/><path d="M0,98.8l8.485,2.231C28.84,84.472,40.322,41.416,53.332,36.722c12.3-4.438,28.6,2.324,47.89,11.217l7.293-13.1c-16.386-21.165-53.5-41.081-69.953-33C12.253,14.751,1.767,68.176,0,98.8Z" transform="matrix(-0.996, 0.087, -0.087, -0.996, 169.728, 158.392)" fill="#db2721"/><path d="M79.25,114H2.738c-3.5,0-2.837-5.048-2.332-7.6C6.239,77,29.008,45.312,29.008,3.461L51.078,0C69.332,29.358,75.645,65.5,79.25,114Z" transform="translate(119.563 54.636)" fill="#dde3e9"/><path d="M72.313,135H3.44C-9.892,101.305,19.826,0,19.826,0h8.486C44.813,29.444,69.088,86.363,72.313,135Z" transform="translate(143.5 54.636)" fill="#ff4133"/><path d="M5.252,0H1.269L0,6.93Q50.982,112.4,78.963,145L95,141.859Q79.5,45.757,5.252,0Z" transform="translate(166.813 54.636)" fill="#ff4133"/></g><g transform="translate(759 239)"><g transform="matrix(0.996, -0.087, 0.087, 0.996, 92.559, 17.908)"><g transform="translate(54.913 31.436)"><path d="M0,74.026,8.4,34.974C3.717,29.49.545,22.768,1.074,15.236,2.6-6.465,32.9-1.691,38.788,9.262S43.981,48,36.365,49.956c-3.037.781-9.508-1.132-16.093-5.09l4.134,29.16Z" transform="translate(0 0)" fill="#784931"/></g><path d="M44.4,24.713a31.938,31.938,0,0,0-10.212-1.125,17.471,17.471,0,0,0,1.243-8.854c-.364-2.917-1.672-5.4-2.881-8a10.947,10.947,0,0,0-2.131-3.311,7.283,7.283,0,0,0-3.447-1.847,9.249,9.249,0,0,0-3.971,0c-.577.121-1.1.384-1.662.531s-.861-.212-1.282-.576A7.272,7.272,0,0,0,16.278.06a9.784,9.784,0,0,0-4.306.515A8.431,8.431,0,0,0,8.386,2.867,6,6,0,0,0,7.311,4.509c-.1.249-.121.4-.371.489-.231.085-.5.087-.739.168A9.291,9.291,0,0,0,.854,10a15.283,15.283,0,0,0-.841,6.3c.081,2.624,2.457,9.472,4.68,11.969a14.941,14.941,0,0,0,7.714,4.344,21.987,21.987,0,0,0-4.031,7.5,36.59,36.59,0,0,0-1.845,9.1,29.636,29.636,0,0,0,.458,8.976,9.728,9.728,0,0,0,4.362,6.333,20.859,20.859,0,0,0,3.358,1.573,22.145,22.145,0,0,0,3.459,1.106c2.248.463,4.838.384,6.57-1.4A12.306,12.306,0,0,0,26.5,63.557c.164-.283.262-.467.064-.744a5.328,5.328,0,0,0-.93-.843,8.732,8.732,0,0,1-3.1-5.786c-.276-2.375.363-5.441,2.679-6.478,2.859-1.28,6.007.189,8.548,1.558,1.08-3.8,3.3-7.222,6.773-8.966C44.385,40.37,48.8,40.144,52.75,38.49a7.287,7.287,0,0,0,2.837-1.8,3.657,3.657,0,0,0,.815-1.329,2.149,2.149,0,0,0-.565-1.67C54.147,31.054,47.738,25.727,44.4,24.713Z" transform="translate(39.658 4.056)" fill="#191847"/></g><g transform="translate(0 218.436)"><path d="M0,0,39.267,137.579l28.65,101.4h20.9L58.369,0Z" transform="translate(138.635 0)" fill="#191847"/><path d="M48.217,0c-.908,70.91-4.005,109.586-4.959,116.028S27.885,163.455,0,238.982H21.647Q74.9,130.3,81.1,116.028C85.231,106.514,97.989,67.838,117.2,0Z" transform="translate(79.917)" fill="#2f3676"/><g transform="translate(77.982 215.192)"><path d="M0,22.709,1.083,0H23.828c16.177,11.354,42.24,18.383,42.24,18.383v4.325H24.911l-14.08-2.163v2.163Z" transform="translate(0 20.546)" fill="#191847"/></g><g transform="translate(203.62 215.192)"><path d="M0,22.709,1.083,0H23.828c16.177,11.354,42.24,18.383,42.24,18.383v4.325H24.911l-14.08-2.163v2.163Z" transform="translate(0 20.546)" fill="#191847"/></g></g><g transform="translate(65.907 99.243)"><path d="M1.227,104.545c-1.116-.688-2.338-3.28.615-5.3C9.2,94.195,19.8,85.365,21.236,82.459,24.166,76.514,38.807,0,38.807,0L60.7.082S35.688,81.133,34.145,84.956c-2.314,5.735,2.583,14.468,4.676,19.162-3.3,1.477-4.834-.409-6.512-2.294-1.789-2.01-3.745-4.019-8.184-1.954-5.68,2.643-10.377,6.838-15.975,6.838A12.989,12.989,0,0,1,1.227,104.545ZM197.379,58.658,167.922,41.29l9.409-16.279,28.328,27.635a85.884,85.884,0,0,1,20.261,11.647c1.184,1.427,2.472,4.164-3.1,2.939s-11.484-2.262-12.532-.45,2.038,4.587.1,6.958a.732.732,0,0,1-.593.283Q207.134,74.024,197.379,58.658Z" transform="translate(0 72.181)" fill="#b28b67"/><path d="M0,2.231,8.485,0c17.767,46.781,90.35,73.379,96.2,90.936,2.145,6.439-2.3,10.177.323,11.966l-10.48,9.176c-2.09-2.046-5.782,2.354-14.479.263S4.969,59.03,0,2.231Z" transform="matrix(0.996, 0.087, -0.087, 0.996, 105.727, 7.84)" fill="#69a1ac"/><path d="M4.4,149.714c1-5.517-5.936-8.2-4.077-20.526C10.829,59.524,51.162,22.1,67.436,9.579l.41-5.858A4,4,0,0,1,72.115.01L99.049,1.894a4,4,0,0,1,3.712,4.269l-.72,10.293c-1,63.755,35.855,80.02,27.646,105.594-6.779,21.119-71.66,43.821-82.887,23.119-4.5-8.3-6.566-18.315-6.833-29.208-2.83,8.225-5.2,15.618-6.815,21.538-2.88,10.54-14.045,12.216-14.045,16.276Z" transform="translate(18.038 0)" fill="#89c5cc"/></g></g><g transform="translate(1047.694 245.219)"><path d="M0,0,10.084,47h7.273L24,0Z" transform="translate(139.199 91.442) rotate(-177)" fill="#b28b67"/><path d="M34.76.169C27.271-1.761-1.445,13.007.057,34.407S31.349,51.1,37.143,40.3,42.25,2.1,34.76.169Z" transform="translate(139.434 67.855) rotate(-177)" fill="#b28b67"/><path d="M7.593,33.1A7.5,7.5,0,0,0,6.03,36a29.39,29.39,0,0,0-1,3.3c-.5,2.249-.509,4.836,1.1,6.582a7.548,7.548,0,0,0,5,2.165,9.187,9.187,0,0,0,3.545-.449c1.129-.371,2.1-1.111,3.2-1.57a14.306,14.306,0,0,0,1.687,7.03,7.008,7.008,0,0,0,5.218,3.4,10.347,10.347,0,0,0,6.357-1.28c.494-.267.984-.547,1.453-.865a4.071,4.071,0,0,1,1.261-.693c.513-.121.768.176,1.1.55a8.368,8.368,0,0,0,1.3,1.168,7.647,7.647,0,0,0,7.155,1.23,6.649,6.649,0,0,0,2.917-2.109c.666-.873,1.14-2.258,2.059-2.866.39-.258.665.084,1.02.337.533.38,1.042.8,1.581,1.169a7.242,7.242,0,0,0,2.457,1.111c1.286.3,3.064.228,3.432-1.457a6.954,6.954,0,0,0-.012-1.947c-.061-.876-.125-1.751-.2-2.625a18.953,18.953,0,0,0-.256-1.957,2.863,2.863,0,0,1-.127-1.343c.186-.435,1.046-.188,1.413-.2A5.582,5.582,0,0,0,59.8,44.22a2.286,2.286,0,0,0,1.285-1.189,2.136,2.136,0,0,0,.036-1.118,3.335,3.335,0,0,1,.068-1.147c.974.48,4.349,1.545,4.774-.2a2.731,2.731,0,0,0-.426-1.728,14.979,14.979,0,0,0-1.573-2.395,21.412,21.412,0,0,0-4.19-4.065,2.746,2.746,0,0,0,.716-4.6,3.4,3.4,0,0,0-2.5-.725,5.524,5.524,0,0,1-1.033.082,2.47,2.47,0,0,0-.468-.158,13.928,13.928,0,0,0-3.832.486,12.636,12.636,0,0,0-5.844,3.056,1.8,1.8,0,0,1-1.352.621c-.5-.005-1-.143-1.5-.156a10.791,10.791,0,0,0-3.761,1.048,14.189,14.189,0,0,0-1.232-5c-.556-1.223-1.717-1.4-2.858-1.508-3.649-.343-7.31.04-10.963.035,3.536-.8,7.191-1.129,10.7-2.069,1.584-.425.375-1.493-.3-2.233a12.87,12.87,0,0,1-2.52-4.32c-1.73,2.255-4.788,3.741-7.5,3.048-2.993-.765-5.1-4.813-3.187-7.723,1.111-1.689,3.118-2.341,4.788-3.067-1.3-1.354-1.618-3.354-2.4-5.039a3.606,3.606,0,0,0-1.794-2.06,2.1,2.1,0,0,1-.947-.377c-.313-.323-.387-.684-.786-.961a4.434,4.434,0,0,0-5.494.423,3.586,3.586,0,0,0,.122,4.7c-1.7.708-4.791,1.618-4.116,4.263C8.032,10.387-.9,16.354,4.037,20.714c-2.71,1.531-5.2,5.274-3.459,8.574,1.34,2.541,4.457,3.676,7.015,3.811" transform="translate(157.851 60.376) rotate(-177)" fill="#191847"/><path d="M70.153,0,32.522,123.024,14.293,227.648H0L19.262,0Z" transform="translate(84.86 189.488)" fill="#997659"/><path d="M56.7,0c-2.556,67.547.452,102.389,1.024,108.526s8.405,45.929,26.95,121.183l-15.23-5.231C40.132,155.459,30.144,119.589,26.783,110.526S14.494,64.621,0,0Z" transform="translate(111.78 189.488)" fill="#b28b67"/><path d="M53.339,5.033A2,2,0,0,1,55.9,6.381l1.908,6.724a64.242,64.242,0,0,1-.9,7.894H.51s-2.2-7.268,2.538-7.848,7.87-1.047,7.87-1.047L37.133.419a1,1,0,0,1,1.332.532l1.685,4.088s4.385,2.046,7.127,2.046Z" transform="translate(140.2 407.488)" fill="#e4e4e4"/><path d="M53.339,5.033A2,2,0,0,1,55.9,6.381l1.908,6.724a64.242,64.242,0,0,1-.9,7.894H.51s-2.2-7.268,2.538-7.848,7.87-1.047,7.87-1.047L37.133.419a1,1,0,0,1,1.332.532l1.685,4.088s4.385,2.046,7.127,2.046Z" transform="translate(46.2 407.488)" fill="#e4e4e4"/><path d="M64.87,0l-16,62.68H0L7.287,0Z" transform="translate(95.142 189.488)" fill="#2f3676"/><path d="M60.957,0c7.9,23.671,3,62.68,3,62.68H14.087L.373,0Z" transform="translate(108.056 189.488)" fill="#89c5cc"/><path d="M8.3,47.974,40.255,21.837A89.606,89.606,0,0,0,62.372,11.579c1.36-1.376,2.949-4.1-2.952-3.336S47.278,9.549,46.354,7.572s2.535-4.581.74-7.22Q45.3-2.287,32.2,14.839L0,30.205Z" transform="matrix(-1, -0.017, 0.017, -1, 63.634, 211.421)" fill="#d4a181"/><path d="M56.987,90.548S30.293,31.5,26.013,26.069c-2.092-2.654-14.828-9.362-23.432-12.913C-.872,11.73-.186,8.822.8,7.878,8.847.2,16.379,5.657,25.186,7.681,34.834,9.9,31.641-1.473,39.263.161c-1.119,5.242-4.222,15.213-.616,20.561,2.4,3.565,36.587,65.861,36.587,65.861Z" transform="translate(263.319 238.433) rotate(-180)" fill="#d4a181"/><path d="M0,113.363l11.077,4.768C29.932,80.847,56.281,45.481,97.6,17.276L89.506,0C53.873,16.989,20.44,29.683,4.8,58.484-.445,68.151.7,101.317,0,113.363Z" transform="translate(130.48 192) rotate(177)" fill="#5c63ab"/><path d="M4.976.337C2.673-.855-1.646,7.479.656,8.671c6.52,3.376,14.317,3.452,23.171.471a4.693,4.693,0,1,0-3-8.895C14.215,2.474,9,2.424,4.976.337Z" transform="matrix(-0.999, 0.035, -0.035, -0.999, 58.798, 177.107)" fill="#5c63ab"/><path d="M0,2.4S49.2-3,77.453,2.4c2.334.446,2.231,10.5,1.149,13.247C61.75,58.413,50.665,89.718,50.665,119.421c-4.638-2.422-16.235-.726-16.235-.726C13.653,88.085,4.1,52.964,0,2.4Z" transform="matrix(-0.999, 0.035, -0.035, -0.999, 167.716, 191.848)" fill="#dde3e9"/><path d="M68.835,154.541S8.793,101.367,0,2.286L20.412,0c16.11,84.578,56.8,99.466,56.8,99.466l-2.827,56.053Z" transform="matrix(-0.978, 0.208, -0.208, -0.978, 236.906, 208.486)" fill="#8991dc"/><path d="M4.976.337C2.673-.855-1.646,7.479.656,8.671c6.52,3.376,14.317,3.452,23.171.471a4.693,4.693,0,1,0-3-8.895C14.215,2.474,9,2.424,4.976.337Z" transform="matrix(-0.999, 0.035, -0.035, -0.999, 237.497, 198.404)" fill="#8991dc"/><path d="M0,0C43.037,17.184,87.249-4.325,118.218,2.588c16.755,86.1-31.5,186.925-28.005,233.1H79.97c-5.753-13.771-21.071-34.48-28.587-55.282-6.192-17.137,1.832-34.7-1.085-52.744C43.818,87.574,1.838,39.8,0,0Z" transform="matrix(-0.999, 0.035, -0.035, -0.999, 223.969, 304.45)" fill="#8991dc"/><rect width="9.389" height="12.514" rx="4.5" transform="matrix(-0.978, 0.208, -0.208, -0.978, 176.135, 194.595)" fill="#8991dc"/><path d="M9.622,79.26,4.239,62.714l10.84-12.4-9.8-9.747L28.982,0,0,40.482,9.622,50.31,0,61.271Z" transform="matrix(-0.999, 0.035, -0.035, -0.999, 145.556, 151.703)" fill="rgba(0,0,0,0.1)"/><path d="M6.26,4.171A4.173,4.173,0,1,0,10.433,0,4.173,4.173,0,0,0,6.26,4.171ZM5.217,28.158A4.173,4.173,0,1,0,9.39,23.987,4.171,4.171,0,0,0,5.217,28.158ZM0,52.145a4.173,4.173,0,1,0,4.173-4.172A4.172,4.172,0,0,0,0,52.145Z" transform="matrix(-0.999, 0.035, -0.035, -0.999, 129.929, 215.904)" fill="rgba(0,0,0,0.4)"/></g></g></svg>