<?xml version="1.0" encoding="UTF-8" standalone="no"?>
<svg
   xmlns:dc="http://purl.org/dc/elements/1.1/"
   xmlns:cc="http://creativecommons.org/ns#"
   xmlns:rdf="http://www.w3.org/1999/02/22-rdf-syntax-ns#"
   xmlns:svg="http://www.w3.org/2000/svg"
   xmlns="http://www.w3.org/2000/svg"
   xmlns:sodipodi="http://sodipodi.sourceforge.net/DTD/sodipodi-0.dtd"
   xmlns:inkscape="http://www.inkscape.org/namespaces/inkscape"
   id="Livello_1"
   data-name="Livello 1"
   viewBox="0 0 1659.7908 565.5"
   version="1.1"
   sodipodi:docname="logo.svg"
   width="1659.7908"
   height="565.5"
   inkscape:version="0.92.4 5da689c313, 2019-01-14">
  <title
     id="title3861">AshPy</title>
  <metadata
     id="metadata3815">
    <rdf:RDF>
      <cc:Work
         rdf:about="">
        <dc:format>image/svg+xml</dc:format>
        <dc:type
           rdf:resource="http://purl.org/dc/dcmitype/StillImage" />
        <dc:title>AshPy</dc:title>
      </cc:Work>
    </rdf:RDF>
  </metadata>
  <sodipodi:namedview
     pagecolor="#ffffff"
     bordercolor="#666666"
     borderopacity="1"
     objecttolerance="10"
     gridtolerance="10"
     guidetolerance="10"
     inkscape:pageopacity="0"
     inkscape:pageshadow="2"
     inkscape:window-width="1080"
     inkscape:window-height="1861"
     id="namedview3813"
     showgrid="false"
     fit-margin-top="0"
     fit-margin-left="0"
     fit-margin-right="0"
     fit-margin-bottom="0"
     inkscape:zoom="0.3845"
     inkscape:cx="737.17171"
     inkscape:cy="-167.66512"
     inkscape:window-x="0"
     inkscape:window-y="0"
     inkscape:window-maximized="1"
     inkscape:current-layer="Livello_1" />
  <defs
     id="defs3794">
    <style
       id="style3792">.cls-1,.cls-5,.cls-6{fill:#d3145b;}.cls-2,.cls-3{fill:#28285b;}.cls-3{font-size:288.5px;font-family:NasalizationRg-Regular, Nasalization;}.cls-4{letter-spacing:-0.03em;}.cls-5{letter-spacing:-0.04em;}.cls-6{letter-spacing:0em;}</style>
  </defs>
  <path
     class="cls-1"
     d="m 551.59,221.5 a 43,43 0 0 1 -31.33,41.37 335,335 0 0 1 -177.72,-14.25 v 0 a 9.68,9.68 0 0 1 -4.25,-14.5 v 0 a 111.51,111.51 0 0 1 63.92,-44 27.36,27.36 0 1 0 -33.16,-33.14 111.71,111.71 0 0 1 -64,75.28 l -1.86,-1 v 0 a 57.46,57.46 0 0 0 -26.62,-6.5 c -0.26,0 -0.51,0 -0.75,0 h -0.76 a 57.46,57.46 0 0 0 -26.62,6.5 v 0 l -1.22,0.62 a 111.68,111.68 0 0 1 -63.25,-74.95 27.35,27.35 0 1 0 -33.16,33.14 111.62,111.62 0 0 1 63.7,43.62 v 0 c 0.1,0.13 0.19,0.26 0.28,0.4 a 9.33,9.33 0 0 1 -4.44,14 0.73,0.73 0 0 1 -0.19,0.07 l -1.1,0.41 A 335,335 0 0 1 31.34,262.79 43,43 0 0 1 0,221.5 a 43.47,43.47 0 0 1 0.58,-7 C 31.14,91.3 142.42,0 275.04,0 h 1.51 C 409.14,0 520.46,91.3 551,214.5 a 42.36,42.36 0 0 1 0.59,7 z"
     id="path3798"
     inkscape:connector-curvature="0"
     style="fill:#d3145b" />
  <path
     class="cls-2"
     d="m 553.14,344.04 a 44.64,44.64 0 0 1 -0.58,7 C 521.97,474.21 410.68,565.5 278.06,565.5 h -1.51 C 143.92,565.5 32.64,474.21 2.14,351.03 a 42.36,42.36 0 0 1 -0.58,-7 43,43 0 0 1 31.31,-41.37 335.19,335.19 0 0 1 174.88,13.2 l 2.08,0.75 a 7.92,7.92 0 0 1 1.34,0.48 9.56,9.56 0 0 1 3.69,2.94 v 0 c 0.1,0.13 0.19,0.26 0.28,0.4 a 9.5,9.5 0 0 1 0.14,10.4 l -0.57,0.8 a 3.94,3.94 0 0 1 -0.38,0.45 h 0.05 a 111.7,111.7 0 0 1 -63.42,43.24 27.35,27.35 0 1 0 33.1,33.18 111.75,111.75 0 0 1 64,-75.29 c 0.63,0.32 1.25,0.63 1.86,1 v 0 a 57.62,57.62 0 0 0 26.63,6.49 h 0.75 0.76 a 57.61,57.61 0 0 0 26.62,-6.49 v 0 l 1.21,-0.63 a 111.73,111.73 0 0 1 63.25,74.92 27.35,27.35 0 1 0 33.15,-33.14 111.62,111.62 0 0 1 -63.15,-42.93 6.36,6.36 0 0 1 -0.5,-0.66 5.74,5.74 0 0 1 -0.43,-0.66 9.58,9.58 0 0 1 4.66,-13.77 l 0.24,-0.08 a 0.62,0.62 0 0 1 0.19,-0.07 335,335 0 0 1 178.51,-14.52 43,43 0 0 1 31.33,41.37 z"
     id="path3800"
     inkscape:connector-curvature="0"
     style="fill:#28285b" />
  <text
     class="cls-3"
     id="text3810"
     style="font-size:288.5px;font-family:NasalizationRg-Regular, Nasalization;fill:#28285b"
     x="712.13"
     y="365.76999">
    <tspan
       class="cls-4"
       id="tspan3802"
       style="letter-spacing:-0.03em">A</tspan>
    <tspan
       x="918.40997"
       y="365.76999"
       id="tspan3804">SH</tspan>
    <tspan
       class="cls-5"
       x="1306.15"
       y="365.76999"
       id="tspan3806"
       style="letter-spacing:-0.04em;fill:#d3145b">P</tspan>
    <tspan
       class="cls-6"
       x="1483"
       y="365.76999"
       id="tspan3808"
       style="letter-spacing:0em;fill:#d3145b">Y</tspan>
  </text>
</svg>
